<svg id="Layer_1" data-name="Layer 1" xmlns="http://www.w3.org/2000/svg" viewBox="0 0 85.01 167"><defs><style>.cls-1{fill:#fff;}.cls-2{fill:#668632;}</style></defs><path class="cls-1" d="M72.12,168.2c.31-.06.62-.14.92-.23a10.46,10.46,0,0,1,1.12,0,10.32,10.32,0,0,0,1.9-.46,8.58,8.58,0,0,0,.83-.35,4.42,4.42,0,0,1,1.31,0h3.69a11,11,0,0,1,2.21.26,12.11,12.11,0,0,0,2.55.17c.64,0,1.32.06,1.95,0a8.65,8.65,0,0,0,1.33-.25,4.23,4.23,0,0,0,1.3-.38,3.68,3.68,0,0,0,1-2.14v-1.9a12.47,12.47,0,0,0-.42-3.44c-.22-.78-.25-1.58-.4-2.37s-.31-1.65-.47-2.47a5.27,5.27,0,0,1-.17-2.2c.11-.27.23-.53.36-.79.15-.51.25-1.14.37-1.66a8.38,8.38,0,0,1,.25-1.23,2.31,2.31,0,0,0,.27-1.09,10.53,10.53,0,0,1,.2-1.48,9.38,9.38,0,0,1,.12-1.3c.18-.68.15-1.43.27-2.12a10.91,10.91,0,0,0-.17-2.55c0-.65-.19-1.24-.2-1.89s0-1.59,0-2.39a5.57,5.57,0,0,1,0-1c.06-.43.34-.77.42-1.21a13,13,0,0,0,.2-2.16v-2a5.19,5.19,0,0,1,.15-2c.65-1.51,2.39-2.51,2.19-4.34a9.18,9.18,0,0,0-.59-1.84c-.31-.93-.74-1.82-1-2.74a5.86,5.86,0,0,1-.32-1.23,4.79,4.79,0,0,0,0-1.31c-.24-.71-.59-1-.18-1.78a2,2,0,0,0,.44-1.18v-1c0-1,.53-1.3,1.48-1.31a1.13,1.13,0,0,0,1-.86c.13-.45-.17-.7-.4-1.06-.44-.72-1.23-.93-1.14-1.9.06-.71.11-1.65-.55-2.14a1.22,1.22,0,0,0-.89-.2c-.62,0-1.26.41-1.89.3a6,6,0,0,1-1.51-.66c-.58-.31-1.07-.73-1.64-1.06s-1.08-.89-1.65-1.28-1.32-1.07-2-1.54-1.23-.66-1.81-1a9.35,9.35,0,0,1-1-.63c-.12-.14-.24-.27-.37-.4s-.39-.1-.58-.23c-.6-.42-1-1-1.67-1.36a13.21,13.21,0,0,0-1.85-1c-.43-.18-1.21-.12-1.37-.65s-.11-1.46.43-1.66l1-.37c.35-.14.61,0,1-.08a2,2,0,0,0,1.22-1.13c.15-.47.11-1,.51-1.38a3,3,0,0,1,.91-.37,3,3,0,0,0,1-.64,2.37,2.37,0,0,0,.54-1.75v-.9c0-.44.21-.83.22-1.28s0-.75-.42-.85a4.79,4.79,0,0,0-1.07,0,5.64,5.64,0,0,0-2.12.8c-.62.32-1.06.25-1.25-.49a11,11,0,0,1,.19-2.56v.26c-.42-.27-.29-1.2-.42-1.62a2,2,0,0,0-.59-1.1c-1.49-1-3.15,1.35-3.76,2.36a10.13,10.13,0,0,0-1,1.69c-.18.45-.24.93-.43,1.36A27,27,0,0,1,70.26,88c-.45.8-.85,1.63-1.3,2.43a1.65,1.65,0,0,1-.29.45,1.13,1.13,0,0,1-.76.29c-.93,0-1.93-.06-2.86-.07a4.38,4.38,0,0,1-1.71-.37c-.21-.1-.41-.24-.62-.33a6.22,6.22,0,0,0-1.13-.2c-.49-.1-1-.46-1.48-.54a6.36,6.36,0,0,1-1.22-.21c-.48-.21-.61-.31-.64-.9a1.52,1.52,0,0,1,.43-1.27,9.82,9.82,0,0,1,1.06-1.17c.4-.37.7-.73,1.06-1.12a9.93,9.93,0,0,0,1.64-2.37c.51-1,1.16-2,1.7-3a31,31,0,0,0,1.69-3.82,24.39,24.39,0,0,0,.74-4.25,8.62,8.62,0,0,0,.16-1.68V69c0-.5.19-.89.23-1.38.1-1.23,0-2.53,0-3.77V62.29a10.33,10.33,0,0,0-.43-1.89,12.13,12.13,0,0,0-.69-2,6,6,0,0,0-.36-1,8.8,8.8,0,0,0-.64-.73c-.45-.55-.84-1.13-1.26-1.7-.24-.34-.6-.52-.86-.83A5.84,5.84,0,0,0,61.64,53c-1-.7-1.81-1.72-2.85-2.38-.25-.15-.49-.22-.74-.35s-.54-.48-.85-.66-.58-.31-.86-.47-.71-.27-1.06-.47a7,7,0,0,1-1-.63c-.44-.34-.9-.55-1.35-.85-.17-.12-.25-.27-.41-.38s-.31-.07-.49-.42a4.46,4.46,0,0,1-.37-1.53,6.8,6.8,0,0,0-.57-3.36c-.26-.5-.65-.5-1.09-.5-.67,0-1.51-.18-2.07.2a6.42,6.42,0,0,1-1.09.68A7.88,7.88,0,0,0,45,43a8.93,8.93,0,0,1-1.21,1c-.86.49-1.77.92-2.64,1.39-.18.1-.36.25-.53.36a23.25,23.25,0,0,1-2.26,1.06,15.62,15.62,0,0,0-1.74.86c-.28.21-.3.42-.53.66a10.23,10.23,0,0,1-2.26,1.42,11.43,11.43,0,0,0-1.7,1c-.8.69-1.42,1.51-2.29,2.17A17.33,17.33,0,0,0,28,54.2c-.29.3-.27.67-.54,1-.72.92-1.83,1.58-2.44,2.61a10.39,10.39,0,0,1-.67,1.28,12.42,12.42,0,0,0-1.88,3.3A3,3,0,0,0,22,63.46a4.48,4.48,0,0,1-.15.89c-.11.42,0,.85-.09,1.27a9.77,9.77,0,0,1-.32,1.32,10,10,0,0,0-.69,3.38A13.53,13.53,0,0,0,21,74.53c.38,1.17,1,2.25,1.43,3.38.32.83,0,1.6.69,2.28a4,4,0,0,1,.8.9,4.31,4.31,0,0,1,.42,1.49c0,.81-2.46,1.92-1.93,2.69.22.31,2.34.41,2.51.75a5.2,5.2,0,0,1,.43,1v.6c0,.21.21.39.24.62.05.42-.88.46-.45,1.28.56,1.09.33,2.08,1.23,2.75a9.16,9.16,0,0,0,1.32,1c.59.28,1.3.4,1.91.66.41.18.75.47,1.15.66a9.7,9.7,0,0,0,1.9.58,12.67,12.67,0,0,1,2,.24l.91.41a6.53,6.53,0,0,0,1.25,0c1.37,0,2.66-.4,4-.43a5.75,5.75,0,0,0,1.7-.21C43.2,95,44,95,44.7,94.79c1.55-.48,4.24-2.2,5.87-1a6.52,6.52,0,0,1,1.77,2.39c.25.58.61,1.07.89,1.64s.42,1,.67,1.57c.46,1,.59,2.15,1.15,3.16a16.33,16.33,0,0,1,1,1.59,8.8,8.8,0,0,0,.42,1,4.83,4.83,0,0,1,.54,1c.13.46.21.92.33,1.36s.27.71.36,1a10.28,10.28,0,0,1,0,2.6V114c0,.51.22.9.21,1.44A7.13,7.13,0,0,1,58,117c-.1.49-.49.84-.61,1.28a2.22,2.22,0,0,0,0,.63,6.61,6.61,0,0,1-.3.85,1.81,1.81,0,0,1-.59,1,9,9,0,0,1-.84.52c-.37.27-.63.68-1,.93a4.15,4.15,0,0,1-1,.47,1.78,1.78,0,0,0-.65,0,2.14,2.14,0,0,0-.74.44c-.52.38-.54.57-.53,1.19,0,.79-.07.85.64,1.14.39.16.61.21.64.64s-.35.75-.65,1.14a7.29,7.29,0,0,0-.52,1c-.13.23-.3.49-.41.73a3.1,3.1,0,0,0-.17.73c-.18.73-.37,2.22.9,1.54.36-.19.63-.47,1.07-.12a1.41,1.41,0,0,1,.41,1c0,.44-.07.71.2,1.06s.62.35,1.07.32a4.76,4.76,0,0,0,1.27-.43c.32-.1.81-.34,1.17-.2.55.22.83,1.69,1.59,1.5.25-.07.54-.62.68-.86.36-.59.4-.66,1.11-.65.93,0,2.24.16,2.24-1.16a8.06,8.06,0,0,0-.42-1.53,5,5,0,0,1,0-1.8,10.86,10.86,0,0,1,.85-1.62,4.91,4.91,0,0,0,.81-2.49,8.36,8.36,0,0,1,.41-1.78,4.24,4.24,0,0,1,.49-1.88,2.38,2.38,0,0,1,1-.62c.67-.21,1.26.38,1.81.71s.9.19,1.47.32,1,.53,1.6.63a2.27,2.27,0,0,1,1.56.63,3.05,3.05,0,0,0,1.23.8c.46.13.53.09.85.46a1.07,1.07,0,0,0,.6.44c.22.08.35,0,.53.19s.13.52.19.75a6.18,6.18,0,0,0,.41,1,6.41,6.41,0,0,1,.55,2.32c.1,1,.22,2,.22,3a14.68,14.68,0,0,0,.21,3.24,25.28,25.28,0,0,1,.21,5.36v7c0,1.4-.22,2.77-.21,4.17a16.5,16.5,0,0,1,0,2.63c-.07.43-.31.82-.4,1.25a7.46,7.46,0,0,1-.28,1.13,4.11,4.11,0,0,0-.37,1.58,4.51,4.51,0,0,1-.3,1.62,3,3,0,0,1-1.14,1.47,13.83,13.83,0,0,1-2,1c-1.39.69-2.42,1.81-3.92,2.34a15.78,15.78,0,0,0-2.09.75c-.67.37-1.13,1.09-1.82,1.37a4.59,4.59,0,0,0-1.37.62c-.47.52.33.9.78,1,1.09.32,2.35-.17,3.45.06.75.15,1.32.65,2.12.67a2.54,2.54,0,0,0,.86-.18A5.81,5.81,0,0,1,72.12,168.2Z" transform="translate(-17.73 -1.9)"/><path class="cls-2" d="M95.92,108.54c-.17-.78-.94-3.52-1.85-4.14-.44-.3-.86-.09-1.22-.23-1.3-.5-2.55-.22-3.84-.84a14.45,14.45,0,0,1-2.37-1.74c-1.73-1.3-3.52-2.45-5.29-3.69-.43-.31-4.1-2.22-4.21-2.6-.47-1.52,4.8-5.07,5.41-6.36,1.53-3.26.54-4-1.67-4.7-.35-.1-.82.4-1.16.3h-.06c-.86.38-1.42-.1-1.66-1.41a.43.43,0,0,0,.26-.44v-.26a.5.5,0,0,0-.39-.46c0-.27,0-.56,0-.87s-.07-.67-.28-.85c-.81-.72-1.06-1.09-2.29-.8-4.46,1.08-4.07,9.21-7.77,11-.27.06-.55.11-.82.15a1.69,1.69,0,0,0-1,.06,8.34,8.34,0,0,1-4-.91c-1.35-1-3,.36-1.64-3.25.2-.54,1.14-1.21,1.51-1.68a32,32,0,0,0,4.21-7.53c1.89-4.74,2.58-12,1.19-17C65.82,56,62.6,52.66,59,50.12c-1.78-1.27-4.95-2-6.25-3.81-1.07-1.47,0-4-1.43-5.31-2.83-2.57-8.93,3.18-11,4.23a61.35,61.35,0,0,0-8.5,5.26,69.27,69.27,0,0,1,.24-8.88c.57-5.5,2.16-10.69,3.8-16C37.28,21,39.36,16.72,40.47,12c.72-3.08,2.11-6.44,2-9.63,0-.63-1.33-.63-1.31,0,.08,3.38-1,8.5-1.84,11.7-1.23,4.83-3.47,9.46-5,14.22-2.48,7.72-3,15-3.06,22.62a32.18,32.18,0,0,0-5,4.8A24.26,24.26,0,0,0,20.23,71c-.12,3.26,1.29,5.81,2.24,8.87.11.21.22.43.31.65,1,1.37,1,2.38.08,3a2.48,2.48,0,0,0-.56.56,11.35,11.35,0,0,0-.38,1.12.48.48,0,0,0,.25.43c2.55,1.12,2.29,1.79,2.53,4,.27,2.43,1.89,3.5,3.85,4.47a18.43,18.43,0,0,0,9.74,2.13,34.38,34.38,0,0,0,6.62-.92c2.83-.79,3.48-2.74,7.07,1.21.92,1,1.27,2.62,1.78,3.87,1.89,4.75,3.72,8.37,3.57,13.69-.07,2.27-.09,4.94-1.92,6.66-.89.83-2.7.9-3.5,1.85s-.49,1.59-.42,2.77c0,.73.6-.18.43,1.43-.06.61-.76,1.18-1,1.77a4.33,4.33,0,0,0-.15,2.73.5.5,0,0,0,.48.37c2-.16,1.24,1.61,2.74,2.13.63.22,1.09-.25,1.62-.15a15.66,15.66,0,0,1,3.13,1.08.5.5,0,0,0,.48-.13c1-1,2.86-.86,3.7-1.83a2,2,0,0,0,.47-1.32c.13-.69-.54-1.59-.48-2.29.09-1.29.79-1.79,1.16-2.88s.39-2.75,1-3.79c.82-1.45,1.75-1.45,3.43-1.2,1.92.27,5.06,1.43,6.45,3,2,2.27,1.52,6.27,1.77,9.25A119.55,119.55,0,0,1,77,146.78c-.13,5.17.09,10.87-4.42,14.41-2.64,2.07-6.25,3.4-9.2,5.08a.48.48,0,0,0-.25.43c.08,1.13.14,1,1.22,1.52.81.39,3.62.31,4.42.44,2.46.38-.12.25,3.28,0a.46.46,0,0,0,.2,0,37.28,37.28,0,0,1,7.8-1c2.84,0,5.71.7,8.55.43,4.6-.45,4.42-3.84,3.79-7.89-.45-2.85-1.25-5.53-.85-8.42.37-2.69,1.15-5.12,1.38-7.88.52-6.29-.59-12.1,1.84-18.13,1.74-4.33-2.36-8-.84-12.54C94.92,110.25,96.55,111.49,95.92,108.54ZM79.34,90.12c-1.68,1.74,1.48-.54-2.34,2.44-.29.22-1.07.15-1.31.52a3.1,3.1,0,0,0-.47,1.14,16.46,16.46,0,0,0-2-1.26c.91-1.18,1.71-2.54,2.58-3.75.62-.88,1.12-2.4,1.91-3.24a.54.54,0,0,0,.47.15C83,85.18,81.78,87.58,79.34,90.12Zm-8.27-2.57c1.11-2,3.89-9.61,6.13-4.87a5.08,5.08,0,0,0,0,2.51,6.25,6.25,0,0,0-1.09,1.56c-.81,1.29-1.73,2.46-2.58,3.72a9.58,9.58,0,0,1-1.11,1.88l-.35.29-.67-.17a20.7,20.7,0,0,0-2.4-1l-.38-.21-.09,0C69.71,90.7,70,89.49,71.07,87.55Zm-7.86,37.66c-.34,1-1,2-1.29,3-.16.67.29,1.83.12,2.39-.35,1.09-2.64,2.38-3.86,2.45a16.22,16.22,0,0,0-2-.65,5.8,5.8,0,0,1-3.53-2c-.15-.2-.81-.11-1.06-.66-.35-.76,1.51-2.36,1.55-3,.09-1.13-.86-1.53-.86-2.2,0-1.3,3.57-2.42,4.46-3.52a9,9,0,0,0,1.69-4.77,25.13,25.13,0,0,0,0-4.07c2,3.3,4.1,5.83,7.6,7.61C64.51,120.06,64.37,121.81,63.21,125.21Zm29.07,3.15c-1,5.68.1,11.45-.58,17.16-.32,2.68-1.62,5.34-1.54,8,.09,3.3,3.67,10.81.31,13.16-2.26,1.58-7.77,0-10.43-.06a31.68,31.68,0,0,0-7.87,1.06l-.09,0-.58,0c1.09-.54,2-1.4,3-2,2.35-1.45,4.7-1.53,7-2.61,2.57-1.21,3-3.54,3.36-6.07.69-4.63-1-9.23-1.35-13.87a50.24,50.24,0,0,1,.09-6.94c.15-2.5-.66-5.12-.37-7.49,0,0,0,0,0,0a8.51,8.51,0,0,0,1.53-.71c1.28-.7,2-1.94,3.65-1.85.83,0,1.74.65,2.58.55,1.07-.13,1.58-1,2.52-1.38-.09.27-.19.55-.3.86C92.75,127.45,92.53,127,92.28,128.36Zm1.58-4.2a.5.5,0,0,0-.34,0c-1.52.44-1.65,1.21-3.6,1.1-1.29-.08-2.34-.37-3.61.19-.73.33-1.4,1.22-2,1.6-2.49,1.49-1.43.61-2.07-.36A7,7,0,0,0,80,124c-.55-.34-1,.53-.5.87l0,0c1.47.9,1,3,2.43,3.72l.23.07c-.28,2.1.33,4.13.36,6.24s-.4,4.17-.25,6.32c.29,4.1,1.46,8.06,1.73,12.11s-.4,7.85-4.41,9.35a39.82,39.82,0,0,0-4,1.32c-1.85.92-3.31,2.61-5.19,3.42-.14.06-.19.14-.19.21-2.06-.06-5-.32-5.17-1.14-.09-.45,7.25-4,7.76-4.3,1.51-.85,2.85-1.26,3.59-2.92,1.47-3.27,1.31-7.67,1.47-11.17.16-3.66.22-7.44.07-11.1s-.12-7.86-1.22-11.39a5.71,5.71,0,0,0-2.91-3.37A12,12,0,0,0,79,122a.52.52,0,0,0-.26-1c-3.54,1.09-8.86-.5-12-2-4.11-2-6.35-5.35-8.58-9.22a.43.43,0,0,0-.11-.12c-.77-4.12-2.47-7.89-4.44-12C52.9,96,51.82,93.48,49.68,93a4.46,4.46,0,0,0-2.14.28A55.47,55.47,0,0,1,40.83,95a21,21,0,0,1-9-.48,27.86,27.86,0,0,1-3-1.27,6.28,6.28,0,0,0,2.78-1.13,4.59,4.59,0,0,0,.36-.41,4.49,4.49,0,0,0,3.64,2l.08,0h.12a.5.5,0,0,0,0-1c-1.28,0-3.15-.84-3.16-2.24a4.6,4.6,0,0,0,.27-1,.5.5,0,0,0-.5-.5.49.49,0,0,0-.43.24c0,.1-.07.19-.1.28h0a0,0,0,0,1,0,0,3.44,3.44,0,0,0-.17.72c-.61,1.64-2.54,1.67-4,2.36a3.88,3.88,0,0,1-.89-.66c-1-1.11-.58-2.44-.69-3.49a5.36,5.36,0,0,0-.8-2.81c-.21-.25-1.43-.42-1.46-.52-.47-1.45.61-.8,1-2.32.29-1.29-1.6-4.45-1.89-5.11A19.67,19.67,0,0,1,21.52,68h0v0c1-.4,2.15-1.35,3.15-1.5s2.21.64,3.23.7c2.73.17-1.45,0,2.74-.53a14.38,14.38,0,0,1,6.51.64,11.26,11.26,0,0,0,3.64.61c3.38.09,3.11.75,5.53,1.69a3.23,3.23,0,0,0,2.08.42c-1.84,2-3.22,4.19-2.89,7,.07.63,1.07.64,1,0-.47-3.92,3.19-6.64,5.59-9.36-.14,1.53-.07,3.12-.87,4.38-.35.54.52,1,.86.5v0a6.19,6.19,0,0,0,.8-3.2,16.08,16.08,0,0,1,2-5.63,19.54,19.54,0,0,1-.07,4.39c-.34,2.43-1.38,3.91-2.19,6.21-.68,1.93-.49,4.06-1.15,6-.46,1-1,1.93-1.52,2.85a2.49,2.49,0,0,1-2.17,2.08.5.5,0,0,0-.52-.48.5.5,0,0,0-.48.48h0c.32,4.21,3.93-1.27,4.48-2.34,1.57-3,1.78-6.37,3.07-9.56C56.1,69.07,56,66,55.71,62.06a3.46,3.46,0,0,0-.15-3.45.51.51,0,0,0-.72,0h0l-.06.09a.45.45,0,0,0-.3.45c0,.19,0,.38.05.56-.85,4-2.56,6.42-5.29,9.42a.51.51,0,0,0-.33-.13H48.6a.5.5,0,0,0-.5.5.48.48,0,0,0,.37.47h0c-1.85-.15-3.78-3.36-6.06-3.54-1-.08-1.68.63-2.63.61C37.38,67,36.56,65.16,34.64,65c-2.69-.22-5.4.72-8.16.65-2,0-3,.5-4.79,1.23a19.37,19.37,0,0,1,1.6-5.15,31.42,31.42,0,0,1,8-9.57c0,2.84.09,5.72.16,8.7,0,.29.58.29.59,0v0c.07-3.08-.06-6.12-.15-9.17a48.87,48.87,0,0,1,5.91-4.08c2.75-1.61,5.61-3.15,8.36-4.76a13.37,13.37,0,0,1,1.5-.79c3.13-1.2,2.69.42,3.56,2.78.21.57.08,1.31.48,1.83,1.4,1.88,4.26,2.73,6.14,4,3.22,2.19,6.51,5.08,7.94,8.84,1.5,4,.78,9.32.13,13.48a23.37,23.37,0,0,1-3.44,8.61,15.74,15.74,0,0,1-1.68,2.13.44.44,0,0,0-.47.12c-1.15,1.17-2-3.37-2.37-3.91-.91-1.28-2.3-.58-3.31.14a.5.5,0,0,0-.16.7.48.48,0,0,0,.28.22h.12a.42.42,0,0,0,.55-.24v0c.5-.37,1.17-.83,1.73-.2a2.67,2.67,0,0,1,.34,1.1,7.68,7.68,0,0,0,.7,2.19,2.51,2.51,0,0,0,1.49,1.14,9.89,9.89,0,0,0-1.41,2c-1.7,3.61,3.95,4.49,7.18,4.61a.27.27,0,0,0,.08.07.5.5,0,0,0,.56,0h.69c.26.11.6.25,1,.44,0,.84.82.94,1.53,1.1l1,.15,4.77,2.44a16.08,16.08,0,0,1-2.5,5.35c-.43.66-1.1,1-1.27,1.85-.35,1.69.9,2.45,2.19,3.19.92.52,1.87.78,2.82,1.23a32.94,32.94,0,0,1,3.58,2.52c1.23.78,3.15,1.09,3.8,2.56.56,1.27-.38,3.08,0,4.51a.51.51,0,0,0,.35.35c1.73.44,2.37-1.52,3.31.77a.51.51,0,0,0,.48.36c1.54,0,2-2.17,3.19-2.76.58-.28,1.23-.33,1.53-.62a10.6,10.6,0,0,0,.52,3.67c.82,2.94,1.44,3.15.81,5.45ZM92.75,113a10.64,10.64,0,0,0-.17,1.11,2.26,2.26,0,0,0-.13-.33c-.29-.58-1.15-.07-.86.5-.24-.48-2.2.36-2.53.71-1.14,1.17-.4,3.64-1.5.56a.51.51,0,0,0-.62-.35l-1,.39c-1.37-.45-.7.25-1.13-1.23-.25-.87.15-1.61-.28-2.55-.83-1.81-3.48-2.76-5-3.89s-5.27-1.67-6.41-3.23c-1.71-2.34,1.11-3.52,2-5s.66-2.21.92-3.53l.14,0h0c1.12.86,2.89,1.46,4,2.24,2.12,1.47,4.36,2.85,6.48,4.42A14.1,14.1,0,0,0,89,104.49c.51.09,3.83,1.23,3,.82,1.76.91,1.72,1.38,2.27,2.82a.5.5,0,0,0,.13.22c.94,1.46.79,2.15-.45,2.06C93.53,111.41,93,111.68,92.75,113Z" transform="translate(-17.73 -1.9)"/><path class="cls-2" d="M89.31,104.68l-.32-.19C88.86,104.46,88.91,104.51,89.31,104.68Z" transform="translate(-17.73 -1.9)"/><path class="cls-2" d="M37.86,126a3.55,3.55,0,0,0-2.92-.63l-.68.2a7.07,7.07,0,0,0,.44-.63,4.93,4.93,0,0,0,.89-2.67c0-1-1-.94-1.71-.9a5.65,5.65,0,0,0-2.7.88,4.21,4.21,0,0,0-.45.28,2.23,2.23,0,0,0,.24-1.8c-.27-.64-1.07-.75-1.69-.76a3.8,3.8,0,0,0-2.11.51,4.7,4.7,0,0,0-1,.83c-.34.35-.75.53-1,1a4.44,4.44,0,0,0-.31,3c.16.59.44,1.16.64,1.73a4.51,4.51,0,0,0-1.17-.56c-.51-.16-1-.43-1.47-.59a5.86,5.86,0,0,0-2.36,0,3.34,3.34,0,0,0-2,.8,2.14,2.14,0,0,0-.45,2.07,4.35,4.35,0,0,0,1.07,2.46,3,3,0,0,0,1.16.36,3.15,3.15,0,0,0-2,1.39,3.92,3.92,0,0,0-.53,2.41,2.44,2.44,0,0,0,.32.94,1.18,1.18,0,0,0,.89.57,4,4,0,0,0,1.41.33,7.9,7.9,0,0,0,.85-.07c0,.08-.1.15-.14.23a2.64,2.64,0,0,0,.11,2.5c.54.7,1.51.59,2.28.49a7.2,7.2,0,0,0,2.54-.56,2.43,2.43,0,0,0,.47,1.57,3.08,3.08,0,0,0,2.61.63,4.6,4.6,0,0,0,2.47-1,2.86,2.86,0,0,0,.32-.84,6.53,6.53,0,0,0,2.48.33c.82,0,1.45-.23,1.48-1.15a5.17,5.17,0,0,0-.59-3.09c-.23-.3-.49-.58-.75-.86a5.17,5.17,0,0,0,1.11.06,1.38,1.38,0,0,0,1.53-1,2.88,2.88,0,0,0-.46-2.15,3.38,3.38,0,0,0-2-1.23l1.31-.3a6.64,6.64,0,0,0,1.38-.41,2.72,2.72,0,0,0,.49-4.37Zm-9.14,4.48c.07.23.16.46.23.7v.28a1,1,0,0,1,0,.24v.1h0v0a1.32,1.32,0,0,0-.25.28l-.08.1s-.08,0,0,0H28l-.21-.07-.21-.09h-.06l-.17-.12h-.05c.06,0,0,0,0,0l-.07-.1a0,0,0,0,1,0,0,.28.28,0,0,0-.06-.18,1.33,1.33,0,0,1,.31-1.05.82.82,0,0,1,.36-.21,1.34,1.34,0,0,1,.4-.06c.12,0,.3-.07.3-.22s-.18-.21-.3-.22l0,0h.42a1.18,1.18,0,0,0,.08.67Zm-1.24-.75h0Zm2.42,1.53-.08.08a3.92,3.92,0,0,0-.13-.49c.07.13.13.27.21.41ZM32.55,122a4.39,4.39,0,0,1,1.56-.28c.32,0,.59,0,.65.4a2.4,2.4,0,0,1-.13.7,5.18,5.18,0,0,1-1.34,2.42,5.78,5.78,0,0,1-.92.93c-.36.13-.72.24-1.07.38l-.35.14c-.51.09-1,.18-1.53.3a3.49,3.49,0,0,0-1.14.34,9.68,9.68,0,0,1,.41-1.06c.21-.4.5-.77.75-1.15s.58-1,.89-1.45A5.24,5.24,0,0,1,32.55,122Zm-7,1a1.93,1.93,0,0,1,.59-1.07c.14-.11.31-.16.45-.28s.34-.39.54-.56a3,3,0,0,1,2-.75,1.54,1.54,0,0,1,.89.15c.36.3.15.92,0,1.27a13.32,13.32,0,0,1-1.38,2.44c-.22.32-.32.67-.56,1a3.19,3.19,0,0,0-.53.91A7.24,7.24,0,0,0,27,127.4c-.06.26-.11.51-.16.77a10.38,10.38,0,0,1-.57-.95c-.16-.35-.29-.92-.45-1.37A5,5,0,0,1,25.57,123Zm-6.13,7.26a5.42,5.42,0,0,1-.45-1.34,2.47,2.47,0,0,1-.09-1.4c.29-.9,1.34-1.06,2.16-1.12a4.43,4.43,0,0,1,1.54.08c.42.15.81.38,1.24.52a3.4,3.4,0,0,1,2.4,2.14.34.34,0,0,0,.34.24,3.5,3.5,0,0,1-.44,1.37c-.12.14-.06.25.07.33a1.53,1.53,0,0,0,0,.3c-.65,0-1.3-.11-1.94-.2l-.13,0c-.33-.05-.67-.09-1-.16a13.71,13.71,0,0,0-1.57-.18C20.76,130.84,19.93,131.18,19.44,130.28Zm.36,6.12c-.43-.15-.87-.21-1.05-.66a3.11,3.11,0,0,1,.16-2.3A2.62,2.62,0,0,1,21,132a10.69,10.69,0,0,1,1.49-.21,4.46,4.46,0,0,1,.51-.07,25.29,25.29,0,0,0,3.59.41,1.35,1.35,0,0,0,.35.28,2.1,2.1,0,0,0,.26.13,2.42,2.42,0,0,0-.36.27c-.5.38-1,.8-1.46,1.21s-1,.91-1.57,1.31a6.53,6.53,0,0,1-.7.35,3.18,3.18,0,0,0-1.15.64l-.43.11A3.75,3.75,0,0,1,19.8,136.4ZM23,139.82c-.42,0-1,0-1.19-.53a2.48,2.48,0,0,1,.58-2.41,7.54,7.54,0,0,0,2-1.1l0,0c.4-.25.79-.53,1.17-.81.56-.4,1.1-.8,1.63-1.24a3.49,3.49,0,0,0-.57,1.31,20.67,20.67,0,0,1,0,2.61c-.11.33-.22.65-.32,1a2.46,2.46,0,0,1-1.9,1.06c-.45.08-1,.11-1.42.15Zm6.6,1.29c-.87.25-2.6.57-2.79-.74a2.87,2.87,0,0,1,.1-1.2,3,3,0,0,0,.74-1.85c0-.22,0-.44,0-.66.07-.37.13-.73.23-1.09.25-.63.53-1.26.75-1.91a3.44,3.44,0,0,0,.23-.85.88.88,0,0,0,.16,0,2.33,2.33,0,0,0,.68-.61l0-.08c0,.82-.17,1.68-.23,2.5a3.71,3.71,0,0,0,.11,1.52l0,.09a7.72,7.72,0,0,0,.23,1.59A2.75,2.75,0,0,0,31,139.71a2,2,0,0,1-.18.76,2,2,0,0,1-1.21.64Zm4.88-4.49a3.13,3.13,0,0,1,.36,1.47c0,.35.19,1.45-.16,1.65a3.13,3.13,0,0,1-1.22,0,3.74,3.74,0,0,1-1.47-.29h0a2.74,2.74,0,0,0-.24-1.06c-.33-1-1.23-1.92-1.24-3,0-.93.14-1.87.23-2.8.21.33.43.66.66,1a5.12,5.12,0,0,0,1.48,1.26,9.68,9.68,0,0,1,1.63,1.81ZM36,134.53c-.23.28-.81.2-1.12.17a4.27,4.27,0,0,1-1.44-.38l-.18-.09c-.17-.15-.33-.31-.51-.45a9.87,9.87,0,0,1-1.52-2,10.47,10.47,0,0,1-.55-.91,3.6,3.6,0,0,0,.52.26,4.64,4.64,0,0,0,2.22.21l.31.07a3.35,3.35,0,0,1,1.84.86c.42.44.9,1.71.43,2.26Zm1.13-5.19a2.1,2.1,0,0,1-1.18.56,14.32,14.32,0,0,1-3.36.68l-.52-.19a10,10,0,0,0-1.64-.81,2,2,0,0,0-1.36-.57c-.4,0-.8,0-1.2,0l.18-.09c.12-.07.15-.15.13-.23l.08-.1a3,3,0,0,1,.35-.36,3,3,0,0,1,1.36-.44,9,9,0,0,0,2.75-.73,6.89,6.89,0,0,0,.87-.75c1.09-.35,2-.77,3.16-.23a2,2,0,0,1,1,2,2.16,2.16,0,0,1-.62,1.25Z" transform="translate(-17.73 -1.9)"/><path class="cls-2" d="M27.61,132.07" transform="translate(-17.73 -1.9)"/><path class="cls-2" d="M30.38,144a.49.49,0,0,0-.54.1,8.05,8.05,0,0,0-1.48,2.38,7.49,7.49,0,0,0-.56,1.22,2.84,2.84,0,0,0-.06-.31,12.64,12.64,0,0,1-.48-1.73,16.33,16.33,0,0,0-.39-3.27c-.09-.3-.71-.31-.8,0a6.8,6.8,0,0,0,.13,3.17,8.39,8.39,0,0,0,.53,1.63,7.86,7.86,0,0,1,.31,1.44,6,6,0,0,0,.19.73,6.61,6.61,0,0,1,0,.89c.05.54.08,1.09.14,1.63a13.54,13.54,0,0,0,.31,1.54c.13.61.2,1.22.29,1.83.17,1.15.4,2.28.54,3.43a13.14,13.14,0,0,0,.12,1.54A13,13,0,0,1,28.9,162c.14,2.16.59,4.29.64,6.45,0,.33.67.33.68,0,.07-2.16-.18-4.29-.25-6.45a12.86,12.86,0,0,0-.21-1.75c-.07-.59,0-1-.1-1.54a30.57,30.57,0,0,0-.57-3.29c-.11-.54-.19-1.09-.32-1.62s-.33-1.25-.45-1.89c0-.87-.13-1.73-.24-2.59a.28.28,0,0,0,.08-.15,8,8,0,0,1,1-2.51,10.89,10.89,0,0,1,1.36-2.24C30.65,144.28,30.52,144.11,30.38,144Z" transform="translate(-17.73 -1.9)"/><path class="cls-2" d="M34,147.22a.78.78,0,0,0,0-.22.31.31,0,0,0-.15-.26.56.56,0,0,0-.37-.11c-.22,0-.51.11-.52.37h0v.09a.75.75,0,0,1-.05.16l0,0a.27.27,0,0,0-.07.08,1.28,1.28,0,0,0-.1.47,1.35,1.35,0,0,0,0,.49c0,.13.21.21.33.23a.57.57,0,0,0,.46-.08.75.75,0,0,0,.28-.51h0a.35.35,0,0,0,.14,0,.4.4,0,0,0,.13-.13.2.2,0,0,0,0-.21,1.34,1.34,0,0,1-.07-.18Z" transform="translate(-17.73 -1.9)"/><path class="cls-2" d="M35.6,148.32l0,0h0Z" transform="translate(-17.73 -1.9)"/><path class="cls-2" d="M36.33,147.53a.65.65,0,0,0-.47.09.78.78,0,0,0-.2.24.67.67,0,0,0,0,.2v.18l0,0,0,0h0v0h0l0,0-.06.08a.28.28,0,0,0,0,.18h0v0a.34.34,0,0,0,.2.19H36a.56.56,0,0,0,.28-.1l.12-.11.08-.13v-.06a1.21,1.21,0,0,1,0-.19.4.4,0,0,0,.17-.17.29.29,0,0,0,0-.13.38.38,0,0,0,0-.15.26.26,0,0,0-.12-.15A.78.78,0,0,0,36.33,147.53Zm.2.58s0,0,0,0v0Z" transform="translate(-17.73 -1.9)"/><path class="cls-2" d="M38.3,147.27v0a.37.37,0,0,0-.17-.13h-.37a.44.44,0,0,0-.16.06.29.29,0,0,0-.12.1.28.28,0,0,0-.07.17v.27a.43.43,0,0,0,0,.16.26.26,0,0,0,.07.11l.12.08a.43.43,0,0,0,.16,0,.49.49,0,0,0,.17,0H38l0,0h.24a.26.26,0,0,0,.11-.14.43.43,0,0,0,0-.16v-.27a.36.36,0,0,0-.07-.17Z" transform="translate(-17.73 -1.9)"/><path class="cls-2" d="M42.38,146.67l.16,0c.24-.12.36-.33.21-.57a1.61,1.61,0,0,1-.42-1h0a.67.67,0,0,0-.54-.38.56.56,0,0,0-.55.38h0a1,1,0,0,0,0,.24v.58a3.41,3.41,0,0,0,.23.83c.2.51.44,1,.64,1.49.12.3.81.22.69-.14h.07C42.69,147.6,42.51,147.11,42.38,146.67Z" transform="translate(-17.73 -1.9)"/><path class="cls-2" d="M45.14,145.7a.27.27,0,0,0-.06-.17.32.32,0,0,0-.13-.1.65.65,0,0,0-.87.27.79.79,0,0,0,0,.3,1,1,0,0,0,0,.25v.2a.55.55,0,0,0,.17.2.27.27,0,0,0,.14.07h0s0,.05,0,.06l-.07-.06.07.07h.08a.61.61,0,0,0,.27,0,.66.66,0,0,0,.2-.06.16.16,0,0,0,.08-.06.18.18,0,0,0,.07-.1v.07l.06-.08h0v.07a.28.28,0,0,0,.07-.23V146a2.13,2.13,0,0,0-.1-.42Z" transform="translate(-17.73 -1.9)"/><path class="cls-2" d="M47.11,145.82h0l-.08-.09v-.36a.35.35,0,0,0-.14-.25.62.62,0,0,0-.35-.1.59.59,0,0,0-.34.1l-.08.07a.28.28,0,0,0-.06.18.09.09,0,0,1,0,0h0v.39l0,0a.44.44,0,0,0,.08.5.61.61,0,0,0,.16.12.76.76,0,0,0,.3,0,.6.6,0,0,0,.19-.06l.06,0a.6.6,0,0,0,.34-.11.28.28,0,0,0,.11-.38.29.29,0,0,0-.11-.11Z" transform="translate(-17.73 -1.9)"/><path class="cls-2" d="M53.33,145.23A.73.73,0,0,0,53,145a.65.65,0,0,0-.84-.26,1.13,1.13,0,0,0-.37.28,1.17,1.17,0,0,0-.17.28l0,.05a2.4,2.4,0,0,1-.18-.26v-.17H51.3l0-.08a.5.5,0,0,0-.53-.25c-.17,0-.44.13-.42.34a4.34,4.34,0,0,0,.06.88l.08,0v0a.48.48,0,0,0,.5.24l0,0a1.31,1.31,0,0,0,.76.28.92.92,0,0,0,.8-.42l0,0a1.06,1.06,0,0,0,.49-.08.37.37,0,0,0,.27-.45l0-.07Zm-1.88.24C51.39,145.46,51.57,145.39,51.45,145.47Zm1.36,0Z" transform="translate(-17.73 -1.9)"/><path class="cls-2" d="M56.09,145.62l0,0,0,0h0l.08.08-.09-.09a1.39,1.39,0,0,0-.27-.21.89.89,0,0,0-.36-.07v-.08c0-.17-.23-.31-.42-.3s-.4.09-.41.3l.07-.07a1.14,1.14,0,0,1-.06.45.7.7,0,0,0,.15.57.59.59,0,0,0,.3.16.81.81,0,0,0,.38,0,.85.85,0,0,0,.25-.17.73.73,0,0,0,.36,0,.39.39,0,0,0,.21-.17.33.33,0,0,0,0-.24.4.4,0,0,0-.18-.16Zm-.93.34h.06l-.08-.08a.67.67,0,0,0,.15.14h0Z" transform="translate(-17.73 -1.9)"/><polygon class="cls-2" points="38.36 143.72 38.31 143.68 38.34 143.72 38.35 143.72 38.36 143.72"/><path class="cls-2" d="M56,145.57s0,0,.05.05h0Z" transform="translate(-17.73 -1.9)"/><path class="cls-2" d="M59.11,145.94H59a.11.11,0,0,0,0-.08.27.27,0,0,0-.1-.11l-.09-.06a.3.3,0,0,0-.08-.08.49.49,0,0,0-.23-.08.39.39,0,0,0-.26,0h-.08a.35.35,0,0,0-.11.13l.06.18s0,0,0,0a0,0,0,0,0,0,0h0a1.08,1.08,0,0,1-.08.19h0V146a1.28,1.28,0,0,0-.11.2.43.43,0,0,0,0,.16v.12a.2.2,0,0,0,.09.11.3.3,0,0,0,.13.09h.35a.36.36,0,0,0,.18-.07h.24a.66.66,0,0,0,.2-.06.42.42,0,0,0,.14-.09.27.27,0,0,0,.09-.12v-.1a.19.19,0,0,0-.06-.21A.42.42,0,0,0,59.11,145.94ZM59,146v0l0,0Z" transform="translate(-17.73 -1.9)"/><path class="cls-2" d="M61.41,145.31a.57.57,0,0,0-.18-.12.55.55,0,0,0-.31,0,.62.62,0,0,0-.23.07.33.33,0,0,0-.17.18,1.22,1.22,0,0,0,0,.27s0,0,0,.06a1.18,1.18,0,0,0,.22.65v-.07a.26.26,0,0,0,.11.14.51.51,0,0,0,.26.09h.23a.42.42,0,0,0,.21-.13,1.06,1.06,0,0,0,.09-.25l0,0a.2.2,0,0,0,0-.11l0,0,0,0a.21.21,0,0,0,0-.15h0v0a.29.29,0,0,0,0-.09l0,0,.05.08v-.09a1.22,1.22,0,0,1,0-.27l-.13,0A.82.82,0,0,0,61.41,145.31Z" transform="translate(-17.73 -1.9)"/><path class="cls-2" d="M64.14,146.3a.51.51,0,0,0,.3-.17,1.5,1.5,0,0,0,.23-.33,1.09,1.09,0,0,0,.07-.24.39.39,0,0,0-.25-.39h-.13s0,0,0-.06A.55.55,0,0,0,64,145c-.18,0-.4.1-.42.3v.58a.32.32,0,0,0,0,.27.55.55,0,0,0,.24.15A.62.62,0,0,0,64.14,146.3Zm-.2-1,0,0s0,0,0,0Z" transform="translate(-17.73 -1.9)"/><path class="cls-2" d="M67.8,148.63l.14,0a9.78,9.78,0,0,0,.62-3.67c0-.64-.13-1.27-.12-1.91,0-.46.1-1-.47-1.16a.75.75,0,0,0-.62,0c-.13.08-.29.26-.2.43v.08h0a.68.68,0,0,1,0,.4,4,4,0,0,0,0,.69,15.45,15.45,0,0,1,.14,1.67,11.68,11.68,0,0,1-.26,3.28C66.91,148.89,67.66,149,67.8,148.63Z" transform="translate(-17.73 -1.9)"/><path class="cls-2" d="M70.07,147.09l.1.16,0-.12a1,1,0,0,0,.71.06,1.28,1.28,0,0,0,.45-.23.54.54,0,0,0,.37.09,2,2,0,0,0,.75-.19l.23-.1a1.06,1.06,0,0,0,.25-.09.32.32,0,0,0,.23-.39.33.33,0,0,0-.23-.23,1.32,1.32,0,0,0-.92,0,1.72,1.72,0,0,0-.27-.27.89.89,0,0,0-1.17.3l0,0,0-.07a.61.61,0,0,0-.69-.13.88.88,0,0,0-.47.56,2.72,2.72,0,0,0-.08.63c0,.2.24.29.4.29A.36.36,0,0,0,70.07,147.09Zm.33-.79h0Z" transform="translate(-17.73 -1.9)"/><path class="cls-2" d="M96.77,143.25a1.12,1.12,0,0,0-.1-.6.53.53,0,0,0-.75,0h0c-.15.15-.11.4-.1.6s0,.34,0,.51a2.05,2.05,0,0,0,.1.48,2.8,2.8,0,0,1,.13.41c0,.16.28.21.41.2s.34-.1.32-.27h.06a7.93,7.93,0,0,1-.07-.84Z" transform="translate(-17.73 -1.9)"/><path class="cls-2" d="M100.39,144l-.17,0v0a.31.31,0,0,0,0-.23.49.49,0,0,0-.2-.18,1.09,1.09,0,0,0-.26-.05.76.76,0,0,0-.35.11,1.1,1.1,0,0,0-.23.2,1.51,1.51,0,0,0-.18.26.71.71,0,0,0-.06.57l.06.1a.27.27,0,0,0,.12.09.4.4,0,0,0,.26.16.41.41,0,0,0,.34-.06h.11a2.36,2.36,0,0,0,.38-.1.93.93,0,0,0,.6-.46v-.09a.33.33,0,0,0,0-.14.38.38,0,0,0-.19-.16A.69.69,0,0,0,100.39,144Z" transform="translate(-17.73 -1.9)"/><path class="cls-2" d="M102.44,143.15a.64.64,0,0,0-.33-.1.67.67,0,0,0-.34.1.28.28,0,0,0-.11.38s0,0,0,0l.06.08v-.08a.92.92,0,0,1,.1.32v.83c0,.31.77.39.81,0h0C102.66,144.21,103,143.53,102.44,143.15Z" transform="translate(-17.73 -1.9)"/><path class="cls-2" d="M26.58,71.44c0,.25-.5.6-.67.79a1.39,1.39,0,0,0-.41,1.16c.11.64,1.08.37,1-.26l0,0,.15-.2.42-.44a1.68,1.68,0,0,0,.54-1,.5.5,0,0,0-.52-.48A.5.5,0,0,0,26.58,71.44Z" transform="translate(-17.73 -1.9)"/><path class="cls-2" d="M29.43,80.31l-.53,0c-.2.09-.27,0-.42.22s-.07.34-.12.55a3.28,3.28,0,0,0,.73,3.39c.91.8,1.93-.53,2.14-1.37a3,3,0,0,0,0-1.47C30.94,80.82,29.88,80.81,29.43,80.31Z" transform="translate(-17.73 -1.9)"/><path class="cls-2" d="M57.88,94.76h0c0-.05,0-.09,0-.13.08-.56-.85-.67-1-.13-.21.87-.86,1.45-1.11,2.28a.52.52,0,0,0,.35.63,7.62,7.62,0,0,1-1.29,1.89c-.46.45.25,1.15.71.7h0a8.68,8.68,0,0,0,2.33-5.15A.32.32,0,0,1,57.88,94.76Z" transform="translate(-17.73 -1.9)"/><path class="cls-2" d="M60.49,106a.48.48,0,0,0,0-.64l0,0a.5.5,0,0,0-.7,0l0,.13a1.18,1.18,0,0,0-.26.43.5.5,0,0,0-.24.55.52.52,0,0,0,.33.33.61.61,0,0,0,.19.17.74.74,0,0,0,.76-.06.51.51,0,0,0,.18-.68A1,1,0,0,0,60.49,106Z" transform="translate(-17.73 -1.9)"/><path class="cls-2" d="M61.79,110.64h-.06a.52.52,0,0,0-.5.5.43.43,0,0,0,.12.31.75.75,0,0,0-.08.53.48.48,0,0,0,.35.35.83.83,0,0,0,.74-.19.56.56,0,0,0,0-.08.37.37,0,0,0,.18-.43.43.43,0,0,0,0-.11.85.85,0,0,0-.82-.88Zm-.12,1Zm.49.55h0A0,0,0,0,0,62.16,112.18Z" transform="translate(-17.73 -1.9)"/><path class="cls-2" d="M66.46,115.36a5.82,5.82,0,0,0-.53-.46.55.55,0,0,0-.37-.18,1,1,0,0,0-.33-.06h0a.52.52,0,0,0-.5.5.33.33,0,0,0,0,.17.83.83,0,0,0-.06.21.7.7,0,0,0,.65.75h0a.68.68,0,0,0,.39-.11l.06.06a.5.5,0,1,0,.71-.69h0Zm-1.32.29h0Z" transform="translate(-17.73 -1.9)"/><polygon class="cls-2" points="51.85 114.22 51.84 114.22 51.84 114.22 51.85 114.22"/><path class="cls-2" d="M69.64,116.15l-.07,0h0a.55.55,0,0,0-.31,0l-.06,0a.86.86,0,0,0-.16,0,.67.67,0,0,0-.53.77v0a.69.69,0,0,0,.8.55l.12,0a.8.8,0,0,0,.43-.52.47.47,0,0,0,.12-.31A.51.51,0,0,0,69.64,116.15Z" transform="translate(-17.73 -1.9)"/><path class="cls-2" d="M24.2,55.66v-.08c.22-9.57-.39-18.8,1.73-28.25C26.76,23.55,28.13,20,29,16.22c.84-3.51,2.54-7.92,2.46-11.56,0-.63-1.31-.63-1.31,0,0,3.95-1.4,9.25-2.39,13-1.05,4-2.33,7.9-3,12-1.54,8.76-1.14,17.13-1.16,26C23.6,56,24.2,56,24.2,55.66Z" transform="translate(-17.73 -1.9)"/></svg>