<svg id="Layer_1" data-name="Layer 1" xmlns="http://www.w3.org/2000/svg" viewBox="0 0 144.72 168.86"><defs><style>.cls-1{fill:none;stroke:#668632;stroke-miterlimit:10;}.cls-2{fill:#668632;}</style></defs><path class="cls-1" d="M13.19,160.46c0-.73-.3-1.89.39-2.31a3.34,3.34,0,0,1,1.19-.39c.42-.06,1,.14,1.35,0,1.71-.52.66-3.7.66-4.9V143c0-1.08.23-1.79.23-2.74a53.62,53.62,0,0,0,0-5.67,18.79,18.79,0,0,0-.64-2.64,2,2,0,0,0-.6-1.24,8.19,8.19,0,0,1-1.24-1.45c-.52-.77-1.26-1.69-.87-2.7.1-.25.38-.43.51-.68s.13-.47.38-.68a3.82,3.82,0,0,1,1.87-.68,20,20,0,0,0,2.55-.44c1-.16,2-.22,3-.44a10.24,10.24,0,0,1,5.78-.07c.5.19.8.58,1-.09a8.05,8.05,0,0,0,0-1.7,5.11,5.11,0,0,1,.78-3.2c.6-.75,1.26-1.82,2.19-2.14s2.24-.53,2.6-1.78c.16-.57-.1-.92.49-1.31.35-.24.84-.18,1.14-.47s.21-.87.21-1.27v-5.25c0-1.28-.38-2.5-.46-3.76-.06-1-.21-2-.21-3v-6c0-1.16.22-2.15.22-3.3a13.88,13.88,0,0,0-.24-1.8,4.7,4.7,0,0,0,0-.75c0-.26-.19-.5-.22-.77-.12-1.24-.21-2.45-.21-3.71V79.55A21,21,0,0,0,35,76a9.67,9.67,0,0,1-.17-1.62c0-1.07-.67-.73-1.53-.83-1.13-.15-2.1-.55-3,.48s-1.18,2-2.63,2.21c-1,.16-1-1.74-1.81-2.47s-1.8-.19-1.57-1.14a4.51,4.51,0,0,1,.61-1.53c.14-.16.37-.18.47-.31.35-.4.21-.75.06-1.21.34-.46,1.3-.34,1.79-.32s.6.2,1,.51c.91.63,2.15.39,3.2.39.59,0,2.47.3,2.84-.19.23-.32,0-1.38,0-1.78,0-.79.38-1,1.11-1h2.26c.64,0,1.13-.2,1.74-.23a1.86,1.86,0,0,1,1.64.45,1.47,1.47,0,0,1,.44,1.36,3.75,3.75,0,0,1,0,.67c0,.26-.27.46-.26.73,0,.7.94.52,1.22,1.1s-.35,1.64-.34,2.31.72,1.38.72,2c0,2.09-.57,4.12-.56,6.2s.79,4.34.78,6.51V90.1c0,.6-.21,1-.25,1.57a23.07,23.07,0,0,1,0,2.63,24.48,24.48,0,0,0-.41,3.18c0,1.11-.22,2.18-.21,3.29,0,1.7-.23,3.33-.23,5v2.65c0,.76.86.75.71,1.48s-.76,1.81-.43,2.42.59,1.55,1.28,2c.33.21.57.12.91.24a2.48,2.48,0,0,1,.91.82A3,3,0,0,0,47,116.5a6.56,6.56,0,0,1,2.16.72,3.63,3.63,0,0,1,1.1,1.58,11.13,11.13,0,0,1,.8,2c.2.71.19,1.51.37,2.21a1.88,1.88,0,0,0,1.31,1.4c.56.08,1.17-.07,1.74,0s1.19.34,1.79.44a12.74,12.74,0,0,0,2.14,0h3.87c.88,0,1.1.36,1.75.88a12,12,0,0,0,1.73,1,1.59,1.59,0,0,1,1,1.52,3.09,3.09,0,0,1-.26,1.87c-.38.52-1,.31-1.33.88a4.3,4.3,0,0,0-.21,2.16v4.48c0,1.48.23,2.85.23,4.32v5c0,1.41.22,2.73.22,4.14a7.56,7.56,0,0,1-.17,1.84,5.87,5.87,0,0,0,0,2.21,7.78,7.78,0,0,0,.68,1.39c.34.68.28.84-.29,1.6-.32.43-.08,1.52-.59,1.69a7.28,7.28,0,0,1-1.14.08,8.37,8.37,0,0,1-1,.18,15,15,0,0,0-2.22.17,6.17,6.17,0,0,1-.86,0c-.59,0-1.08.41-1.66.49a10.65,10.65,0,0,0-1.13,0,4.48,4.48,0,0,1-1.21.17h-2.2c-.83,0-1.59-.23-2.41-.22s-1.68,0-2.53,0H47.42c-.41,0-.87-.19-1.34-.24-.76-.08-1.63,0-2.4,0a9.71,9.71,0,0,0-1.7.18,14,14,0,0,1-2.42,0H36c-2.31,0-4.38-.08-6.7-.08a17.6,17.6,0,0,1-2.5-.31,11.65,11.65,0,0,0-2.21,0H21c-.86,0-.75.73-1.6.66a4.55,4.55,0,0,1-1.14-.29,4.24,4.24,0,0,0-1.46-.17H14.77c-.57,0-1.84.32-2-.45" transform="translate(-1.53 -0.61)"/><path class="cls-2" d="M56.44,55.56c5.2,1.33,6.7-5.48,5.8-9.23-.5-2-1.24-2.68-3-3.17-1.21-.32-1.76.48-3-.27-.82-.48-1.93-2.58-2.78-3.2-3.57-2.58-10.49-3.28-13,1.3-.82,1.52-.73,3.49-1.55,5.07-1.19,2.29-2.63,2.5-4.63,3.85-1.71,1.17-2.91,2.47-2.18,4.64,0,.15.25.21.39.21,2.78.07,3.13,4.38,3.46,6.39a.34.34,0,0,0,.3.28c2,.23,2.12-.19,2.74-1.83.39-1.05-.72-1.64.65-2.37s1.45.49,2.09,1.51c.91,1.44,1.57,3.29,3,4.33a8.31,8.31,0,0,0,6.62.86C55.11,62.84,56,59.38,57,56.1c.13-.44-.74-.56-.85-.17-1.07,3.62-2.16,7.91-7.72,7.52-4.29-.31-4.36-2.74-6.24-5.46-.55-.8-1.66-2.74-2.94-2.53-2.06.34-.25,6-2.74,4-1-.78-.41-3.44-1.35-4.47.74.82-1.67-1.63-1.42-.79-1-3.13,4.65-5,6-8,1.07-2.39,1.19-5.75,3.67-7.13,3.41-1.91,8.16-.39,10.62,2.23,3,3.18.83,2.11,3.31,3,1.8.68-1-3.46,3.29.41,1.22,1.12.91,2.82,1,4.22.09,2.64-.88,7-4.91,6.13-.36-.07-.59.35-.18.45Z" transform="translate(-1.53 -0.61)"/><path class="cls-2" d="M119,120.43c-.08-.06,1-.55.11-.35a3.55,3.55,0,0,0-1.16,1,14.44,14.44,0,0,0-3.45,7.27A22.08,22.08,0,0,0,115,136c.55,2.81.13,5.3-.18,8.07-.26,2.27.44,3.77.55,6a6.93,6.93,0,0,1-2.27,5.41c-1.27,1-3.35,1.15-5.36,1.11-3.49-.08-7-.37-10.49-.6-1.14-.08-6.34.08-6.82-.88-.8-1.56.54-1,1.17-1.38,2.11-1.37,6-2.47,8.33-3.46,2.93-1.22,2.55-.81,3.16-3.94.76-3.89,1.92-7.32,2.11-11.28.23-4.81.9-9.47,1.32-14.25.31-3.55.07-7,.52-10.5a29.32,29.32,0,0,1,3.66-10.9,10.36,10.36,0,0,0,1-2.32c.29-1.28.5-.68-.37,0-1.68,1.28-2.45,3-4.73,3.73-7.39,2.52-9.72-2.71-12.72-8.08-1.3-2.32-2.3-5-3.72-7.17-1.87-2.92-5.64-6-1.92-9.46,5.09-4.8,8,4.07,9.94,7.06,1.3,2,1.93,5,3.4,6.72,1.19,1.41,1.73,1.51,2.43-.22s-.2-4.67-.44-6.4c-.37-2.73-.68-5.25.64-7.84a27.88,27.88,0,0,0,1.74-3c1.3-3.49-.55-5.53-3.87-6.19-2.62-.51-6,.18-8.76.27-4.19.15-9,.34-10.54-4.64-.51-1.62-1.13-3.68-1.61-5-.13-.37-.35.49-.55-.49-.16-.75.15-.71.13-1.49a13.57,13.57,0,0,0,0-3.66c-.33-1.55-1.24-2.74-1.76-4.24-1.33-3.8-.34-4.54,1.19-7.41a54.24,54.24,0,0,1,5.51-9c4-5,11.47-6.4,17.41-7.07,4.76-.52,9.07.51,13.73.79,1.86.12,5.46-1.55,5.84,1.05.32,2.22-2.32,4.57-2,7,.27,2,1.67,3.7,2.23,5.59a17.29,17.29,0,0,1,.12,9.67c-1.48,4.84-4.45,7.27-8,10.56-1.74,1.63-3.19,4.23-2.84,6.74.56,4,5.74,4.27,6.63,8.31.09.39,1,.39,1,0s2-6.87,3.78-3.47c.1.2-.63,3.86-.59,4.48,0,.45.64.43.93.27,2.23-1.24,3.15-1.8,4.42-4.08.31-.57,2.13-5.51,3.4-2.86,1,2.2-3.08,5.18-4.3,6.54-3.32,3.71,1,10.64,3,14.2,4,7,5,12,2,19.64-2.43,6-2.38,9.85.18,15.76a35.68,35.68,0,0,0,4.3,7.27c2.25,3,2.35,6.35,3,10,.44,2.38,1.32,3.28,2.66,5.27-.14-.2,1.67,1.61,1.37,1,.89,1.91-1.07,3.73-2.55,4.94a21.39,21.39,0,0,1-7.24,3.76c-1.47.34-5.45.51-6.59-.21s-.37.3.49-.75c.57-.71,1.28-1.31,1.84-2a32.5,32.5,0,0,0,3.73-5c.84-1.74.24-2.54-.79-4.56a58.19,58.19,0,0,0-4.49-7.86c-1.92-2.7-1.84-6.43-4.32-8.67a12.15,12.15,0,0,1-4.23-6.53c-.13-.49-1.22-.35-1.06.21a15.26,15.26,0,0,0,3.21,6.4c.84.94,2.36,1.87,3,3.3.43,1,.46,2.08.85,3.06.67,1.66,1.89,2.82,2.89,4.26a34,34,0,0,1,2.48,5.12c1.72,3.67,2,2.82.15,5.84-1.69,2.77-3.11,5.09-5.89,7a.34.34,0,0,0-.1.47.32.32,0,0,0,.1.1c1.67,1.2,7.09,1.15,9,.72,4.33-1,11.13-4.75,11.8-9.62a.4.4,0,0,0-.16-.28c-1.24-.95-2.65-1.27-3.66-2.59-1.67-2.2-1.61-5.1-2.07-7.75-.71-4.08-2.73-6.14-4.85-9.72a40.6,40.6,0,0,1-3.28-7c-1-2.71-.66-3.86,0-6.53,1-4.2,3.35-8.31,3.39-12.62a20.31,20.31,0,0,0-2.11-9.74c-1.9-3.73-6.74-9.45-5.95-14,.5-2.9,7.11-6.87,5.28-10.33-.69-1.32-1.73-1.45-2.93-.71s-5.39,9-5.8,7.28,2.17-6.2-1.8-5.92a3.05,3.05,0,0,0-1.41.74,4.18,4.18,0,0,0-1.29,2.08c-1.2,2.89-.84,1.49.09,1.92-.53-.24-2-2.64-2.46-3.08-2.48-2.23-4.54-1.65-3.62-6.42C114,60.33,115.4,59,117,57.71c3.68-3,6.07-5.92,7.33-10.66a17.43,17.43,0,0,0,0-7.74c-.61-3.15-3-6-2.24-9.32.32-1.47,2.9-5.14,1.77-6.66s-7.2-.07-8.18-.18c-9.42-1.08-23.06-2-30.23,6a40.18,40.18,0,0,0-7.68,12.33,6.74,6.74,0,0,0,.09,5.74c1.46,3.8,1.93,5.51,1.13,9.45a.46.46,0,0,0,.27.48c3.43,1.88,1.74,7.73,5.6,9.82,3.3,1.79,7.7.31,11.22.48,2.36.11,5.94-.78,7.79.63,2.36,1.79.68,4.24-.47,6.44A12.77,12.77,0,0,0,102,81.2c.18,2.28,1.73,5.74.9,8-.23.63.78,1.18-.29,0a7.22,7.22,0,0,1-.9-2,23,23,0,0,0-1.31-3.27,76.65,76.65,0,0,0-4.58-7.5c-1.69-2.22-4.37-4.54-7-2.62-2.88,2.1-4,5.37-2.62,8.55.86,2,2.51,3,3.57,4.89,1.88,3.29,3.16,7,5.22,10.19,1.92,3,5.39,5.47,9.13,5.08,4.19-.45,9.07-4.27,9.22-8.58,0-.44-.8-.51-1-.2-2.87,4.59-5.31,9.47-6.2,14.81a29.56,29.56,0,0,0-.43,9c.29,3.75-1.08,7.56-1.35,11.29-.47,6.63.48,16.54-5.61,20.65a24.41,24.41,0,0,1-2.81,1.7c-1.9,1-4.9.92-6.61,1.89-.94.54-1.2.27-1.49,1.35a.32.32,0,0,0,0,.3c3.1,2.9,10.65,2.05,14.56,2.29,3,.19,8.57,1.47,11.37-.42a8.47,8.47,0,0,0,2.44-3,13,13,0,0,0,.3-3.63c-.09-2.75-.53-4.65-.15-7.56.45-3.51-.27-6.17-.56-9.56-.13-1.53.83-12.7,3.88-11.9.39.11,1-.32.55-.68l-.54-.42c-.4-.31-1.31.12-.78.56Z" transform="translate(-1.53 -0.61)"/><path class="cls-2" d="M112.62,96.06A30.12,30.12,0,0,0,114,88.83c.22-2.5.76-4.69.33-7.19-.08-.48-1.08-.47-1,0,.7,4.47-.43,9.92-1.34,14.3-.07.33.54.41.63.12Z" transform="translate(-1.53 -0.61)"/><path class="cls-2" d="M84.12,49.21c-.34.1-.45-.34-.74,0a4.94,4.94,0,0,0-.19.49,1.64,1.64,0,0,0-.15.68c0,.94,0,2.54,1.14,2.81a.87.87,0,0,0,1-.57c.29-.54.06-.95-.13-1.47-.25-.74-.66-2-1.58-2.12" transform="translate(-1.53 -0.61)"/><path class="cls-2" d="M85.51,41a5.18,5.18,0,0,0,.78-.09h.29c0,.49.92.46,1,0s-.61-.72-1-.69a3.59,3.59,0,0,0-1.2.3c-.38.16-.11.5.19.51Z" transform="translate(-1.53 -0.61)"/><path class="cls-2" d="M82.82,33.8c3.37-2.19,4,.92,6.83,2.07.33.14.61-.09.93,0a1.45,1.45,0,0,0,.58-.1q3.28-1,3.28,1.56c1.78,2.11,5.41,9.39,3.08,11.94-.43.48.65.8,1,.42.83-.9,6.11-7.67,6.13-7.63.27.63-2.55,4.45-3.36,5.33-.44.48.65.78,1,.42,2-2,3.37-4,3.68-6.75h-1.18c.09,3.56-.81,5.64-2.06,8.89-.42,1.1-3.11,9.5-4.34,5.7-.17-.52-1.31-.37-1.16.23.35,1.38,1.29,2.58,2.87,1.89,1-.43,1.85-2.37,2.18-3.23.16-.41.43-3.43,1.14-3.61,1.25-.33,1,2.22,1.07,2.49,1.33,2.86,4.36,6.76,8,7.16.64.08,1.09-.74.31-.82-2.44-.27-4.28-3.32-5.54-4.94-.47-.6-.81-.3-1.21-1.14s.07-1.79-.37-2.41a4.39,4.39,0,0,0-2.24-1.34.76.76,0,0,0-.8.15c-.67.66-.56,1.06-.86,2,0,0-2.57,6.74-3.31,3.59l-1.2.26c.72,2.31,1.72,2.68,3.61,1s2.28-5,3.32-7.36A16.2,16.2,0,0,0,106,41.14c0-.58-1.12-.56-1.18,0-.28,2.64-1.75,4.53-3.51,6.33l1,.42c1.62-1.75,3.68-4.35,3.81-6.77,0-.41-.61-.48-.88-.36-4.14,1.75-4.76,5.43-7.71,8.59l1,.42c2.68-2.9.92-4.8-.53-7.93-.77-1.65-1.66-3.18-2.36-4.78-.36-.83-.21-1.42-1-2s-1.24-.34-2.16-.47a12.2,12.2,0,0,1-4.14-1.17c-2.7-1.27-3.65-1.77-6,.11-.34.27.23.51.49.35Z" transform="translate(-1.53 -0.61)"/><path class="cls-2" d="M100.3,66.66c1.6-.71,3.23.15,4.66.82a11.44,11.44,0,0,1,2.67,1.26c.43.4.58,1,1.08,1.34.92.61,2.19.18,3.15.65.41.19,1.25-.26.7-.66-1-.7-2.34-.41-3.37-1.13A11.86,11.86,0,0,0,106,67.06c-1.92-.75-4.09-2.08-6.12-.78C99.56,66.49,100.07,66.77,100.3,66.66Z" transform="translate(-1.53 -0.61)"/><path class="cls-2" d="M103.05,88.32c2.2.85,4.19.51,6.41.8,1.74.23,3.48.13,4.68-1.28.37-.44-.53-.7-.83-.46-1.55,1.22-2.65.82-4.51.84s-3.39.36-5.39-.34C103.09,87.78,102.62,88.15,103.05,88.32Z" transform="translate(-1.53 -0.61)"/><path class="cls-2" d="M106.55,108.93c1.16,2.11-1.22,6.23,1,7.72a3.64,3.64,0,0,0,1.94.4c.26,0,.47-.2.72-.22a2.89,2.89,0,0,1,2-.22,2.15,2.15,0,0,1,2.66.89c6.14,1.27,10-.29,13.7-5.33.44-.6-.72-.86-1.09-.46-1.68,1.85-4.17,3.33-5.19,5.64a.34.34,0,0,0,.07.35c1.5,2,7.82.87,9.78.09a.41.41,0,0,0,.27-.52.44.44,0,0,0-.27-.28H132c-.6-.22-1.44.51-.65.8-1.41-.51-7.11.74-7.82-.4-.12-.19,4.51-4.63,5-5.18l-1.09-.46c-1.85,2.56-4.33,4.92-7.59,5.26-2.39.26-4.5-1.57-6.6-1.65-1.52,0-4.29,1.38-5.5.19-.22-.22.24-5.49-.64-6.76-.14-.21-.76-.1-.6.18Z" transform="translate(-1.53 -0.61)"/><path class="cls-2" d="M94,24.61c1.33-4.33,6-6.93,7-11.52a19.88,19.88,0,0,0-1-12.16c-.22-.52-1.34-.4-1.19.23,1.36,5.56,2.5,11.16-1.08,16.18-1.53,2.14-4.11,4.56-4.53,7.2-.06.37.73.4.82.08Z" transform="translate(-1.53 -0.61)"/><path class="cls-2" d="M102.08,21.87v.23c.06.24.54.25.66.06a23.31,23.31,0,0,0,3.5-10.93c.18-3,.75-6.8-1-9.39-.26-.4-1.19-.22-1.07.33a46.51,46.51,0,0,1,1.27,7.76,19.27,19.27,0,0,1-.75,5.85c-.33,1.15-2.53,4.69-2,5.93-.12-.27-.72-.21-.64.13Z" transform="translate(-1.53 -0.61)"/><path class="cls-2" d="M35.07,63.71l.07-.13c.18-.35-.59-.47-.75-.15-.92,1.8,1.14,2.36,2.54,2.34,1,0,4.17,1,5-.23s-.44-2.35-1.54-2.42-2.48-.21-3.68-.4A5.18,5.18,0,0,0,34.1,63c-.49.18,0,.63.4.5,1.12-.41,2.07-.05,3.17,0,.77.07,3.08,0,3.36.85.45,1.39-1.77,1-2.46.92s-4.18.15-3.43-1.68h-.7v.13c.09.26.54.21.64,0Z" transform="translate(-1.53 -0.61)"/><path class="cls-2" d="M3.21,145.11c-.15.33-.39,0-.08.13a.9.9,0,0,0,.22.06,5.37,5.37,0,0,1,.56.21,5.84,5.84,0,0,0,1.28.43c.81.15,2.42.73,3-.09s-.86-1.32-1.43-1.38a16.12,16.12,0,0,0-2.6,0,5.9,5.9,0,0,0-1.19.06H2.8v.4a.29.29,0,0,1,.13,0,3.11,3.11,0,0,0,.61,0c1.31,0,2.63-.37,4-.31.29,0,.19,0,.28.34a2.59,2.59,0,0,0,.09.4v0c0,.15.07.1.22-.17,0,0-2.11-.05-2.31,0a5.68,5.68,0,0,0-.93.19c-.35.09-.72,0-1.08.1-.18,0-.54.23-.72.19s0,.08-.06,0a.86.86,0,0,1,0-.39c0-.11.12-.69.09-.72l-.2.1c-.24.07-.27.11-.08.12a1.05,1.05,0,0,1,.41.17,6,6,0,0,0,1.4.6,7.19,7.19,0,0,0,2.36,0,7.75,7.75,0,0,0,1.26-.32,1.21,1.21,0,0,0,.32-.11l.25-.24c-.22-.1-.3-.05-.24.14l.49-.35c-.79.13-1.34.5-1.33,1.35,0,.59,1,.59,1.25.25a2,2,0,0,0,.4-.5.67.67,0,0,0,.09-.34v-.15l-.3.13c0,.08.64-.09.7-.12a.84.84,0,0,0,.44-.41,5.31,5.31,0,0,0,.09-1.69,19.51,19.51,0,0,1,.25-2c.08-.51.09-1.05.17-1.56,0-.25.11-.22.37-.31a7.31,7.31,0,0,1,.92-.22,19,19,0,0,1,2-.17c.71-.06,1.42-.13,2.13-.13s.83-1,0-1-1.49.09-2.24.15a12.57,12.57,0,0,0-2,.16c-.87.14-2.38.32-2.46,1.42-.08,1.29-.37,2.57-.41,3.87a3.76,3.76,0,0,1,0,1.06l.08.05H9l-.36.11a.82.82,0,0,0-.4.48v.38a1.4,1.4,0,0,1-.31.33l1.25.24c0-.34,0-.34.36-.39a.57.57,0,0,0,.48-.35A1.11,1.11,0,0,0,9.22,144a1.29,1.29,0,0,0-.44,0,2.88,2.88,0,0,0-1,.29,4.86,4.86,0,0,1-1.55.31,5,5,0,0,1-1.22,0,4,4,0,0,1-.78-.37,2.68,2.68,0,0,0-1.91-.4c-1.12.36-.93,2.4.06,2.8a1.75,1.75,0,0,0,1.06.07,8.21,8.21,0,0,1,1.21-.18c.43,0,.81-.22,1.23-.26a12.62,12.62,0,0,1,1.63.08c.57,0,1.6,0,1.78-.69a2,2,0,0,0-.58-1.75,3,3,0,0,0-2.07-.23c-.91.06-1.83.16-2.74.22a4.59,4.59,0,0,0-1.91.26.74.74,0,0,0-.41.95.72.72,0,0,0,.35.38,3,3,0,0,0,1.82.18c.46,0,.93-.06,1.4-.08s.69,0,1,0a5.26,5.26,0,0,0,.78.12c-.15,0,.18-.31.1-.37a1.71,1.71,0,0,0-.45-.09c-.47-.1-1-.11-1.42-.22a6,6,0,0,1-.71-.2,8.56,8.56,0,0,0-1-.24c-.38-.06-1.22,0-1.17.55,0,.39.69.4.84.08Z" transform="translate(-1.53 -0.61)"/><path class="cls-2" d="M52.44,39.34c-.59-.67-2-.51-2.79-.29a11.06,11.06,0,0,0-3.42,1.61,6.82,6.82,0,0,0-2.33,2.93,16.08,16.08,0,0,0-1.23,3.76,20,20,0,0,0-.43,4.22,11.38,11.38,0,0,0,1,4.14,11.16,11.16,0,0,0,2.3,3.14,13.23,13.23,0,0,0,1.38,1.22c.52.41.85,1,1.47,1.27a4.52,4.52,0,0,0,1.93.22,11.65,11.65,0,0,0,2.21-.06c.66-.14,2.09-.54,2.08-1.41,0-.45-.91-.45-.94,0s-.61.48-.84.57a3.21,3.21,0,0,1-1.29.27H50a1.86,1.86,0,0,1-1.66-.57c-.71-.79-1.59-1.4-2.32-2.17a9.75,9.75,0,0,1-1.83-2.61,11.16,11.16,0,0,1-1-3.5,13.3,13.3,0,0,1,.2-3.27c.09-.61.12-1.23.25-1.83a14.43,14.43,0,0,1,.51-1.53,11.1,11.1,0,0,1,1.35-3,7.35,7.35,0,0,1,2.95-2.19,8.49,8.49,0,0,1,1.62-.59c.42-.09,1.38-.28,1.72,0s.78,0,.54-.3Z" transform="translate(-1.53 -0.61)"/><path class="cls-2" d="M52.55,45.26a5.74,5.74,0,0,0-4.92,3.67,5,5,0,0,0-.43,3,7.88,7.88,0,0,0,.73,1.62,5.08,5.08,0,0,0,.83,1.4,4.36,4.36,0,0,0,5.3.74,1.71,1.71,0,0,0,.91-2c-.41-1.13-1.26-2-1.42-3.26-.11-.79-.11-1.5-.21-2.23A3.33,3.33,0,0,1,53.65,46a2.67,2.67,0,0,1,1.47-1.21,3.65,3.65,0,0,0,1.4-.81c.39-.43-.57-.69-.89-.37s-.65.18-.93.32a3.33,3.33,0,0,0-.81.63,4.81,4.81,0,0,0-1.2,1.85A9.58,9.58,0,0,0,52,51c.27,1.68,1.65,2.91,2.78,4.06a2.18,2.18,0,0,0,1.72.73,3.58,3.58,0,0,0,2.23-.53.37.37,0,0,0,.1-.52.44.44,0,0,0-.22-.16c-.44-.14-1,0-1.35-.2A4.38,4.38,0,0,1,56,53.35,4,4,0,0,1,55.22,52a5.44,5.44,0,0,1-.18-1.8c0-1.24-.1-2.5,0-3.74a2.93,2.93,0,0,1,.63-1.57c.3-.39.43-.4.91-.41.87,0,.88-1,0-1a2.89,2.89,0,0,0-1.53.31,3.56,3.56,0,0,0-1.13,1.45,4.73,4.73,0,0,0-.32,2V49.8a8,8,0,0,0,.21,2.13,4.45,4.45,0,0,0,1.07,1.78A7.86,7.86,0,0,0,56.44,55a2.12,2.12,0,0,0,.67.3c.35.09.73,0,1.07.07l-.26-.72a2.19,2.19,0,0,1-1.85.21,3,3,0,0,1-.66-.62c-.25-.25-.51-.49-.76-.75a6.09,6.09,0,0,1-1.34-1.8A4.58,4.58,0,0,1,53,49.81a10.27,10.27,0,0,1,.87-3.69,4.07,4.07,0,0,1,1.2-1.44,2.45,2.45,0,0,1,.79-.26,1.52,1.52,0,0,0,.66-.43l-.89-.37c-.57.61-1.59.64-2.23,1.21a3.58,3.58,0,0,0-1.15,2.44,9.16,9.16,0,0,0,.17,1.66c.07.54,0,1.08.12,1.62a8.53,8.53,0,0,0,1.1,2.62c.19.35.47.73.36,1.15a1.41,1.41,0,0,1-.83.86,3,3,0,0,1-2.44.06,3.54,3.54,0,0,1-1.89-2,9.16,9.16,0,0,1-.64-1.34,2.83,2.83,0,0,1,0-1.58c.46-2,2-4.33,4.33-4.5.45,0,.47-.53,0-.52Z" transform="translate(-1.53 -0.61)"/><path class="cls-2" d="M34.69,69.47c-.34.92,1.29,1,1.83,1.06s.91,0,1.36,0a7.31,7.31,0,0,0,2.38,0,.19.19,0,0,0,.19-.18v-.19c0-.22-.45-.25-.5,0v.19l.19-.13a6.54,6.54,0,0,1-2.07.09H36.82c-.42,0-1.94,0-1.8-.72a.17.17,0,0,0-.31-.06Z" transform="translate(-1.53 -0.61)"/><path class="cls-2" d="M36.31,112.71c-.17.2-.24.3,0,.5a1,1,0,0,0,.48.28,4,4,0,0,0,1.49.17,5.06,5.06,0,0,0,1.39-.23l1.16-.38c.43-.14.86-.23,1.3-.34.27-.07.2-.37-.07-.36-1.2,0-2.24.79-3.42.93a5.31,5.31,0,0,1-1.26,0,1.18,1.18,0,0,1-.94-.35v.1l.12-.18c.08-.11-.14-.17-.21-.09Z" transform="translate(-1.53 -0.61)"/><path class="cls-2" d="M28.91,124.27c.62-.5,2,.45,2.64.75a6.44,6.44,0,0,0,2,.9,19.12,19.12,0,0,0,3.29.26,9.47,9.47,0,0,0,2.55-.07c1-.25,2-.32,2.91-.52s2.19-.2,3.27-.34,2.1-.52,3.19-.66a17,17,0,0,0,3.29-.9c.3-.1.09-.41-.15-.4h-.27c-.36,0-.37.43,0,.42h.27l-.15-.4a24.3,24.3,0,0,1-3.76.93c-.64.1-1.25.3-1.88.44s-1.38.07-2.09.17-1.65.35-2.48.46c-.5.06-1,.07-1.52.17a9.6,9.6,0,0,1-1.39.31,18.67,18.67,0,0,1-3.66-.15,9.74,9.74,0,0,1-1.86-.22,9.26,9.26,0,0,1-1.21-.63c-.83-.42-2.36-1.46-3.25-.69-.15.13.11.26.23.16Z" transform="translate(-1.53 -0.61)"/><path class="cls-2" d="M34.3,136.2c-.59-.34-1.62-.88-2.28-.42-.18.12-.32.3-.48.43-.37.33-.73.66-1.07,1a4.16,4.16,0,0,0-1.27,2.3,4.75,4.75,0,0,0,.47,2.78,2.83,2.83,0,0,0,2,1.14,3.72,3.72,0,0,0,2.44-.11,4.3,4.3,0,0,0,2.56-4.27,3.61,3.61,0,0,0-1.53-2.44,5.86,5.86,0,0,0-3.45-.52c-.32,0-.32.36,0,.37a7.17,7.17,0,0,1,2.84.31A3.19,3.19,0,0,1,36,138.54a3.23,3.23,0,0,1-.13,2.29,4.33,4.33,0,0,1-1.33,1.77,3,3,0,0,1-2.21.59c-.29-.06-.58-.14-.87-.22a2.6,2.6,0,0,1-1-.42,3,3,0,0,1-.76-2.22,5.18,5.18,0,0,1,.09-1.24,3.61,3.61,0,0,1,.59-1,13.62,13.62,0,0,1,1.7-1.78l.24-.23a.65.65,0,0,1,.41-.09,4.24,4.24,0,0,1,1.36.43c.12.05.38-.09.21-.2Z" transform="translate(-1.53 -0.61)"/><path class="cls-2" d="M49.09,136.46c-1-1.34-2.74-.57-3.74.37a4.64,4.64,0,0,0-1.29,2.1,4,4,0,0,0,.13,3.07,3.74,3.74,0,0,0,2,1.4,3.87,3.87,0,0,0,2.4.14,5.34,5.34,0,0,0,3.12-4.6,2.94,2.94,0,0,0-1.27-2.56,5,5,0,0,0-1.3-.49c-.56-.08-1,.11-1.48-.36-.15-.16-.62,0-.44.18.5.66,1.09.46,1.81.56a4.45,4.45,0,0,1,1,.37,1.84,1.84,0,0,1,.9,1,4.22,4.22,0,0,1-1.07,4.63,4.54,4.54,0,0,1-1.12.88,2.24,2.24,0,0,1-1.17.2,4.28,4.28,0,0,1-2.21-.76,2.43,2.43,0,0,1-1-2.2,4.78,4.78,0,0,1,.72-2.51c.75-1.11,2.63-2.67,3.83-1.27.08.1.35,0,.25-.11Z" transform="translate(-1.53 -0.61)"/><path class="cls-2" d="M33.44,138.93a.8.8,0,0,0-.86-.31l-.44.16h-.35a.21.21,0,0,0-.19.11,2.05,2.05,0,0,0-.22,1.14.84.84,0,0,0,.89.59,1.57,1.57,0,0,0,1-.45,1.07,1.07,0,0,0,.23-1,.74.74,0,0,0-.91-.49l-.09,0a.14.14,0,0,0-.09.17c0,.08.12.11.19.11h.28a.37.37,0,0,1,.07.14.79.79,0,0,1-.12.7,1.23,1.23,0,0,1-.67.34H32a.45.45,0,0,1-.24-.31,1,1,0,0,1,0-.49,2.21,2.21,0,0,1,.16-.52l-.19.11a2,2,0,0,0,.78-.26,1.08,1.08,0,0,1,.31-.07.49.49,0,0,1,.32.2c.08.09.33,0,.24-.1Z" transform="translate(-1.53 -0.61)"/><path class="cls-2" d="M48,138.93a.91.91,0,0,0-.45-.32.51.51,0,0,0-.44.13,1.35,1.35,0,0,0-.29.88,2,2,0,0,0,0,.49c0,.06.08.08.13.09.56.16,1.39.18,1.71-.41A1,1,0,0,0,48,138.5l-.13,0a.67.67,0,0,0-.5.08.59.59,0,0,0-.24.44c0,.09.1.13.17.14a.2.2,0,0,0,.22-.1v-.1h0l0-.06h.2l.06.06.11.14h0v.07a1.42,1.42,0,0,1,.05.16h0v.07a.48.48,0,0,1,0,.17.43.43,0,0,1-.19.23h-.22a1.34,1.34,0,0,1-.4,0H47l.12.09h0a.14.14,0,0,0,0-.09v-.2a1.28,1.28,0,0,1,0-.39,1.94,1.94,0,0,1,.05-.2l.07-.16v-.06h0l.2.17a.17.17,0,0,0,.19,0s.09-.09,0-.14Z" transform="translate(-1.53 -0.61)"/><path class="cls-2" d="M57.64,161.54a.9.9,0,0,0-.4-.44.64.64,0,0,0-.6.06c-.54.45-.33,1.36-.23,2a9.44,9.44,0,0,0,.74,3.1c1.22,2.18,3.46,3.05,5.85,3.2s4.8-1.69,6.72-3.08a13.51,13.51,0,0,0,2.53-2.25,28.57,28.57,0,0,0,2.45-3.23c1.46-2.44,1.82-5.11,2.37-7.85a44.55,44.55,0,0,0,1.37-8.21c0-1.38.17-2.71.23-4.08s.21-2.86.22-4.28a30.24,30.24,0,0,0-1-8.57,74.83,74.83,0,0,1-2.52-9.57,26.7,26.7,0,0,1-.26-4,2.79,2.79,0,0,0-1.18-2.6c-.51-.35-1.67.14-1,.71s.68,1.72.65,2.68a16.56,16.56,0,0,0,.29,3.22A45.23,45.23,0,0,0,75.61,125a35.7,35.7,0,0,1,1.7,7.41c.09,1.2.08,2.4.08,3.6s-.23,2.3-.25,3.46-.19,2.35-.22,3.53.06,2.29-.07,3.44c-.27,2.39-.91,4.71-1.34,7.07s-.89,5-2.31,7.18c-.55.83-1.28,1.51-1.85,2.33a11.07,11.07,0,0,1-2.66,2.54,17.29,17.29,0,0,1-3.34,2.15,5.77,5.77,0,0,1-4.52.17,4.57,4.57,0,0,1-2.8-3.47c-.09-.48-.22-.95-.32-1.44a3.75,3.75,0,0,1-.22-1.49l-.6.25.12.07c.18.13.84.07.66-.28Z" transform="translate(-1.53 -0.61)"/><path class="cls-2" d="M73.79,106.26c.32-2.48-.1-5,.17-7.5.07-.63.35-1.25.41-1.86V95.78c.06-1.11.17-2.25.24-3.37s.3-2.2.46-3.29a10.73,10.73,0,0,1,1.21-3.19c.86-1.72,2.19-3.23,2.38-5.18l-.44.18c.38.14.5.58.76.85a3,3,0,0,0,.9.59,20.84,20.84,0,0,0,3.36,1.07c1.48.42,2.63.16,2.53-1.57,0-.27-.52-.26-.54,0-.06.65,0,.54-.75.92a1.42,1.42,0,0,1-1.57.08c-.66-.21-1.34-.38-2-.6a3.37,3.37,0,0,1-1.74-1.15,1.5,1.5,0,0,0-.66-.56c-.17,0-.43,0-.45.19-.21,2.11-1.85,3.93-2.77,5.82A15.71,15.71,0,0,0,74,92.45c-.08,1.12-.18,2.26-.24,3.37s-.28,2-.39,3c-.06,1.22-.06,2.43,0,3.64a35.47,35.47,0,0,0,.12,3.86c0,.16.32.16.34,0Z" transform="translate(-1.53 -0.61)"/><path class="cls-2" d="M94.09,66.78c-.14.52.24.79.67,1a3.82,3.82,0,0,1,.74.34,2.05,2.05,0,0,0,.76.43,5.2,5.2,0,0,0,1.11.09,2.77,2.77,0,0,0,1.07-.18c.69-.24,1.18-.86,1.91-1,.36-.07.15-.43-.15-.38a4.11,4.11,0,0,0-1.54.79,3,3,0,0,1-2,.35c-.58,0-.93-.47-1.46-.64s-1-.21-.88-.76c0-.13-.26-.15-.3,0Z" transform="translate(-1.53 -0.61)"/><path class="cls-2" d="M78.44,80.48c0-1.5-.2-3,.58-4.36a5.86,5.86,0,0,1,1.53-1.49c.61-.5,1.15-1.07,1.74-1.59,1-.94,2.11-1.84,3.1-2.85.43-.45.86-.93,1.27-1.41a2.37,2.37,0,0,0,.67-1.3c0-.27-.56-.28-.58,0a3,3,0,0,1-1,1.56c-.46.5-.9,1-1.4,1.48-1.13,1.07-2.28,2.12-3.42,3.18-.9.83-2,1.46-2.53,2.61-.62,1.35-.31,2.75-.23,4.17,0,.14.27.14.28,0Z" transform="translate(-1.53 -0.61)"/><path class="cls-2" d="M94.16,73.76c-.17-1.52,2-2.18,3.08-2.57.31-.11.64-.2.94-.33s.52-.29.78-.42.52-.21.78-.32a2,2,0,0,0,1.06-.9,2.61,2.61,0,0,0,.21-1.3,2.3,2.3,0,0,0-.17-1,.71.71,0,0,0-.9-.25c-.28.12,0,.39.2.34s.31.38.32.6a3.82,3.82,0,0,1,0,1.17,1.52,1.52,0,0,1-1,1.06c-.48.2-.92.43-1.39.67s-1.17.43-1.74.67a6.5,6.5,0,0,0-1.71,1,1.78,1.78,0,0,0-.71,1.62c0,.13.29.13.28,0Z" transform="translate(-1.53 -0.61)"/><path class="cls-2" d="M14.82,130.17c4.4-.58,8.88,0,13.27.47,1.18.12,2.37-.07,3.54.06a18.5,18.5,0,0,0,2.57.26c2.26,0,4.57.11,6.82-.08s4.61.1,6.89-.12c2.06-.21,4.14-.32,6.21-.33,2.35,0,4.78.16,7.13,0,1-.07,2-.09,3-.16a5.65,5.65,0,0,0,2-.3c.26-.14.33-.49,0-.6h-.12c-.45-.15-1.09.4-.49.6h.12v-.6a2.25,2.25,0,0,1-1,.08c-.58,0-1.12.14-1.71.14-1.08,0-2.13.19-3.21.19H52.68c-2,0-4,.34-6,.33h-3c-1.17,0-2.29.16-3.44.19a45,45,0,0,1-7.06-.1c-1.92-.25-3.82-.27-5.76-.41-4.22-.31-8.46-.69-12.67,0-.43.06-.18.49.17.45Z" transform="translate(-1.53 -0.61)"/><path class="cls-2" d="M84.71,81.56c-.19.44-.89.41-1.28.5a1.58,1.58,0,0,1-1.37-.13,17.79,17.79,0,0,1-2.36-1.16c-1.45-1-.73-3.26,0-4.59a5.51,5.51,0,0,1,.57-.88,4.7,4.7,0,0,1,1.34-1,13.67,13.67,0,0,0,2.27-1.81,17.11,17.11,0,0,0,2-2.56c.61-.86,1.3-1.71,2-2.54.42-.53-.65-.76-1-.42a15.6,15.6,0,0,0-1.22,1.55c-.41.55-.85,1-1.23,1.61a11.3,11.3,0,0,1-2.7,2.9c-.55.42-1.15.73-1.71,1.12a4.22,4.22,0,0,0-1.07,1.2,7.48,7.48,0,0,0-1,2.57,3.65,3.65,0,0,0,.22,2.64,4.75,4.75,0,0,0,2.56,1.64c1,.37,1.74.89,2.79.59.72-.2,1.82-.26,2.1-1.08.14-.4-.63-.49-.77-.16Z" transform="translate(-1.53 -0.61)"/><path class="cls-2" d="M94.2,73.78a2.62,2.62,0,0,1,1.06-1,12.17,12.17,0,0,1,1.5-.83,18.32,18.32,0,0,1,2-.83,8.22,8.22,0,0,0,1.77-.72,2,2,0,0,0,.78-2.71l-.09-.16c-.41-.57-1.37-.15-1.85.11a7,7,0,0,1-1.63.71,10,10,0,0,1-1.11.27,1.55,1.55,0,0,1-.8,0c-.65-.19-.83-1-1-1.54l-1,.42c.3.21.52.5.8.74a2.06,2.06,0,0,0,1.1.5,5,5,0,0,0,2-.11A8.65,8.65,0,0,0,99.5,68c.43-.21,1.06-.56,1-1.12s-1.06-.47-1.06,0V67a.5.5,0,0,1-.14.15,2.35,2.35,0,0,1-.56.31,8.74,8.74,0,0,1-1.3.46,3.17,3.17,0,0,1-1.37.07c-.58-.1-.9-.72-1.36-1s-1.18-.12-1,.42a3.25,3.25,0,0,0,1,1.7,2.49,2.49,0,0,0,2.11.43,11.57,11.57,0,0,0,2.08-.62,6,6,0,0,0,1-.45,1.7,1.7,0,0,1,.84-.35l-.5-.21a1.36,1.36,0,0,1-.44,1.88,20.77,20.77,0,0,1-2.69,1,18.21,18.21,0,0,0-2.41,1.33c-.53.37-1.23.84-1.35,1.52-.07.41.75.41.88.09Z" transform="translate(-1.53 -0.61)"/><path class="cls-2" d="M78.44,81.4c-.87.37-1.18,1.57-1.45,2.39-.53,1.59-1.23,3.06-1.86,4.62-1.17,2.88-2.47,5.84-2.44,9v5.19c0,1.73.3,3.18.3,4.81s.32,3.11.27,4.66c-.06,1.83.66,3.62.78,5.45,0,.47,1,.47,1,0,.09-1.7-.58-3.19-.67-4.84a21.05,21.05,0,0,0-.1-2.38,12.14,12.14,0,0,1-.11-2,21.83,21.83,0,0,0,.06-2.56c-.06-.58-.2-1.12-.22-1.71,0-1.73,0-3.46,0-5.19,0-1.44.16-2.78.3-4.21a19.15,19.15,0,0,1,1.45-4.55c.54-1.46,1.21-2.88,1.74-4.34.25-.69.39-1.41.61-2.11.15-.5.36-1.48.82-1.77s-.19-.53-.46-.43Z" transform="translate(-1.53 -0.61)"/><path class="cls-2" d="M50.37,123.42c-.12.17-.89.14-1.06.17-.4.06-.8.14-1.19.21-.93.18-1.86.38-2.78.58a51.21,51.21,0,0,1-5.75,1,18.55,18.55,0,0,1-5.55-.6,8.49,8.49,0,0,1-2.52-.92c-.68-.36-1.54-.44-2.17-.84-.37-.25-1.23.11-.72.52a12.36,12.36,0,0,0,2.23,1,9.21,9.21,0,0,0,2.07.88c.94.25,1.91.35,2.85.56a10.37,10.37,0,0,0,2.71.33c4.12-.16,8.23-1.42,12.25-2.27a.3.3,0,0,0,.29-.38v-.19c-.06-.23-.5-.22-.62,0Z" transform="translate(-1.53 -0.61)"/><path class="cls-2" d="M34.72,68.93a7,7,0,0,0,0,1.71c0,.06.1.13.15.15a10.61,10.61,0,0,0,2.57.35,2.75,2.75,0,0,0,2.21-.4c.12-.12,0-.29-.13-.34a.45.45,0,0,0-.47.09,1.12,1.12,0,0,1-.71.19h-1a8.88,8.88,0,0,1-2.18-.3l.24.17a7.93,7.93,0,0,1-.1-1.62C35.3,68.65,34.74,68.65,34.72,68.93Z" transform="translate(-1.53 -0.61)"/><path class="cls-2" d="M15.11,129.72v.16a.48.48,0,0,0,.35.34,5.1,5.1,0,0,0,1.35.05c.52,0,1,.19,1.54.2h3.79a24.47,24.47,0,0,1,3.53.14c1.16.17,2.35,0,3.52.07.55,0,1.1.12,1.65.15s1.2,0,1.8,0,1.09.17,1.65.2,1.29,0,1.94,0H52.44a.5.5,0,0,0,.5-.5.5.5,0,0,0-.5-.5h-15a21.53,21.53,0,0,1-3.68-.11c-1.09-.17-2.17-.07-3.25-.17s-2.39-.13-3.6-.13a8.8,8.8,0,0,1-1.53-.14,12.8,12.8,0,0,0-1.75-.06h-4.2a10.16,10.16,0,0,1-1.91-.12c-.55-.1-1.14.06-1.68-.08l.35.35v-.16c-.13-.63-1.09-.36-1,.27Z" transform="translate(-1.53 -0.61)"/></svg>