<svg width="179" height="214" viewBox="0 0 179 214" fill="none" xmlns="http://www.w3.org/2000/svg">
<rect width="179" height="214" fill="#F9F9F9"/>
<path d="M170.172 179.562C170.114 180.521 169.992 181.476 169.805 182.418C169.805 182.871 169.868 183.337 169.805 183.79C169.658 184.357 169.548 184.933 169.477 185.514C169.45 186.696 169.328 187.874 169.111 189.037C168.896 190.119 168.896 191.239 168.618 192.296C168.438 193.236 168.379 194.196 168.441 195.152C168.384 196.055 168.27 196.955 168.1 197.844C167.873 199.996 165.65 198.763 164.311 199.543C162.758 200.369 161.484 201.634 160.649 203.179C160.431 203.878 160.381 204.618 160.504 205.34C160.627 206.061 160.919 206.743 161.356 207.331C161.851 208.055 162.543 208.623 163.352 208.967C163.768 209.168 165.296 209.747 165.334 210.225C164.432 210.428 163.516 210.567 162.594 210.641C161.583 210.641 160.56 210.641 159.537 210.641C156.47 210.82 153.393 210.728 150.343 210.364C149.627 210.273 148.904 210.252 148.183 210.301C147.218 210.225 146.256 210.099 145.304 209.923C143.523 209.76 141.629 209.923 139.835 209.923H135.263C133.697 209.923 132.219 209.584 130.653 209.558C129.16 209.575 127.671 209.406 126.22 209.055C125.905 208.98 125.551 208.678 125.311 208.615C124.674 208.495 124.023 208.47 123.379 208.539C122.3 208.522 121.226 208.399 120.171 208.174C118.801 208.055 117.423 208.055 116.053 208.174C114.785 208.206 113.516 208.118 112.265 207.91C111.364 207.86 110.462 207.86 109.562 207.91C108.754 207.847 107.882 207.621 107.036 207.482C104.51 207.042 101.769 205.331 99.1676 205.582C98.4741 205.727 97.8353 206.063 97.3237 206.551C97.0145 206.787 96.663 206.962 96.2881 207.067C95.9898 207.137 95.685 207.175 95.3787 207.18C94.3305 207.18 93.3833 207.407 92.335 207.545C91.2653 207.809 90.1656 207.931 89.0639 207.91C88.1672 207.81 80.2232 206.652 79.4654 206.048C79.0486 206.048 78.354 205.545 77.8993 205.532H77.2047C76.5832 205.595 75.9569 205.595 75.3355 205.532C74.6535 205.419 73.9841 205.331 73.3021 205.18C72.7932 205.148 72.2828 205.148 71.7739 205.18C71.395 205.18 71.0414 204.979 70.6625 204.928C69.1019 204.84 67.5375 204.84 65.9769 204.928H54.6102C53.8777 204.928 53.2462 205.117 52.539 205.167C52.1348 205.167 51.7307 205.167 51.276 205.167C50.8213 205.167 50.013 205.343 49.4826 205.394C48.9521 205.444 48.3333 205.834 47.6892 205.872C47.1432 205.899 46.5992 205.958 46.06 206.048L44.456 206.325C43.2058 206.565 41.9393 206.713 40.6671 206.765C40.2415 206.824 39.8198 206.908 39.4041 207.017C39.1894 207.017 38.9495 207.017 38.7221 207.017C38.1033 207.017 37.4592 207.331 36.8908 207.432C36.2269 207.489 35.5593 207.489 34.8954 207.432C34.2203 207.454 33.5484 207.534 32.8872 207.671C31.7277 207.919 30.5487 208.066 29.3636 208.111C28.7827 208.159 28.2051 208.238 27.6333 208.351C27.0902 208.413 26.5219 208.262 25.9788 208.351C25.4357 208.439 24.6148 208.678 23.9328 208.791C23.2508 208.904 22.6699 208.955 22.0005 209.068C21.7858 209.068 21.6468 209.244 21.4321 209.294C21.2174 209.345 20.8007 209.294 20.5102 209.294C19.9166 209.382 19.3988 209.458 18.8052 209.496C17.9969 209.496 17.2517 209.735 16.4308 209.735H15.1552C14.4101 209.735 13.6902 209.735 12.9703 209.735C13.627 209.357 14.3595 208.942 14.4101 209.106C14.9279 208.992 15.0794 208.262 15.4078 207.847C15.6364 207.631 15.8079 207.361 15.907 207.063C16.0061 206.764 16.0299 206.446 15.9761 206.136C15.9761 204.211 15.9761 202.298 15.9761 200.373C15.9928 199.079 15.7435 197.794 15.2436 196.599C15.0396 196.121 14.8707 195.629 14.7384 195.127C14.6753 194.837 14.8395 193.768 14.6627 193.579C14.2838 193.189 14.0943 193.579 13.6397 193.742C13.124 193.987 12.5554 194.099 11.9852 194.07C11.1895 194.07 9.45924 194.397 8.77724 193.667C8.09524 192.937 9.85076 192.409 10.3812 192.044C10.9982 191.569 11.5615 191.029 12.0609 190.433C12.8438 189.275 13.6869 188.157 14.5869 187.086C15.0242 186.732 15.5199 186.455 16.0519 186.269C17.2514 185.592 18.345 184.744 19.2977 183.752C20.4218 182.62 21.1543 181.16 22.2152 179.977C23.0415 179.198 23.7328 178.289 24.2612 177.285C24.9432 175.825 26.0167 174.328 26.585 172.78C26.9405 171.658 27.4827 170.603 28.189 169.66C29.3944 168.151 30.4557 166.534 31.3591 164.828C32.7357 165.181 34.0492 165.495 35.4132 165.973C36.3857 166.313 37.9391 167.232 39 166.753C39.3031 166.628 39.6315 166.124 39.8462 165.898C40.5968 165.1 41.301 164.26 41.9553 163.381C42.3847 162.815 42.9152 162.199 43.2814 161.595C43.6477 160.991 43.5972 160.487 43.8624 159.984C44.4836 158.996 45.4515 158.274 46.5778 157.958C49.7226 157.518 48.9521 164.061 52.5516 162.173C53.1802 161.945 53.7048 161.498 54.0293 160.915C54.1682 160.664 54.2566 160.374 54.3955 160.123C55.461 158.238 56.9057 156.593 58.6391 155.291C59.4474 154.612 59.9021 153.706 60.7988 153.114C61.4384 152.68 62.1473 152.357 62.8953 152.158C64.126 151.689 65.2731 151.027 66.2927 150.195C67.1372 149.683 67.8923 149.037 68.5281 148.283C68.8186 147.893 69.5511 146.81 69.4248 146.282C69.2985 145.754 68.2881 145.414 67.9471 145.15C67.6061 144.885 67.1641 144.659 66.76 144.382C66.1158 143.954 65.6864 143.287 65.0297 142.86C63.7667 142.054 61.8344 142.004 60.9377 140.721C60.2431 139.727 59.8768 138.544 59.2453 137.525C58.6141 136.484 57.8732 135.514 57.0351 134.631C56.8204 134.417 56.5552 133.851 56.3152 133.7C56.0753 133.549 55.469 133.536 55.0523 133.335C54.4476 133.11 53.8843 132.786 53.3852 132.379C53.0917 131.888 52.8302 131.38 52.6021 130.856C52.2005 130.068 51.6568 129.36 50.9982 128.767C49.739 127.899 48.1871 127.56 46.6788 127.824C46.9567 127.585 47.4619 127.258 47.4997 126.905C47.0198 126.905 46.7293 126.553 46.2368 126.503C45.8265 126.49 45.423 126.396 45.0496 126.226C44.5557 125.964 44.1192 125.606 43.7657 125.174C43.4122 124.742 43.1488 124.244 42.991 123.709C42.751 122.992 42.6373 122.225 42.3468 121.507C41.8164 120.249 40.945 119.23 40.5155 117.821C40.1556 116.515 39.6604 115.25 39.0379 114.046C38.7474 113.518 38.4695 113.04 38.1538 112.524C37.6454 111.687 37.1857 110.821 36.7772 109.932C36.0596 108.695 35.2754 107.498 34.4281 106.346C33.5125 104.602 32.7722 102.773 32.2179 100.885C31.839 99.8407 31.3085 98.8215 30.9549 97.7772C30.1845 95.3991 29.6919 92.1906 30.6265 89.7748C31.1822 89.5861 32.18 90.7185 32.5083 91.0331C33.2159 91.9317 34.0697 92.7057 35.0343 93.3231C35.9815 93.8767 36.7014 94.6694 37.6234 95.2607C38.1607 95.5263 38.6835 95.8203 39.1894 96.1415C39.5557 96.4435 39.7957 96.7958 40.1872 97.0852C41.5729 97.8922 42.7359 99.0292 43.5719 100.394C43.8624 100.986 43.774 101.791 44.216 102.37C44.6581 102.949 45.479 103.213 45.9084 103.754C46.3378 104.295 46.7293 105.075 47.1714 105.679C47.6134 106.283 47.9418 106.358 48.1186 106.862C48.1805 106.155 48.2902 105.453 48.447 104.76C48.447 104.169 48.447 103.578 48.447 102.986C48.447 101.514 48.447 100.042 48.447 98.5573C48.5689 97.318 48.8665 96.1022 49.331 94.9462C49.9239 93.525 50.3231 92.0313 50.5182 90.5046C50.5182 89.2464 50.8466 88.2146 50.834 87.0067C50.834 85.0187 51.9833 84.1505 53.2715 82.6533C54.5597 81.156 55.2165 78.8786 56.4415 77.1044C57.3256 75.8462 58.2602 74.588 59.2327 73.4556C60.6219 71.8325 61.7586 69.7564 63.552 68.5862C64.4108 68.0074 65.3075 67.5796 66.2295 67.0386C67.4925 66.2962 68.566 65.2897 69.7532 64.4341C70.9404 63.5785 72.1528 62.4838 73.4663 61.7037C74.5534 61.0459 75.5085 60.1926 76.2827 59.1872C77.5085 57.5712 78.6468 55.8912 79.6927 54.1543C80.7283 52.418 82.7743 51.6378 83.7216 49.8008C84.2899 48.6684 84.6814 47.9512 86.0454 47.9638C86.3991 47.9638 86.98 47.8506 87.3084 48.0267C87.6368 48.2029 87.5736 48.5929 87.7757 48.8697C88.3738 49.71 88.8938 50.6029 89.3291 51.5372C89.7842 52.858 90.3857 54.124 91.1225 55.3119C91.7288 56.0291 92.1834 57.0105 93.0675 57.3251C93.9516 57.6396 94.962 57.7025 95.846 58.08C96.826 58.4307 97.7591 58.8997 98.6245 59.4766C99.3036 60.0298 100.012 60.5464 100.746 61.0243C101.562 61.4935 102.406 61.9136 103.272 62.2825C103.828 62.5215 104.434 62.7354 105.003 62.9368C105.571 63.1381 106.051 63.0374 106.531 63.201C108.38 64.0907 110.007 65.3803 111.292 66.9757C111.759 67.5041 112.1 68.171 112.555 68.712C113.01 69.2531 113.666 69.7815 114.172 70.3603C114.902 71.1994 115.696 71.9818 116.546 72.7006C117.489 73.4942 118.336 74.3935 119.072 75.3807C119.35 75.7581 119.577 76.1482 119.893 76.5257C120.283 76.9745 120.705 77.395 121.156 77.7839C121.636 78.262 121.787 78.9541 122.191 79.4322C122.596 79.9103 123.366 80.25 123.77 81.0427C124.694 82.6092 125.538 84.2219 126.296 85.8743C126.928 87.5729 127.433 89.347 128.039 91.0582C128.721 92.9959 128.14 94.5939 128.039 96.5441C128.039 97.2991 128.039 98.0414 128.039 98.7838C127.978 99.3655 127.872 99.9418 127.723 100.508C127.66 101.366 127.66 102.228 127.723 103.087C127.722 104.103 127.586 105.114 127.319 106.094C127.225 106.632 127.063 107.156 126.839 107.654C126.662 107.981 126.359 108.07 126.385 108.497C127.168 107.654 128.153 108.258 129.024 107.742C130.198 106.915 131.316 106.011 132.371 105.037C133.074 104.392 133.816 103.791 134.594 103.238C135.511 102.753 136.476 102.366 137.473 102.08C138.344 101.681 139.254 101.373 140.189 101.162C140.934 101.074 141.692 101.262 142.424 101.162C143.334 100.966 144.26 100.852 145.19 100.822C146.264 100.822 146.668 101.061 146.668 102.08C146.668 102.458 146.794 103.062 146.668 103.339C146.541 103.615 146.213 103.792 146.036 104.094C145.771 104.569 145.458 105.016 145.102 105.427C144.622 105.956 144.319 106.547 143.839 107.05C143.36 107.514 142.974 108.065 142.702 108.673C142.195 109.655 141.59 110.582 140.896 111.442C140.396 112.246 139.802 112.99 139.128 113.656C137.132 115.317 135.339 117.255 133.394 118.915C131.69 120.194 129.831 121.255 127.862 122.074C126.952 122.409 126.159 122.999 125.576 123.772C125.23 124.403 124.935 125.059 124.692 125.735C124.024 126.931 123.49 128.197 123.101 129.51C123.05 129.961 123.05 130.417 123.101 130.869C122.956 132.082 122.494 133.236 121.762 134.216C120.981 135.435 120.084 136.577 119.085 137.625C117.822 139.208 116.433 140.685 114.929 142.042C113.445 143.396 111.814 144.581 110.067 145.577C109.145 146.03 108.274 146.559 107.301 146.936C106.679 147.097 106.08 147.338 105.52 147.653C104.712 148.32 106.291 149.818 106.783 150.61C107.895 152.41 109.309 154.045 110.572 155.782C112.429 158.411 113.174 161.481 114.538 164.338C115.014 165.246 115.346 166.222 115.523 167.232C115.549 167.762 115.687 168.28 115.927 168.754C116.293 169.383 116.698 170.516 117.316 170.931C118.034 171.23 118.823 171.317 119.59 171.182H122.873C123.45 171.22 124.028 171.22 124.604 171.182C125.109 171.12 125.551 170.855 126.069 170.805C126.991 170.704 127.925 170.906 128.847 170.805C129.59 170.657 130.341 170.548 131.095 170.478C135.117 170.519 139.126 170.941 143.068 171.736C144.003 171.887 144.887 172.151 145.809 172.353C146.542 172.453 147.28 172.516 148.019 172.541C148.891 172.655 149.787 172.894 150.646 173.07C152.023 173.339 153.415 173.529 154.814 173.636C156.201 173.805 157.597 173.894 158.994 173.9C159.414 173.859 159.837 173.859 160.257 173.9C161.52 174.139 162.935 174.378 164.299 174.529C166.029 174.731 168.088 174.466 169.565 175.511C170.639 176.341 170.172 178.392 170.172 179.562Z" fill="white"/>
<path d="M169.54 179.562C169.186 183.261 168.77 186.986 168.277 190.672C168.062 192.195 168.277 195.101 167.696 196.498C166.85 198.536 165.309 198.259 163.97 199.153C158.919 202.525 159.525 204.639 162.329 208.942C163.352 210.515 164.286 210.074 161.066 210.2C157.517 210.313 154.056 210.2 150.507 209.948C146.958 209.697 143.359 209.47 139.658 209.521C132.409 209.596 125.399 207.973 118.188 207.684C113.236 207.6 108.308 206.988 103.487 205.859C101.674 205.207 99.7054 205.119 97.8415 205.607C93.7116 206.866 90.1627 207.658 85.7676 206.941C83.1533 206.526 80.7157 205.607 78.1898 205.092C64.7897 202.374 50.2151 205.092 36.9161 206.677C35.5142 206.841 15.0416 210.301 14.6374 209.458C14.8268 209.86 16.6203 206.941 16.595 207.042C18.0095 202.776 15.812 197.769 15.332 193.604C15.3096 193.491 15.2526 193.388 15.1688 193.31C15.0851 193.231 14.9788 193.18 14.8647 193.164C12.604 192.534 9.97706 194.963 11.7452 191.616C13.8923 187.476 18.7799 184.96 21.6847 181.412C22.9667 179.908 24.132 178.31 25.1705 176.63C26.7492 173.862 27.8606 169.547 30.3739 167.508C33.5692 164.916 36.2088 168.351 39.3789 167.093C40.6418 166.59 41.5764 164.577 42.4984 163.583C44.7212 161.305 42.7257 161.72 46.2873 160.965C52.8547 159.556 46.5273 159.946 49.129 161.242C50.8087 162.085 50.5561 163.494 52.9179 162.5C53.903 162.098 54.0166 161.683 54.686 160.991C56.6436 158.927 57.9066 156.209 60.2936 154.36C63.5394 151.843 68.8565 150.786 70.0816 146.357C70.1 146.298 70.1039 146.235 70.0929 146.174C70.0819 146.112 70.0564 146.055 70.0184 146.005C68.0908 144.487 66.075 143.084 63.9814 141.803C60.5841 139.286 59.7 136.153 56.8078 133.31C55.9995 132.517 52.8673 129.396 51.5286 128.377C49.8867 127.119 50.0888 128.113 48.4849 127.295C47.9544 127.031 47.3103 128.34 48.1312 127.069C48.1678 127.016 48.191 126.955 48.1991 126.891C48.2071 126.827 48.1997 126.762 48.1774 126.702C48.1552 126.642 48.1187 126.587 48.0711 126.544C48.0235 126.5 47.9662 126.469 47.9039 126.452C42.5489 124.728 41.2481 116.927 38.8611 112.347C36.3351 107.453 33.304 102.936 31.6874 97.6009C31.3717 96.5692 30.0961 91.813 32.0789 91.3098C32.2179 91.3098 33.203 92.568 33.3419 92.6435C35.6426 94.0229 37.8076 95.6153 39.8083 97.3996C42.6121 99.7902 45.3401 104.144 47.7271 107.138C48.0302 107.503 48.8511 107.428 48.9143 106.912C49.7226 100.155 49.7352 93.0713 52.0085 86.5033C54.0798 80.4009 59.4474 72.3482 64.6634 68.5106C67.6819 66.2835 70.9783 64.4339 73.921 62.0181C76.8637 59.6023 78.013 57.0607 80.2358 54.28C81.4197 52.6368 82.7931 51.1376 84.3278 49.8133C88.4072 47.1962 88.4072 51.5874 89.8343 54.28C92.0824 58.407 96.5786 59.011 100.405 61.3387C103.449 63.1757 107.074 63.6538 109.751 66.0948C111.633 67.8186 113.086 70.0079 114.929 71.8198C119.602 76.4123 124.099 81.4201 126.296 87.7112C128.494 94.0024 127.913 102.105 125.841 108.371C125.677 108.887 126.435 109.013 126.776 108.887C130.186 107.554 132.005 105.553 135.187 103.691C137.411 102.278 140.002 101.548 142.639 101.59C146.074 101.954 146.339 102.848 144.533 105.289C142.727 107.73 141.288 110.322 139.481 112.473C136.16 116.462 131.702 118.941 127.496 121.784C125.629 122.852 124.236 124.582 123.593 126.628C122.671 128.742 122.76 130.403 122.027 132.542C121.232 134.857 118.845 137.21 117.215 138.946C115.476 140.913 113.523 142.681 111.393 144.218C109.562 144.964 107.789 145.843 106.089 146.848C105.129 147.88 104.75 146.848 104.826 148.597C104.826 150.812 109.044 154.322 110.118 156.008C112.144 159.595 113.758 163.398 114.929 167.345C116.47 171.66 117.38 171.635 121.813 171.635C124.263 171.635 126.599 171.421 129.037 171.233C134.771 170.792 140.075 171.849 145.657 172.831C150.229 173.636 169.868 173.51 169.515 179.562C169.515 180.153 170.778 180.166 170.778 179.562C171.119 173.724 167.38 174.416 162.404 173.887C154.372 173.019 146.491 171.698 138.484 170.578C132.737 169.76 126.814 171.56 121.257 170.729C116.95 170.075 116.521 167.848 115.169 164.212C113.873 160.534 112.093 157.044 109.878 153.831C109.208 152.875 106.733 150.598 106.632 149.402C106.404 146.647 107.352 147.955 109.057 146.672C111.141 145.099 113.515 144.08 115.51 142.268C118.176 139.998 120.48 137.338 122.343 134.379C124.654 130.214 123.846 125.911 128.127 122.564C130.376 120.79 133.053 119.884 135.326 117.947C138.006 115.765 140.369 113.224 142.348 110.397C143.472 108.749 149.307 103.414 146.933 100.809C145.468 99.1989 140.353 100.608 138.56 101.111C136.155 101.843 133.924 103.054 132.005 104.672C131.184 105.301 128.532 108.057 127.433 107.566C127.875 107.755 128.203 105.477 128.317 104.685C129.1 98.9598 129.504 92.9203 127.521 87.4344C125.538 81.9485 122.368 77.9348 118.516 73.5939C115.359 70.0456 111.355 64.6604 106.91 62.6976C103.676 61.2632 100.873 59.8414 97.7279 58.2183C97.1721 57.9415 96.5533 57.7779 96.0102 57.4885C92.575 55.6766 91.653 54.5946 89.9354 51.1973C88.8492 49.0835 88.5082 47.0703 85.8939 47.3094C84.5046 47.4352 84.6309 47.7246 83.6837 48.4796C80.2358 51.0589 78.5434 55.6641 75.7523 58.7971C72.2539 62.7479 67.2651 65.0882 63.1226 68.1457C60.2505 70.5905 57.8125 73.5 55.9111 76.752C54.2819 79.3566 51.8822 82.2127 50.6445 84.9809C49.4068 87.749 49.5584 91.7879 48.8385 94.7447C48.4975 96.1917 47.6892 105.754 47.7523 105.742C47.8155 105.729 44.3676 100.331 44.2792 100.193C42.6752 97.8274 40.4903 96.4937 38.1664 94.858C35.8426 93.2223 33.7713 90.5926 31.0181 89.3343C30.7655 89.2211 30.1719 89.2463 30.0835 89.5986C28.2269 97.3744 33.1777 104.836 36.8656 111.316C37.6234 112.649 44.1782 129.183 46.262 127.434C45.8453 127.786 46.262 128.214 46.7167 128.214C49.7226 128.214 52.7158 131.699 54.9133 133.7C57.6287 136.216 58.8664 139.651 61.6702 141.941C63.009 143.036 65.0171 143.199 66.3053 144.659C69.6774 148.345 66.2295 149.767 62.5164 151.73C60.3456 152.84 58.3944 154.332 56.7573 156.134C55.9995 156.914 54.5218 159.506 53.7262 159.909C45.7442 164.438 51.2002 159.808 49.2174 158.927C47.9544 158.361 48.1691 157.241 46.3504 157.405C44.9738 157.518 43.9761 158.789 43.193 159.745C41.0207 162.425 40.9323 165.935 36.8024 165.935C35.4258 165.935 32.9125 164.677 31.4727 164.287C31.3256 164.249 31.17 164.259 31.0289 164.315C30.8879 164.372 30.7689 164.472 30.6897 164.602C27.5702 170.163 24.1602 176.668 20.0934 181.512C18.2495 183.702 15.9509 184.822 13.9428 186.709C11.9347 188.596 10.8106 190.937 8.19628 192.497C8.14026 192.532 8.0937 192.58 8.06067 192.637C8.02764 192.694 8.00916 192.758 8.00684 192.824V193.566C8.01561 193.653 8.04868 193.736 8.10227 193.805C8.15586 193.873 8.22782 193.926 8.30995 193.956C10.1539 194.799 12.9955 193.843 13.968 194.611C15.4078 195.756 15.231 201.43 15.231 203.104C15.231 206.086 15.231 207.684 12.5409 209.143C11.9978 209.433 12.3135 209.986 12.8692 209.986C26.2693 209.823 39.3915 206.211 52.7158 205.394C60.2128 204.949 67.7331 205.083 75.2092 205.796C79.377 206.186 83.3427 207.658 87.5736 208.048C93.5348 208.577 98.713 206.287 104.75 207.231C111.734 208.313 118.857 208.111 125.816 209.37C131.018 210.116 136.275 210.41 141.527 210.25C149.421 210.25 157.504 212.037 165.372 210.552C165.776 210.477 165.991 210.087 165.65 209.797C164.476 208.803 161.558 207.155 161.179 205.847C159.714 200.927 164.185 201.518 166.686 199.555C168.542 198.108 167.418 200.235 168.631 197.806C169.578 195.919 169.237 191.842 169.54 189.766C170.033 186.331 170.399 182.909 170.727 179.474C170.854 178.958 169.591 178.946 169.54 179.562Z" fill="#668632"/>
<path d="M14.322 193.768C19.3738 192.711 24.5141 192.9 29.5912 192.082C37.9015 190.748 46.0982 189.666 54.5348 190.823C58.0711 191.302 61.3674 190.459 64.8785 190.937C69.6933 191.791 74.3959 193.184 78.8974 195.089C80.8929 195.856 87.7381 200.852 90.0746 199.505C91.9059 198.461 92.1711 194.007 92.6005 192.22C93.2923 189.473 93.1293 186.581 92.1332 183.928C91.1481 181.135 89.9483 177.323 87.8392 175.121C85.73 172.919 84.6186 173.196 81.979 172.604C75.9799 171.271 69.9051 170.641 63.8555 169.585C59.3719 168.792 55.141 167.068 50.6448 166.414C46.656 165.994 42.6418 165.864 38.634 166.024C37.9647 166.024 37.9647 166.791 38.634 166.791C52.1099 166.791 65.2826 170.327 78.5437 172.705C81.0697 173.158 84.9596 173.561 86.9424 175.486C89.3042 177.75 91.3755 183.878 91.6659 186.986C91.868 189.163 91.1229 197.756 87.4476 197.87C85.7426 197.87 81.2591 195.001 79.491 194.409C74.1107 192.623 68.5284 190.308 62.8072 189.88C59.8013 189.653 56.6818 190.106 53.6128 189.88C50.2175 189.49 46.7999 189.326 43.3828 189.389C38.2425 189.729 33.1149 190.647 28.0378 191.427C23.3017 192.094 18.5529 191.855 14.0062 193.252C13.5137 193.403 14.0062 193.894 14.3346 193.818L14.322 193.768Z" fill="#668632"/>
<path d="M95.5176 200.927C106.27 198.468 117.165 196.677 128.14 195.567C134.455 195.001 140.959 195.793 147.287 196.423C152.818 196.989 158.552 197.605 163.528 200.122C163.92 200.311 164.918 199.971 164.475 199.442L164.299 199.241C163.907 198.788 162.657 199.103 163.124 199.732C162.265 198.587 163.389 198.473 162.669 198.046C161.48 197.563 160.231 197.241 158.956 197.089C155.584 196.372 152.086 195.982 148.676 195.529C142.85 194.793 136.98 194.453 131.108 194.51C119.362 194.51 106.518 197.14 95.3029 200.373C94.7977 200.524 95.0755 201.028 95.5176 200.927Z" fill="#668632"/>
<path d="M91.1731 183.84C92.6056 183.003 93.9622 182.043 95.2272 180.971C97.4753 179.474 99.9633 178.392 102.199 176.907C104.793 175.14 107.608 173.719 110.572 172.68C113.098 171.799 115.624 171.925 118.15 171.157C118.237 171.141 118.316 171.095 118.372 171.028C118.429 170.96 118.46 170.874 118.46 170.786C118.46 170.698 118.429 170.612 118.372 170.545C118.316 170.477 118.237 170.431 118.15 170.415H117.998C117.468 170.239 116.66 170.83 117.405 171.145C113.427 169.434 106.48 173.007 103.07 175.171C101.087 176.429 99.1676 177.688 97.1343 178.87C94.9115 180.128 92.9791 182.255 90.731 183.375C90.2385 183.626 90.731 184.067 91.1604 183.891L91.1731 183.84Z" fill="#668632"/>
<path d="M51.7817 162.312C52.4005 162.538 52.6405 163.155 53.1583 163.495C53.5526 163.725 53.9779 163.899 54.4213 164.01C54.8692 164.08 55.2987 164.238 55.6842 164.476C56.4041 165.093 56.0253 165.734 55.8737 166.401C55.6449 167.112 55.5423 167.857 55.5706 168.603H56.8335V168.452C56.7578 167.886 55.7348 167.886 55.659 168.452V168.603C55.5832 169.169 56.7704 169.169 56.922 168.603C57.0735 168.037 57.0104 167.534 57.0609 166.98C57.1114 166.426 57.3261 165.986 57.3387 165.495C57.3512 165.141 57.2553 164.791 57.0635 164.492C56.8718 164.193 56.5934 163.959 56.2652 163.822C55.419 163.369 54.4087 163.394 53.6509 162.765C53.1457 162.362 52.8931 161.947 52.2111 161.859C51.8701 161.859 51.4028 162.224 51.8954 162.387L51.7817 162.312Z" fill="#668632"/>
<path d="M59.0693 97.6892L58.8799 97.8024L60.1428 98.4819C62.1636 95.2985 64.1464 93.7635 68.0616 94.7072C68.8734 95.011 69.7234 95.2015 70.5875 95.2734C71.566 95.2629 72.5293 95.0309 73.4045 94.595C74.2797 94.159 75.0439 93.5305 75.6394 92.7569C78.2537 89.7498 80.0977 85.6353 84.6317 88.0134C87.0819 89.2716 85.3769 89.2716 87.9407 89.5862C93.6366 90.1901 98.398 84.0751 104.359 88.9822C106.228 90.5173 107.188 93.2099 109.411 94.5059C111.068 95.2486 112.874 95.6016 114.69 95.5376C117.216 95.7264 119.477 94.6065 121.371 97.4375C122.154 98.5951 121.978 99.954 122.634 101.112C123.038 101.854 124.87 101.577 124.428 100.747C123.001 98.0541 123.847 96.7455 120.828 94.9966C116.711 92.6059 112.404 95.2482 108.615 91.5868C106.456 89.5233 105.635 87.4598 102.616 86.2267C98.0697 84.3771 95.67 86.4029 91.3759 87.6485C87.3597 88.8187 87.587 87.6485 84.9727 86.2141C83.7568 85.5872 82.3763 85.3499 81.0198 85.5346C79.6634 85.7193 78.3974 86.317 77.3949 87.2459C74.3007 90.0391 74.0607 93.9271 68.9457 93.537C67.4554 93.4238 66.9123 92.6688 65.3083 92.7066C61.8478 92.7947 60.067 95.1476 58.6652 98.0541C58.362 98.6958 59.6124 98.8971 59.9281 98.5951L60.0797 98.4441C60.7996 97.8024 59.5745 97.3369 59.0188 97.6892H59.0693Z" fill="#668632"/>
<path d="M40.2256 105.465C40.2564 106.895 40.6944 108.287 41.4885 109.479C42.2842 110.586 43.5472 111.353 44.4313 112.41C44.9238 113.002 45.6942 113.744 44.987 114.272C44.2797 114.801 43.724 114.109 43.0041 114.096C41.9937 114.096 41.5643 114.7 41.5391 115.669C41.5138 116.638 43.1809 116.474 43.2441 115.669C43.2441 115.115 42.6378 115.594 43.4083 115.669C43.6332 115.689 43.8567 115.723 44.0776 115.77C44.7809 115.87 45.4977 115.809 46.1742 115.594C47.1972 115.178 47.2603 114.335 46.8561 113.379C46.2739 112.261 45.4603 111.279 44.4691 110.498C43.5308 109.772 42.749 108.864 42.1706 107.83C41.8084 107.05 41.5085 106.242 41.2738 105.415C41.1602 105.012 40.2887 105.075 40.2761 105.515L40.2256 105.465Z" fill="#668632"/>
<path d="M135.643 108.133C136.708 107.209 138.029 106.63 139.432 106.472C140.695 106.371 141.831 106.799 143.018 106.61C143.966 106.472 145.456 105.893 145.014 104.723C144.938 104.6 144.832 104.499 144.706 104.429C144.58 104.359 144.438 104.323 144.294 104.323C144.15 104.323 144.008 104.359 143.882 104.429C143.756 104.499 143.65 104.6 143.574 104.723C143.107 105.868 141.591 105.339 140.682 105.289C139.923 105.255 139.162 105.322 138.421 105.49C136.977 105.722 135.68 106.508 134.809 107.68C134.468 108.145 135.327 108.359 135.63 108.133H135.643Z" fill="#668632"/>
<path d="M82.0927 137.374C83.0116 136.753 83.7762 135.931 84.3281 134.971C84.8572 133.531 85.0136 131.982 84.7828 130.466C84.7828 129.56 82.9136 129.56 82.9136 130.466C82.9136 132.026 83.2167 133.612 82.2948 134.996C81.8906 135.612 80.6024 136.254 81.0318 137.185C81.0875 137.269 81.1596 137.34 81.2438 137.395C81.328 137.45 81.4226 137.488 81.5217 137.505C81.6209 137.523 81.7226 137.52 81.8208 137.498C81.9189 137.475 82.0114 137.433 82.0927 137.374Z" fill="#668632"/>
<path d="M92.0958 130.541C91.9898 130.952 91.9641 131.379 92.02 131.8C92.0803 132.629 92.2372 133.448 92.4873 134.241C92.6846 134.894 93.0109 135.501 93.4471 136.027C93.8287 136.602 94.2508 137.148 94.7101 137.663L96.1499 136.87L95.9857 136.757C95.4426 136.392 94.1165 136.682 94.6217 137.512L94.7101 137.663C95.1521 138.405 96.9455 137.764 96.2888 136.996C95.4022 136.044 94.7191 134.923 94.2807 133.7C94.0786 132.92 94.0281 132.089 93.826 131.334C93.7064 131.036 93.5584 130.749 93.384 130.479C93.3193 130.369 93.227 130.278 93.1163 130.215C93.0055 130.152 92.8801 130.119 92.7525 130.119C92.6249 130.119 92.4995 130.152 92.3887 130.215C92.278 130.278 92.1857 130.369 92.121 130.479L92.0958 130.541Z" fill="#668632"/>
<path d="M83.255 133.649C84.4296 134.794 86.6776 134.769 88.2058 134.794C89.734 134.819 92.9546 135.373 93.9902 133.737C94.4701 132.97 93.1061 132.706 92.7272 133.184C91.8558 134.102 89.4562 133.7 88.269 133.725C86.8614 133.892 85.434 133.711 84.1138 133.196C83.8486 133.058 82.8509 133.196 83.3182 133.649H83.255Z" fill="#668632"/>
<path d="M48.2075 159.569V159.707C48.3085 160.211 49.1799 160.034 49.3568 159.707C52.8804 153.416 52.4384 144.042 53.1457 137.059C53.9034 128.994 53.8529 120.878 54.1308 112.813C54.2192 110.221 53.0699 109.353 56.341 109.554C57.146 109.683 57.909 110 58.5675 110.479C59.226 110.958 59.7614 111.585 60.1299 112.31C61.3928 115.116 60.6729 116.726 62.8957 119.393C65.548 122.552 70.8651 126.037 74.9823 123.168C75.9295 122.501 74.3635 121.709 73.7194 122.212C68.1118 126.138 61.4812 115.518 62.239 111.316C62.239 111.051 61.9864 110.812 61.7843 110.737C59.852 109.982 55.179 105.704 53.032 107.541C50.8849 109.378 52.0342 117.015 52.0342 119.532C52.0458 125.874 51.7085 132.213 51.0239 138.519C50.7587 141.035 50.6955 143.552 50.3419 146.143C49.8746 149.553 47.9549 156.574 49.3189 159.393C49.0915 158.927 48.0559 159.015 48.2075 159.619V159.569Z" fill="#668632"/>
<path d="M106.872 123.848L106.392 124.15C106.051 124.364 106.317 124.766 106.645 124.804C108.552 125.03 110.143 123.546 111.52 122.288C113.655 120.513 114.046 118.689 114.324 115.996C114.707 113.488 114.264 110.923 113.061 108.686C111.495 106.17 109.449 106.383 107.289 104.798C106.809 104.446 105.534 104.798 106.026 105.49C106.67 106.409 107.428 106.245 108.476 106.748C111.204 108.007 112.265 110.221 112.581 113.04C112.703 114.657 112.597 116.283 112.265 117.871C111.747 120.954 109.07 121.872 107.491 124.162C107.756 123.76 107.074 123.634 106.822 123.797L106.872 123.848Z" fill="#668632"/>
<path d="M101.151 105.868C95.6692 105.868 93.8001 111.92 94.1789 116.449C94.2403 117.638 94.6116 118.789 95.2561 119.791C95.9006 120.793 96.7961 121.61 97.8542 122.162C99.4076 122.967 101.289 123.772 102.552 122.162C103.209 121.331 101.492 120.903 100.961 121.495C99.6981 122.866 96.667 118.752 96.4397 118.148C95.9924 116.605 95.9274 114.978 96.2502 113.404C96.5786 110.259 97.8668 107.541 101.302 106.61C101.896 106.446 101.744 105.83 101.151 105.83V105.868Z" fill="#668632"/>
<path d="M80.0089 120.085C84.5682 115.053 81.2719 106.371 75.4244 103.728C74.0263 103.09 72.4966 102.791 70.9601 102.854C69.4236 102.918 67.9239 103.342 66.5836 104.093C64.5376 105.352 60.2688 108.057 60.4583 110.812C60.4583 111.693 62.1885 111.681 62.2769 110.812C62.4664 109.139 65.8132 106.509 67.1646 105.566C68.5362 104.704 70.1373 104.275 71.7577 104.336C73.3782 104.396 74.9424 104.943 76.2453 105.905C78.2425 107.505 79.6061 109.758 80.094 112.264C80.5818 114.77 80.1624 117.367 78.9102 119.595C78.5187 120.199 79.6174 120.425 79.9711 120.035L80.0089 120.085Z" fill="#668632"/>
<path d="M94.5333 116.261C93.9933 116.256 93.4555 116.193 92.9293 116.072C92.3483 115.934 92.0831 115.493 91.6663 115.065C91.0138 114.147 90.147 113.4 89.1404 112.889C87.5561 112.313 85.8266 112.269 84.2148 112.763C83.6268 112.902 83.0583 113.113 82.5225 113.392C82.333 113.53 82.2699 113.782 82.1183 113.958C81.9922 114.07 81.857 114.171 81.7142 114.26C81.4889 114.459 81.3155 114.709 81.209 114.99V114.864" fill="white"/>
<path d="M82.5856 113.883C83.015 113.883 83.015 113.367 82.5856 113.367C82.1562 113.367 82.1436 113.883 82.5856 113.883Z" fill="#668632"/>
<path d="M95.1264 115.858C92.8531 115.594 92.0322 113.681 90.2767 112.712C89.1194 112.191 87.8708 111.9 86.6014 111.857C85.4213 111.711 84.225 111.935 83.1788 112.498C82.1684 113.115 81.9158 114.499 80.7918 114.927C80.0214 115.216 80.7918 115.87 81.4106 115.694C82.421 115.355 82.5726 114.562 83.2798 113.857C84.6817 112.423 87.1445 112.498 88.9 113.203C90.3272 113.769 90.9713 115.153 92.31 115.808C93.1683 116.183 94.089 116.396 95.0254 116.437C95.4422 116.437 95.6064 115.908 95.1264 115.858Z" fill="#668632"/>
<path d="M85.5151 153.618C84.9847 153.366 84.3658 152.976 83.9238 153.618C83.7337 154.412 83.7337 155.239 83.9238 156.033C84.3279 157.292 85.6667 156.826 85.8814 155.706C86.0961 154.586 85.5277 154.209 84.6184 154.209" fill="#668632"/>
<path d="M86.8413 169.157C85.3763 169.471 86.2603 172.529 87.3717 172.806C88.4831 173.082 88.7105 171.749 88.5337 170.893C88.4989 170.675 88.4207 170.465 88.3036 170.277C88.1864 170.089 88.0328 169.926 87.8517 169.798C87.4475 169.509 86.8287 169.572 86.5129 169.157" fill="#668632"/>
<path d="M78.6322 69.9324C78.2154 64.5346 76.9398 59.2626 76.1062 53.9277C75.1969 47.6365 75.6894 41.1441 75.4495 34.8152C75.0706 24.4222 73.8581 13.8153 74.0602 3.44745C74.0602 2.93158 72.9867 2.93158 72.9741 3.44745C72.6457 13.8027 73.9592 24.4222 74.3381 34.8152C74.5528 40.4772 74.1739 46.2651 74.717 51.9019C75.2853 57.9666 77.1797 63.8426 77.7481 69.9324C77.7481 70.335 78.6069 70.3225 78.5816 69.9324H78.6322Z" fill="#668632"/>
<path d="M94.9367 71.5935C96.5026 59.8527 97.2495 48.0179 97.1721 36.1742C97.1721 25.0137 99.5339 13.6267 97.8668 2.46622C97.7657 1.78677 96.3386 1.77419 96.4143 2.46622C97.6773 13.7903 95.7829 24.9131 95.7702 36.1742C95.7702 48.0394 94.722 59.7661 94.0273 71.5935C94.0273 72.0338 94.8862 72.0212 94.9367 71.5935Z" fill="#668632"/>
<path d="M70.7887 114.675C70.6898 114.576 70.5844 114.483 70.473 114.398C70.3047 114.422 70.1395 114.465 69.9804 114.524C69.7179 114.602 69.4733 114.73 69.2605 114.902C68.8187 115.308 68.4586 115.795 68.1996 116.336C68.0314 116.572 67.9349 116.852 67.9218 117.141V118.399C67.8431 118.853 67.8756 119.318 68.0163 119.756C68.157 120.195 68.4019 120.592 68.7301 120.916C68.8294 121.102 68.9677 121.264 69.1354 121.392C69.3032 121.52 69.4966 121.611 69.7025 121.658C70.1138 121.774 70.5382 121.838 70.9655 121.847C71.7373 121.736 72.4797 121.476 73.1504 121.08C73.576 120.875 73.9521 120.582 74.253 120.219C74.5539 119.856 74.7723 119.433 74.8933 118.978C74.925 118.597 74.925 118.214 74.8933 117.833C74.9376 117.617 74.9376 117.395 74.8933 117.179C74.8176 116.978 74.5397 116.827 74.4008 116.676C74.067 116.37 73.7548 116.042 73.4662 115.694C73.2493 115.432 72.9988 115.199 72.721 115.002C72.5728 114.833 72.3979 114.688 72.2032 114.574C71.7646 114.443 71.3173 114.342 70.8645 114.272C70.4084 114.146 69.936 114.086 69.4626 114.096" fill="#668632"/>
<path d="M105.104 115.254C104.787 115.211 104.465 115.233 104.157 115.317C103.95 115.452 103.752 115.599 103.563 115.757C103.143 116.079 102.827 116.517 102.654 117.016C102.498 117.413 102.454 117.846 102.525 118.266C102.596 118.687 102.78 119.081 103.058 119.406C103.804 120.065 104.753 120.451 105.748 120.501C106.405 120.501 107.731 121.017 108.186 120.224C108.275 119.788 108.275 119.339 108.186 118.903C108.205 118.36 108.141 117.817 107.996 117.292C107.855 116.822 107.556 116.413 107.15 116.135C106.906 115.844 106.6 115.612 106.253 115.455C105.842 115.278 105.421 115.126 104.99 115.002C104.738 115.002 103.727 115.002 103.791 115.418" fill="#668632"/>
<path d="M67.164 143.287L66.5578 143.564C66.5108 143.579 66.468 143.605 66.4327 143.639C66.3975 143.673 66.3709 143.716 66.3549 143.762C66.3389 143.809 66.3341 143.858 66.3408 143.907C66.3476 143.955 66.3656 144.002 66.3936 144.042C69.8667 149.528 81.3976 147.616 86.5379 147.238C91.7233 147.028 96.9172 147.221 102.072 147.817C103.866 147.968 105.432 148.157 106.404 146.559C106.783 145.917 105.318 145.615 104.977 146.118C103.828 147.792 99.9253 146.118 98.3719 145.98C94.8782 145.628 91.3577 145.628 87.864 145.98C84.4161 146.269 81.0314 146.332 77.5582 146.357C77.293 146.357 65.8 145.363 67.606 143.765C67.9218 143.489 67.4292 143.224 67.164 143.35V143.287Z" fill="#668632"/>
</svg>
