<?xml version="1.0" encoding="utf-8"?>
<!-- Generator: Adobe Illustrator 26.0.0, SVG Export Plug-In . SVG Version: 6.00 Build 0)  -->
<svg version="1.1" id="Layer_1" xmlns="http://www.w3.org/2000/svg" xmlns:xlink="http://www.w3.org/1999/xlink" x="0px" y="0px"
	 viewBox="0 0 116.4 170.1" style="enable-background:new 0 0 116.4 170.1;" xml:space="preserve">
<style type="text/css">
	.st0{fill:#668632;}
</style>
<path class="st0" d="M60.8,80.6c-3.1,1-2.9,3.5-2.1,6.4c1,3.5,4,4.4,6,7.1c1.1,1.6,1.6,3.1,3,4.4c3,2.8,4.4,1.7,6.3,4.4
	c0.6,0.9,2.8,3.8,2.4,4.4s-3.6,0.3-4.8,0.2c-0.2,0-0.5,0.2-0.3,0.4c-0.2-0.2,1.2,1.7,1.2,1c0.1,5.5-1,2-2.2,2.8
	c-3.8,2.3-8-0.5-10.8-2.9c-1.1-0.9-3.3-4.5-5.1-4.7c-1.2-0.1-0.7,0.1-1.2,1.1c-0.2,0.9-0.2,1.8-0.2,2.6c-0.2,1.7-0.7,3.4-1.6,4.9
	c-1.3,2.5-3.3,4.3-4.9,6.6c-2.3,3.3-1.8,6.6-2,10.2c-0.1,3.3,0.8,6.6,0.6,10c-0.2,4.2,1,8.3,1.3,12.5c0.2,1.8,0.2,5.2,1.6,6.5
	c-0.6-0.5,4.7,2.3,2.5,0.9c1.1,0.7,1.8,2,2.7,2.8c1.3,1.2,4.3,2.2,5.1,3.9c1.8,3.9-2.2,1.9-4.2,2c-1.1,0.1-2.5,0.4-3.5,0.4
	c-3.3,0.3-6.7,0-9.8-1c-1.1-0.3-2.2-0.5-3.3-0.6c-0.5-0.1-1.2,0.3-1.6,0.2c-5.2-1.5-2.3-3.5-1.8-6c0.4-2.8,0.1-5.7-0.9-8.4
	c-1.1-3.4-0.7-5.3-0.3-8.7c0.3-2.5,0.3-5-0.1-7.4c-0.4-2.2-1.2-7.2-2.9-8.6s-0.4,0.4-2.2-0.3c-3.1-1.4-1.4-7.3-1.7-10.2
	c-0.4-3.9-1.5-6.8,0-10.8c1.1-3,2-6.9,3.7-9.5s5.2-5.9,4.4-9.6c-0.8-3.6-4.7-6.4-6.1-9.8c-0.7-1.7-3.4-6.8-0.5-7.2
	c0.8-0.1,1.9,0.9,2.9,0.8c0.2,0,0.3-0.1,0.3-0.3c0.8-4.4,5.4,4,5.4,4.2c0.7,1.4,0.5,3.7,1.3,4.9c0.5,1,1.6,1.4,2.6,1
	c1.7-1,3.1-2.5,4-4.2c0.2-1.4-0.4-2.8-1.5-3.7c-1.1-1-3.2-0.6-4.5-1.8c-2-2-3.2-6.2-3.9-8.8c-1.5-5.4-0.7-9.8,0.1-15.2
	c0.3-2.4-2-6.3-0.8-8.4c0.9-1.6,4,0.9,5.8,0.7c0.2,0,0.5-0.1,0.5-0.3c0.1-0.5,0.1-0.9,0-1.4c-0.3-1.6-0.1-1.9,0.6-0.9
	c0.2,0,0.3,0.9,0.6,0.9c0.8,0.1,1.5,0.1,2.3-0.1c2.2-0.4,4.1-1.4,6.5-1.5c1.8,0.1,3.6,0.3,5.4,0.7c3.8,0.6,9.4,1.9,12.7,4.3
	c2.8,2.1,4.6,5.2,6.4,8.1c1,1.4,1.8,2.8,2.5,4.4c0.2,0.6,0.3,2.9,0.7,3.3c1,1.1,3.9,0.4,4.8-0.5c0.4-0.3-0.1-0.6-0.4-0.6l-0.4,0.1
	c-0.3,0.1-0.5,0.5-0.1,0.6c3.6,1.2-2.2,5.7-3.2,6.5c-1.9,1.5-4,2.9-5.1,5.1c-1,2-0.9,4.4-1.8,6.5c-1.4,3.2-6.5,5.6-10.2,5.6
	c-0.6,0-0.6,0.7,0,0.7c5.2,0,10.3-2.6,11.8-7.8c0.7-2.1,0.5-4.1,1.9-6c1.6-2.1,4.1-3.2,6-5c1.5-1.4,3-3.7,2.2-5.7
	c-0.1-0.2-0.3-0.3-0.4-0.2c-1.4,0-3.1,1-4.3-0.4c-0.5-0.6-0.7-2-1-2.8c-0.9-1.7-1.8-3.4-2.9-5c-2.2-3.4-4.4-6.7-8.2-8.5
	c-4-1.9-8.4-3.1-12.8-3.5c-2.3-0.3-4.6-0.3-6.9,0.1c-2.8,0.6-4.7,1-6.9-1.3c-0.2-0.2-0.9-0.3-0.9,0.2c0,1.4,0.5,3.2-0.6,3.8
	c-0.9,0.5-3-1.5-3.8-1.6s-0.8-0.6-1.6,0.1c-1.1,0.9-0.3,4.3-0.1,5.5c0.2,1.3,0.8,2.2,0.7,3.7c-0.1,1.7-0.9,3.5-1.1,5.2
	c-0.6,6.2,0.7,16.5,5.7,21c1.9,1.7,5,0.1,4.3,3.7c-0.3,1.8-0.8,3.2-2.9,3c-1.8-0.2-1.7-2.4-2.6-4.1c-1.2-2.5-3.2-6.9-6.5-5.9
	c-0.4,0.1-0.3,1.2-0.5,1.2c-1.1,0.5-1.9-0.8-2.8-0.7c-0.7,0.1-1.4,0.5-1.7,1.2c-0.9,1.9,0.8,4.7,1.5,6.3c0.5,1.4,1.1,2.8,1.8,4.2
	c0.7,0.9,1.5,1.8,2.3,2.6c2.7,3.5,1.8,7.1-0.7,10.6s-3.1,6.6-4.7,10.5c-1.4,3.4-2,5.4-1.3,9c0.5,2.8,0.7,5.7,0.7,8.5
	c0,1.2-0.7,4,0.2,5c0.7,0.7,1.2,0.4,2.1,0.6c2.6,0.6,2.5,1.2,3.2,3.6c0.8,2.4,1.3,5,1.5,7.5c0.1,3.7-1.5,7.5-0.6,11.1
	c0.8,3.3,2.1,5.9,1.8,9.5c-0.2,2.1-2.4,5.1-0.8,7.1c1.3,1.7,2.9,0.8,4.7,0.8c3.5,0,7,1.4,10.6,1.6c1.4,0.1,2.7,0.1,4.1,0.2
	c1.2,0,9.2,0.7,8.6-2.6c-0.3-2.1-4.4-3.6-5.8-4.8c-1.7-1.5-3.2-2.8-5-4.2c-2.6-2-1.8-5.7-2.3-8.9c-0.7-4-1-8-0.9-12
	c0.1-2-0.9-3.6-1-5.6c0-1.4,0.6-1.7,0.9-3c0.4-1.8-0.8-3.5-0.5-5.3c0.4-2.8,2.5-4.9,4.2-7c0.9-1,1.7-2.2,2.3-3.4
	c1-1.9,0.9-4.1,1.8-5.9s0.7-1.4,2.2-0.5s2.3,2.4,3.5,3.6c1.7,1.9,4.1,3,6.6,2.9c1.7,0,5.9,0.1,7-1.2c0.5-0.6,0.4-3.8-0.4-3.2
	c0.6,0.2,1.2,0.5,1.8,0.8c0.9,0.1,1.8-0.1,2.7-0.4c0.1,0,0.2-0.1,0.2-0.2c0-3.3-4-8-6.6-9.9c-1.8-1.3-3.6-1.8-5.1-3.9
	c-0.5-0.6-0.8-1.4-1.4-2.1c-0.9-1-2.2-1.7-3.1-2.6c-1.6-1.6-4.7-7.9-0.3-9.3C61.5,80.9,61.1,80.5,60.8,80.6z"/>
<path class="st0" d="M74.1,124.9c-3.1,0.2-6.1,1.4-9,2.4c-1,0.2-1.9,0.9-2.2,1.9c-0.2,1.3-0.1,2.6,0.3,3.8c0.2,0.8,0.5,1.6,0.8,2.4
	c0.3,0.8,0.4,1.5,0.6,2.3c0.3,1.4,0.9,2.8,1.6,4.1c0.7,1.4,1.6,2.8,2.6,4c0.4,0.4,0.8,0.7,1.2,1c0.7,0.5,1.1,1.3,1.7,1.9
	c2.2,2,5,3.1,7.9,3.3c3.1,0,6.2-0.5,9.1-1.4c1.5-0.4,3.2-0.6,4.7-1.1c1.3-0.6,2.5-1.5,3.5-2.5c0.4-0.4,1.1-0.7,1.3-1.3
	c0.1-0.4,0.2-0.8,0.1-1.1c0.1-1.3,1.4-2.6,2-3.8c0.5-1.3,0.7-2.7,0.7-4.1c0.1-0.9,0.1-1.7,0-2.6c0-1.1-0.3-2.1-0.3-3.1
	c0.2-0.8,0.2-1.6,0.2-2.4c-0.1-0.5-0.3-0.9-0.6-1.3c-0.6-0.6-1-1.4-1.2-2.3c0-0.7-0.2-1.4-0.6-1.9c-0.8-0.7-1.7-1.1-2.7-1.2
	c-0.5-0.2-1.1-0.2-1.7-0.2c-0.7,0.1-1.4,0.5-2.1,0.6c-1.7,0.1-1.3-1.8-2.2-2.7c-0.6-0.6-1.3-1.1-2-1.7c0.2,0.2-0.6-0.5-0.5-0.5
	c-0.3-0.5-0.1-0.7,0.2-1.1c0.4-0.4,0.5-1,0.3-1.6c-0.3-0.8-1.2-1.2-2-1.1c-0.7,0.1-1.3,0.3-1.9,0.5c-0.6,0.2-1.3,0.4-2,0.4
	c-0.6-0.2-0.5-1-0.6-1.4c-0.2-0.7-0.5-1.5-0.8-2.2c-0.5-1.3-1-2.6-1.8-3.8c-0.7-0.9-1.5-0.9-2.6-0.9c-0.9-0.1-2-0.3-2.7,0.5
	s0.2,0.9,0.8,1.4c1.6,1.4,2.8,3.2,3.6,5.2c0.1,0.2,0.7,1.7,0.5,1.9s-1,0.2-1.3,0.2c-1.1,0.2-5.5,2.2-3,3.4c0.2,0.1,0.5,0.2,0.7,0.2
	c1.1,0.3,0.9,0.8,0.4,1.7c-0.3,0.5-0.6,1.1-0.8,1.7c-0.4,0.8-0.4,1.7-0.3,2.6c0.2,1,0.4,2,0.7,3c0.1,0.7,0.4,1.4,0.8,2.1
	c0.2,0.1,0.6,0,0.4-0.2c-0.3-0.4-0.5-1-0.6-1.5c-0.3-0.9-0.5-1.8-0.7-2.7c-0.2-0.6-0.3-1.2-0.3-1.8c0.2-1.3,1-2.4,1.6-3.5
	c0.3-0.4,0.3-1-0.1-1.4c-0.3-0.2-0.7-0.3-1-0.3c-0.4-0.1-1.1-0.3-1.1-0.8s0.8-1,1.2-1.3c0.7-0.5,1.5-0.8,2.3-0.8
	c0.4,0,0.8,0,1.2-0.1c0.4-0.2,0.3-0.5,0.2-1c-0.6-2.4-1.8-4.6-3.5-6.3c-0.2-0.2-1-0.6-1.1-0.9c-0.7-1.2,1.4-1,1.7-1
	c0.5,0,1.1,0,1.6,0.1c1.2,0.3,1.3,1.1,1.8,2.1s1.1,2.3,1.5,3.4c0.2,0.6,0.3,1.2,0.4,1.8c0,0.2,0.1,0.6,0.3,0.8
	c1.1,1,6.6-2.3,6.1,0.7c-0.1,0.6-1,1.3-0.9,1.8c0.1,0.3,0.3,0.4,0.5,0.5c0.6,0.5,1.1,1.1,1.7,1.6c0.5,0.3,0.9,0.8,1.2,1.4
	c0.2,0.4,0.3,0.9,0.5,1.3c0.3,0.5,0.9,0.8,1.4,0.7c0.4-0.1,0.9-0.2,1.3-0.3c0.9-0.3,2-0.3,2.9,0c0.8,0.1,1.5,0.5,2.1,1
	c0.6,0.7,0.4,1.5,0.6,2.2c0.3,1.3,1.7,2.2,1.9,3.5c0,0.7-0.1,1.4-0.3,2.1c0,0.9,0.2,1.8,0.3,2.7c0.1,3,0,6.1-1.7,8.7
	c-0.5,0.6-0.9,1.3-1,2.1c0,0.4-0.1,0.9-0.3,1.3c-0.3,0.3-0.7,0.7-1.1,0.9c-0.5,0.4-1,0.8-1.5,1.2c-1.2,0.9-2.7,1.5-4.2,1.8
	c-1.3,0.3-2.6,0.7-3.9,0.9c-3.1,0.6-6.3,1.6-9.5,0.7c-1.8-0.5-3.5-1.4-5-2.5c-1.1-0.8-1.9-1.9-2.9-2.7c-1.2-1.2-2.1-2.6-2.9-4.1
	c-0.9-1.5-1.5-3.2-1.8-5c-0.3-1.3-0.9-2.5-1.2-3.8c-0.4-1.5-1.1-4.2,0.4-5.3c0.8-0.4,1.6-0.7,2.4-0.9c0.7-0.2,1.3-0.5,2-0.7
	c1.8-0.6,3.6-1.1,5.5-1.4C74.2,125.1,74.2,124.8,74.1,124.9L74.1,124.9z"/>
<path class="st0" d="M78.1,128.1c0-0.1,0-0.2,0-0.3c0-0.2-0.1-0.3-0.1-0.4c0-0.3-0.1-0.6-0.1-1c-0.1-0.6-0.3-1.1-0.3-1.7
	c-0.1-0.2-0.1-0.4,0-0.6c0.1-0.3,0.5-0.2,0.7-0.2c0.3,0,0.6,0,0.9-0.1c0.1,0,0.2,0,0.3-0.1l0.2-0.1c0,0,0.2-0.1,0.1,0
	c0.3,0,0.4-0.4,0.1-0.5c-0.3-0.1-0.6,0-0.8,0.2c-0.1,0.1-0.2,0.1-0.4,0.2c-0.2,0-0.3,0.1-0.5,0.1c-0.5,0-1.1,0.1-1.2,0.8
	c0.1,0.6,0.2,1.2,0.4,1.7c0.1,0.4,0.1,0.8,0.2,1.1c0,0.1,0,0.3,0.1,0.4c0.1,0.2,0.1,0.3,0.1,0.5C77.8,128.3,78.1,128.3,78.1,128.1
	L78.1,128.1z"/>
<path class="st0" d="M84.8,122.3c0.1-0.1,0.3-0.2,0.5-0.3l0.5-0.2c0.4-0.1,0.7-0.2,1.1-0.5c0.2-0.1-0.1-0.3-0.2-0.2
	c-0.3,0.2-0.7,0.4-1.1,0.4c-0.4,0.1-0.7,0.3-1,0.5C84.5,122.3,84.8,122.4,84.8,122.3L84.8,122.3z"/>
<path class="st0" d="M63.3,130.3c0.3,0.5,1.2,0.7,1.7,0.8c1.2,0.1,2.5,0.1,3.7,0c1.3-0.1,2.7-0.3,4-0.5c0.6-0.1,1.2-0.3,1.9-0.4
	c0.2-0.1,0.5-0.1,0.7-0.1c0.2,0,0.3,0.2,0.6,0.1s0.4-0.2,0.6-0.3c0.5-0.2,1-0.3,1.5-0.4c1-0.1,2.1-0.4,3-0.9c2-1.3,0.3-4.4-0.2-6
	c-0.3-0.7-0.5-1.4-0.5-2.2c-0.1-0.8,0-1.5-0.1-2.3c-0.1-0.7-0.2-1.3-0.4-2c-0.1-0.5-0.4-0.9-0.8-1.2c-0.1-0.1-0.5,0-0.4,0.2
	c0.8,0.9,1.3,2.2,1.2,3.4c0,0.7,0,1.5,0.1,2.2c0.1,0.5,0.2,1.1,0.4,1.6c0.4,1.4,1.2,2.7,1.1,4.2c0.1,0.8-0.3,1.6-1.1,2
	c-0.6,0.3-1.3,0.4-2,0.5c-0.5,0.1-1.2,0.1-1.7,0.3l-0.2,0.1c-0.1,0-0.1,0.1-0.2,0.1c-0.2,0.2-0.5,0.2-0.8,0.1
	c-1,0.1-2.1,0.4-3.2,0.6c-1.5,0.2-3,0.6-4.5,0.6c-0.7,0.1-1.5,0.1-2.2,0c-0.4,0-1.4-0.1-1.7-0.6C63.7,130,63.3,130.1,63.3,130.3
	L63.3,130.3z"/>
<path class="st0" d="M75.8,119.5c0.3,0,0.5,0,0.7-0.1l0.2-0.1c0.1,0,0.3,0,0.4,0c0.3,0,0.6-0.1,0.9-0.2c0.1,0,0.3-0.1,0.4-0.1
	c0.1,0,0.3-0.1,0.4-0.1c0.2,0,0.2-0.3,0-0.3c-0.1,0-0.3,0-0.4,0.1c-0.1,0-0.3,0-0.4,0.1c-0.3,0.1-0.7,0.2-1,0.2
	c-0.2,0-0.4,0-0.7,0.1c-0.2,0.1-0.5,0.1-0.7,0.1C75.6,119.3,75.6,119.6,75.8,119.5L75.8,119.5z"/>
<path class="st0" d="M86.4,116.9c-0.6,0.4-1.2,0.7-1.9,0.9c-0.4,0.1-1,0.2-1.3-0.2c-0.2-0.3-0.3-0.7-0.4-1c-0.2-0.4-0.2-1-0.5-1.4
	c-0.2-0.3-0.5-0.7-0.8-1c-0.1-0.1-0.4-0.1-0.4,0.1c0.7,1.5,1.3,3,1.8,4.5c0.6,2,0.9,4,1.1,6c0,0.3,0.1,0.7,0.2,1
	c0.1,0.5,0.1,1,0.2,1.5c0.1,0.4,0.5,0.7,0.9,0.7c0,0,0,0,0.1,0c0.8-0.1,1.6-0.4,2.3-0.6c0.9-0.2,1.8-0.5,2.6-0.8
	c0.8-0.3,1.4-0.4,1.4-1.3c-0.1-1-0.3-1.9-0.7-2.8c0-0.2-0.5-0.1-0.4,0.1c0.3,0.9,0.8,1.9,0.7,2.9c-0.1,0.6-0.9,0.8-1.4,1
	c-0.5,0.2-1.1,0.4-1.6,0.5c-0.9,0.2-1.8,0.5-2.7,0.8s-0.7-0.7-0.7-1.3s-0.3-0.9-0.3-1.4c-0.1-2-0.5-3.9-1-5.8
	c-0.5-1.7-1.2-3.2-1.9-4.9l-0.4,0.1c0.4,0.4,0.7,0.9,0.9,1.5c0.1,0.4,0.3,0.8,0.4,1.1c0.1,0.4,0.2,0.7,0.4,1c0.4,0.4,1,0.2,1.4,0.1
	c0.8-0.3,1.5-0.6,2.1-1.1C86.7,117,86.5,116.9,86.4,116.9L86.4,116.9z"/>
<path class="st0" d="M96.5,123c-0.1,1.2-1.1,1.4-2.1,1.8l-2.1,0.9c-1.5,0.6-3,1-4.6,1.2c-1.5,0.2-2.8,0.9-4.3,1.2
	c-1.8,0.4-3.5,0.8-5.3,1c-0.3,0-0.3,0.4,0,0.3c1.9-0.2,3.8-0.5,5.6-1c0.8-0.2,1.6-0.6,2.5-0.8c1-0.3,2-0.4,3-0.6
	c1.7-0.4,3.3-0.9,4.8-1.6c1.1-0.5,2.8-0.8,2.8-2.4C96.8,122.9,96.5,122.9,96.5,123L96.5,123z"/>
<path class="st0" d="M77.1,130.5c0.1,0,0.3,0.6,0.3,0.6c0,0.3,0,0.5,0,0.8c0,0.3-0.2,0.6-0.6,0.7c-0.3,0.1-0.5,0.2-0.8,0.3
	c-0.3,0.1-0.6,0.2-0.9,0.2c-0.2,0-0.4,0-0.5,0.1c-0.6,0.2-1.2,0.3-1.8,0.3c-0.8,0-1.7,0-1.7,0.9c0,0.5,0,1,0,1.5
	c0,0.3,0,0.5-0.1,0.8c0,0.3,0,0.5,0,0.8c0,0.2,0.3,0.2,0.3,0c0-0.3,0-0.7,0-1c0-0.3,0.1-0.5,0.1-0.8c0-0.5,0-1,0-1.5
	c0.1-0.7,1.1-0.5,1.6-0.5c0.6,0,1.2-0.1,1.7-0.3c0.3,0,0.5-0.1,0.8-0.1c0.3-0.1,0.6-0.1,0.9-0.3c0.4-0.2,0.9-0.2,1.1-0.7
	c0.1-0.2,0.2-0.4,0.2-0.6c0-0.2,0-0.5,0-0.7c-0.1-0.2-0.2-0.4-0.3-0.5c-0.1-0.1-0.2-0.2-0.3-0.1C76.8,130.3,76.9,130.5,77.1,130.5
	L77.1,130.5z"/>
<path class="st0" d="M74.3,123.8c0,0.5,0,0.9,0.1,1.4c0.1,0.5,0.1,0.9,0.1,1.4c0.1,0.4,0.3,0.9,0.5,1.3c0.2,0.5,0.3,1,0.3,1.5
	c0,0.2,0.3,0.2,0.4,0c0-0.5-0.1-0.9-0.2-1.4c-0.2-0.4-0.4-0.9-0.5-1.3c-0.1-0.5,0-0.9-0.1-1.4c-0.1-0.2-0.1-0.5-0.2-0.7
	c0-0.3,0-0.5,0-0.8S74.3,123.7,74.3,123.8z"/>
<path class="st0" d="M98.6,125.7c-0.2,1.1-0.9,1.4-1.8,2c-0.8,0.6-1.7,1.1-2.6,1.5c-0.3,0.1-0.7,0.1-1,0.2c-0.7,0-0.5,0-0.7-0.3
	c-0.2-0.7-0.4-1.5-0.3-2.3c0-0.2-0.4-0.2-0.4,0c0,1.8-0.2,3.6,0,5.3c0.1,0.6,0.2,2.4,1,2.6c0.3,0.1,0.6-0.3,0.8-0.4c1-0.5,2-0.8,3-1
	c0.8-0.2,1.5-0.5,2.2-0.8c0.5-0.3,1-0.6,1.5-0.9l-0.2-0.3c-0.5,0.4-1.3,0.7-1.6,1.3c-0.1,0.8,0,1.6,0.4,2.2c0.4,1.7,0.7,3.5,0.8,5.3
	c0,0.1,0,0.1,0.1,0.1h0.1c0.1,0,0.2,0,0.3-0.1c0.3-0.4,0.4-1,0.1-1.4c-0.1-0.1-0.2-0.1-0.3,0c0,0-0.1,0.1-0.1,0.1
	c0,0.6-0.2,1.1-0.6,1.5c-0.6,0.6-1.3,1-2.1,1.3c-0.7,0.3-0.9,0.4-1-0.3c0-0.5,0.1-1,0.1-1.6c-0.1-1.9,0.5-4.8-1.2-6.2
	c-0.1-0.1-0.3-0.1-0.3,0.1c-0.2,0.6,0.2,0.8,0.4,1.3c0.2,0.8-0.1,1.7-0.8,2.2c-0.7,0.5-2.1,0.5-2,1.8c0.1,0.6,0.3,1.3,0.5,1.9
	c0,0.5,0.2,0.9,0.5,1.3c0.7,0.5,1.7,0.5,2.4-0.1l-0.3-0.2c-0.5,0.4-1.6,0.2-2,0.8c-0.2,0.6-0.2,1.3,0.2,1.8c0.2,0.1,0.4,0.2,0.6,0.1
	c0.6,0.1,1.2,0.1,1.8,0.1c0.7,0.1,1.5-0.1,2.1-0.4c0.2-0.1,0-0.3-0.2-0.3c-1.2,0.1-2.3,0.3-3.5,0.6c-1,0.2-1.8,0.7-2.8,0.9
	c-1.7,0.4-4.7-0.4-3.8,2.5c0.1,0.5,0.6,0.9,1.2,0.8c0,0,0.1,0,0.1,0c1.3-0.2,2.6-0.5,3.9-0.9c0.5-0.2,1.8-0.6,0.7,0.1
	c-0.2,0.2-0.6,0.4-0.9,0.5c-0.9,0.5-1.8,0.8-2.7,0.9c-0.4,0.1-1.1,0.5-0.9-0.4c0.1-0.2,0.2-0.3,0.3-0.5c0.1-0.1-0.1-0.2-0.2-0.2
	h-0.1c-0.3,0-0.3,0.3,0,0.4h0.1l-0.2-0.2c-0.2,0.4-0.8,0.9-0.3,1.3s2-0.2,2.6-0.3c0.9-0.2,1.7-0.6,2.4-1.1c0.4-0.2,1.4-0.5,1.1-1.1
	c0-0.1-0.1-0.1-0.2-0.1c-1.4,0-2.8,0.8-4.1,1c-1,0.1-2.3,0.7-2.3-0.8s1.2-1.3,2.3-1.3c1.1-0.1,2.2-0.4,3.2-0.9
	c1.4-0.5,2.8-0.9,4.3-0.9l-0.2-0.3c-0.5,0.2-1.1,0.3-1.7,0.3c-0.6,0-2.1,0.2-2.3-0.7c-0.3-1.2,1.3-1.1,2-1.6
	c0.2-0.2-0.2-0.3-0.3-0.2l-0.8,0.3l-1.2-0.6c-0.2-0.3-0.2-0.8-0.2-1.1s-0.2-0.6-0.3-0.9c-0.3-0.9-0.1-1.2,0.7-1.7
	c0.3-0.1,0.7-0.3,1-0.5c0.4-0.3,0.7-0.8,0.9-1.3c0.1-0.3,0.1-0.6,0-0.9c-0.1-0.4-0.6-1-0.4-1.4l-0.3,0.1c1.3,1.1,1,3.5,1,5
	c0,0.8,0.1,1.5,0,2.2c0,0.2-0.2,1-0.1,1.2s0.3,0.2,0.6,0.1c0.2-0.1,0.4-0.2,0.6-0.3c0.3-0.1,0.7-0.2,1.1-0.4
	c0.6-0.3,1.2-0.7,1.7-1.3c0.4-0.4,0.6-1,0.6-1.5h-0.4c0,0.1,0,0.1,0,0.2c-0.2,0.4-0.2,0.7,0.1,0.8c0-0.2,0-0.5-0.1-0.7
	c-0.1-0.7-0.2-1.4-0.3-2.2c0-0.9-0.2-1.7-0.4-2.5c-0.3-0.5-0.4-1.1-0.3-1.7c0.2-0.7,0.9-1,1.4-1.4c0.2-0.1-0.1-0.3-0.2-0.3
	c-0.3,0.1-0.7,0.3-0.9,0.5c-0.5,0.3-1.1,0.6-1.7,0.8c-1.2,0.5-2.7,0.6-3.9,1.2c-0.1,0.1-0.4,0.4-0.6,0.4c-0.4,0.1-0.3,0-0.5-0.4
	c-0.3-0.8-0.5-1.7-0.4-2.6c0-1.5,0-3,0-4.4h-0.4c0,0.7,0,2.3,0.4,2.8s1.4,0.2,1.9,0.1c1.1-0.3,2.1-0.8,3-1.5c1-0.6,1.8-1,2-2.3
	C98.9,125.5,98.6,125.5,98.6,125.7L98.6,125.7z"/>
<path class="st0" d="M87.4,133.9c0.3-0.1,0.7-0.1,0.9-0.4c0.2-0.3,0.2-0.7,0.2-1c0-0.5-0.2-1-0.3-1.5c-0.1-0.3-0.4-0.5-0.7-0.5
	c-0.3-0.1-0.7,0-1,0.1c-0.2,0.1-0.4,0.2-0.7,0.3c-0.3,0.1-0.6,0.2-0.9,0.3c-0.5,0.1-0.9,0.3-1.4,0.5c-0.6,0.2-1.2,0.3-1.9,0.2v0.3
	c0.6,0,1.2-0.1,1.7-0.2c0.5,0,1.1-0.1,1.6-0.2c0.9-0.2,2-0.3,2.6-1c0.3-0.3,0.4-0.6,0.4-1c-0.1-0.4-0.1-0.9-0.2-1.4
	c-0.2-0.8-1.3-0.1-1.8,0c-0.6,0.2-1.2,0.4-1.8,0.5c-0.5,0-1,0.1-1.5,0.3c-0.3,0.1-0.6,0.2-0.9,0.3c-0.2,0.1-0.5,0.1-0.7,0.1
	s-0.5,0.2-0.5,0.6c0,0.3,0,0.6-0.1,0.8c-0.1,0.2-0.2,0.4-0.3,0.6c-0.2,0.5-0.3,1.1-0.3,1.7c0,0.4,0.1,0.8,0.2,1.2
	c0.1,0.3,0,0.6,0.4,0.6c0.2,0,0.5-0.1,0.7-0.1c0.3-0.1,0.7-0.1,1-0.1c0.6-0.2,1.2-0.3,1.8-0.3c0.5,0,1.1-0.1,1.5-0.3
	c0.3-0.2,0.7-0.3,1.1-0.3C86.8,134,87.1,134,87.4,133.9c0.2,0,0.1-0.2-0.1-0.1c-0.4,0.1-0.9-0.1-1.3,0c-0.4,0.1-0.8,0.3-1.2,0.4
	c-0.4,0.1-0.9,0.1-1.3,0.1c-0.4,0.1-0.8,0.1-1.2,0.2c-0.4,0.1-0.8,0-1.2,0.2c-0.2,0.1-0.5,0.3-0.6,0s-0.1-0.3-0.1-0.5
	c-0.1-0.4-0.2-0.8-0.1-1.2c0-0.5,0.2-1,0.4-1.4c0.2-0.3,0.3-0.6,0.4-1c0-0.2-0.1-0.5,0.1-0.6s0.5-0.1,0.7-0.2
	c0.4-0.1,0.8-0.2,1.1-0.4c0.3-0.1,0.5-0.2,0.8-0.2c0.2,0,0.5,0,0.7,0c0.5-0.1,0.9-0.3,1.4-0.4s0.8-0.2,1.3-0.4
	c0.2-0.1,0.3-0.1,0.4,0.1c0,0.1,0.1,0.3,0.1,0.4c0.1,0.4,0.3,1,0,1.4c-0.6,1-1.7,1-2.7,1.3c-0.5,0.1-1,0.2-1.4,0.2
	c-0.6,0.1-1.2,0.2-1.8,0.2c-0.2,0-0.2,0.3,0,0.3c0.8,0,1.6-0.1,2.4-0.4c0.4-0.1,0.7-0.3,1.1-0.4c0.4-0.1,0.8-0.2,1.2-0.4
	c0.4-0.2,0.9-0.3,1.3-0.1c0.4,0.2,0.4,0.7,0.5,1.1c0.1,0.4,0.2,0.8,0.1,1.2c0,0.2-0.1,0.4-0.2,0.5c-0.2,0.1-0.4,0.2-0.6,0.3
	C87.1,133.7,87.3,133.9,87.4,133.9z"/>
<path class="st0" d="M92.6,134.3c-0.1,0.4-1,0.8-1.3,1c-0.4,0.2-0.9,0.4-1.4,0.5c-1.2,0.1-0.6-1.8-1-2.5c-0.3-0.4-0.8-0.4-1.2-0.2
	c-0.7,0.1-1.3,0.4-1.9,0.8c-0.4,0.5-0.6,1.2-0.6,1.8c-0.1,1-0.1,1.9,0,2.9c0.1,0.6,0.5,0.5,1,0.5c0.4-0.1,0.8-0.1,1.2-0.1
	c0.4,0,0.9,0,1.3,0.1c0.4,0.2,0.4,0.3,0.5,0.7s0.1,0.7,0.2,1.1c0.1,0.5,0.2,1,0.3,1.5c0.4,1.1,0.7,2.3,0.8,3.5c0,0.2,0.4,0.2,0.4,0
	c-0.1-0.9-0.3-1.8-0.6-2.6c-0.3-1.1-0.5-2.2-0.7-3.2c-0.1-0.6-0.1-1.4-0.9-1.5c-0.4-0.1-0.8,0.1-1.2,0c-0.3-0.1-0.6-0.1-0.9,0
	c-0.3,0.1-0.9,0.2-1-0.1c0-0.2-0.1-0.5-0.1-0.7c0-0.3,0-0.6,0-0.9c0-0.8-0.1-2.1,0.4-2.9c0.4-0.4,0.9-0.6,1.4-0.7
	c0.5-0.2,1.2-0.3,1.3,0.5c0.1,0.6,0,1.6,0.5,2s1.2,0,1.7-0.2c0.5-0.2,1-0.5,1.4-0.8c0.3-0.2,0.6-0.4,0.7-0.7
	C93,134.2,92.7,134.2,92.6,134.3L92.6,134.3z"/>
<path class="st0" d="M85.8,136.1c0.2,0.1,0.4,0.2,0.7,0.2h0.9c0.3,0,0.7,0,1,0c0.1,0,0.3-0.1,0.4-0.2c0.2-0.1,0.3,0,0.5,0
	c0,0,0.1,0,0.1-0.1V136c0-0.2-0.3-0.2-0.3,0v0.1l0.1-0.1c-0.1,0-0.3,0-0.4,0c-0.1,0-0.2,0.1-0.3,0.1c-0.3,0.1-0.6,0.1-0.9,0
	c-0.3,0-0.6,0-0.8,0c-0.2,0-0.5,0-0.7-0.1C85.9,135.8,85.7,135.9,85.8,136.1L85.8,136.1z"/>
<path class="st0" d="M89.1,140.4c-0.2,0.1-0.5,0.2-0.7,0.4c-0.5,0.3-1.5,0.9-1.9,0.1c-0.3-0.7,0.4-1.4,1-1.6s1.4-0.1,2.1-0.3
	s1.4-0.3,2.1-0.5l-0.1-0.2c-1.1,0.5-2.2,0.7-3.4,0.8c-0.8,0.1-1.5-0.1-2.3-0.1c-0.1,0-0.1,0-0.2,0.1c-0.1,0.2-0.1,0.5,0,0.7
	c0,0.3,0.3,0.8,0.2,1.1v0.4l-1.6,0.8c-0.6,0.1-1.2,0.1-1.8,0.1c-0.5,0-1.3-0.3-1.8-0.2c-0.2,0-0.4,0.2-0.4,0.4
	c-0.1,0.4-0.1,0.9-0.1,1.3c0,0.4,0,0.9,0.1,1.3c0.2,0.5,0.5,0.5,1,0.6c1,0.1,2,0.1,2.9,0c1-0.2,1.9-0.6,2.9-0.9
	c0.9-0.2,1.9-0.5,2.7-1l-0.3-0.2c-0.3,0.3-1,0.5-1.2,0.8c-0.4,0.6,0.3,1.1-0.5,1.9l0.3,0.1c0-0.7,0.3-1.5-0.5-1.6
	c-0.7,0.1-1.3,0.3-1.9,0.5c-0.3,0-0.5,0.2-0.7,0.4c-0.5,0.8,0.1,2.3,0.3,3.1c0.1,0.5,0.2,1.9,0.8,2.2c0.1,0,0.3,0,0.2-0.1
	c-0.4-1.9-2.6-0.8-3.9-0.7c-0.4,0-0.6,0.3-1-0.2c-0.2-0.3-0.2-0.7-0.1-1.1c0.2-0.8,1.5-0.8,2.2-1.1c0.5-0.2,1.7-0.3,2-0.8
	c0.1-0.1-0.2-0.2-0.3-0.1c-1,0.5-2.1,0.9-3.2,1.1c-0.7,0.1-1.2,0.1-1.2-0.6c0-0.6,0.1-1.1,0.3-1.6c0-0.2-0.3-0.2-0.3-0.1
	c-0.1,0.2-0.2,0.5-0.2,0.8c-0.1,0.4-0.2,0.8-0.3,1.2s0.1,0.7,0.1,1.1c-0.1,1-1.2,1-2,1.2c-0.2,0.1-0.4,0.1-0.6,0.2
	c-1.3,0-0.8-0.2-1-0.8s-0.4-1.5,0.3-1.8c0.5-0.1,1-0.1,1.6-0.1c0.7-0.1,1.3-0.2,2-0.3l-0.1-0.2c-0.6,0.1-1.2,0.3-1.7,0.4
	c-0.3,0.1-0.7,0.2-1.1,0.2c-0.7,0.1,0.1,0.3-1-0.1c-0.6-0.2-1.3-0.6-0.3-1.3c0.3-0.2,0.7-0.3,1-0.3c0.7,0,0.5,0.9,0.8,1.4
	c0.1,0.1,0.3,0.1,0.4,0c0-0.6-0.1-1.2-0.2-1.8c0-0.5,0.2-1.3-0.1-1.8s-1.3-0.4-1.9-0.3c-0.7,0.1-1.5,0.2-2.2,0.4
	c-0.5,0-1,0.1-1.6,0.2c-0.4,0.1-0.6,0.5-0.5,0.9c0,0.1,0,0.1,0.1,0.2c0.4,0.8,1.7,0.4,2.4,0.5c0.4,0.1,0.8,0.2,1.1,0.5
	c-0.1,0-0.1-0.2-0.2-0.2c-0.4-0.1-0.8-0.2-1.2-0.2c-0.6,0-1.8-0.3-2,0.6c0,0.6,0.1,1.2,0.3,1.8c0,0.3,0.2,0.6,0.4,0.8
	c0.1,0,0.2,0,0.2,0c0.7-0.3,0.6-0.7,0.7-1.4h-0.4c0,0.1,0.4,2.2,0.3,2.3c-0.6,0.8-0.9-0.9-0.9-1.2c-0.1-1.7-0.5-3.4-0.9-5
	c-0.2-0.8-0.6-1.3-1.4-0.8c-1.2,0.8-1,2.5-1,3.7c0,0.2,0.4,0.2,0.4,0c0.1-0.4,0.1-0.9,0.1-1.3c-0.1-0.6-0.2-1.2-0.1-1.8
	c0.2-0.4,0.2-0.2,0.5-0.3c0.1,0,0.8-0.1,0.6-0.2c0.1,0.1,0.2,0.1,0.2,0.1c0.4-0.1,0.8-0.5,1.2-0.6c0.8-0.2,1,0.1,1.1,0.9
	c0,0.2-0.1,0.4,0.1,0.6s0.4,0.2,0.4,0c0-0.9-0.2-1.7-0.4-2.6c-0.1-1-0.2-2-0.1-3h-0.4c0,0.6,0,1.1,0,1.6c0.1,0.5,0.2,1,0.1,1.4
	l-1.2,1l-0.8,0.1c-0.2,0-0.3,0-0.5,0.1c-0.7,0.1-1.4-0.1-2.1-0.1c-1,0-2-0.2-2.4-1.2c-0.2-0.4-0.3-0.9-0.3-1.4
	c0-0.4-0.2-0.5,0.4-0.4c0.2,0,1.8,0.6,1.7,0.9s0.1,0.2,0.2,0.2c1.7-0.1,3.4-0.6,4.9-1.5L73,138c-0.7,0.4-1.5,0.6-2.3,0.6
	c-1,0.1-1.3-0.7-1.3-1.5s0-0.9-0.7-1.1s-1.3-0.3-1.9-0.4s-1.8,0-1.8-1.1c0-0.7,1-0.7,1.6-0.7c0.5,0,1,0,1.5,0.2l0.8,1.3
	c0,0.2-0.1,0.4-0.1,0.7s0.2,0.2,0.3,0.2c0.3-0.2,0.5-0.4,0.7-0.7c0-0.1-0.1-0.2-0.2-0.2c-0.9-0.2-0.3-2.6-0.7-3.2s-1-0.5-1.4-0.8
	l-0.2,0.3c0.6,0.1,1.2,0.8,0.9,1.4c-0.2,0.3-0.6,0.5-0.9,0.5c-1,0.3-2.1,0.2-3-0.3c-0.1-0.1-0.5-0.1-0.4,0.1
	c0.3,0.6,1.9,0.4,2.3,0.5c0.7,0.1,1.8,0.4,2.3-0.3s-0.1-1.3,0.2-1.8s1.6-0.4,2-0.5c0.8-0.2,0.8-0.4,0.6,0.5
	c-0.1,0.6-0.2,1.3-0.1,1.9c0,0.8-0.4,2.3,0.3,2.8s2.5,0.3,3.3,0.3c0.6,0,2.3,0,2.8-0.6c0.7-0.9-0.1-3-0.2-4H77
	c0.2,1.3,0.5,2.7,0.8,4c0.1,0.5,0.3,1.8-0.6,1.6c-0.5-0.1-0.3-0.7-0.5-1.1c0-0.2-0.4-0.1-0.4,0c0,2,0.4,4,0.5,6.1h0.4
	c-0.1-0.4-0.1-0.8-0.2-1.2c-0.1-0.3,0-0.4,0.3-0.2c0.3-0.1,0.4,0,0.4,0.2c0.3,0.5,0,1.2,0.2,1.7c0,0.1,0.4,0.1,0.4,0
	c0-0.6,0-1.1,0-1.7c0-0.3,0-0.6,0-0.8c-0.2-0.2-0.2-0.3-0.6-0.3c-1,0,0,0.2,0.3,0.1c0.3,0,0.6,0,0.8-0.1c1-0.1,1.9-0.4,2.8-0.8
	c0.5-0.2,0.6-0.3,0.6-0.7s0.1-1.4-0.2-1.6s-0.8,0-1.1,0c-1,0.3-2,0.3-3.1,0.2v0.3c0.7-0.2,2.3,0,2.8-0.6c0.2-0.2,0.1-0.3,0.1-0.6
	c-0.1-0.6-0.3-1.1,0-1.7h-0.4c0,0.8-0.6,2.1,0.7,2.3c1,0.1,1.4-1.4,1.8-2.1l-0.4-0.1c-0.5,1-0.7,2.1-0.6,3.2
	c0.2,1.3,0.6,2.5,0.8,3.8c0,0.2,0.4,0.1,0.4,0c0-0.9-0.1-1.7-0.5-2.5c-0.2-0.3-0.5-0.2-0.9-0.1s-0.8,0.1-1.1,0.4
	c-0.4,0.6-0.1,2.1-0.2,2.8l0.4-0.1l-0.1-0.1c-0.1-0.1-0.5,0-0.4,0.1l0.1,0.1c0.1,0.1,0.4,0.1,0.4-0.1c0-0.6-0.3-2.5,0.4-2.9
	c1.2-0.6,1.3,1.6,1.3,2.2h0.4c-0.2-1-0.4-2.1-0.6-3.1c-0.3-1.3-0.2-2.6,0.4-3.8c0.1-0.2-0.3-0.2-0.4-0.1c-0.3,0.5-1,2.5-1.7,1.4
	c-0.3-0.5,0-0.9,0-1.5c0-0.2-0.3-0.2-0.4,0c-0.3,0.5-0.2,0.8-0.2,1.3c0,1.5-1.3,1.1-2.5,1.4c-0.2,0.1-0.2,0.2,0,0.3
	c0.7,0.1,1.3,0.1,2,0c0.9-0.1,2.5-0.6,2.2,0.8c0.2,0.4-0.1,0.7-0.6,0.8l-0.6,0.1c-0.5,0.1-1,0.4-1.5,0.5c-0.7,0.1-1.6-0.1-2.2,0.2
	c-0.2,0.1-0.1,0.2,0,0.2c0.5,0.1,0.7,0,0.9,0.5c0.1,0.7,0.2,1.5,0.1,2.2h0.4c-0.2-0.7,0.2-2.4-0.8-2.6c-1.3-0.2-0.7,1.5-0.7,2.1
	c0,0.2,0.4,0.2,0.4,0c0-2-0.5-4-0.4-6.1h-0.4c0.1,0.4-0.1,1.1,0.4,1.3c0.5,0.1,1,0,1.5-0.3c0.4-0.4,0.2-0.9,0-1.4
	c-0.3-1.4-0.6-2.9-0.8-4.3c0-0.2-0.4-0.2-0.4,0c0,1,0.8,2.8,0.3,3.7c-0.3,0.6-1.5,0.5-2.2,0.6c-0.9,0.1-1.8,0.1-2.7-0.1
	c-0.8-0.2-0.7-0.8-0.7-1.6c0-0.5,0-1,0-1.6s0.6-1.9,0.2-2.4c-0.1-0.1-0.2-0.1-0.3-0.1c-1.1,0.2-2.1,0.5-3.1,0.9c0,0-0.1,0.1-0.1,0.1
	c0,0.3,0,0.6,0,0.9c-0.1,1-1,1-1.8,0.9c-0.3,0-2.1,0-2.2-0.3l-0.4,0.1c1.3,0.7,2.8,0.8,4.2,0.2c1.2-0.6,0.3-2.1-0.7-2.3
	c-0.2,0-0.4,0.1-0.2,0.3s0.8,0.3,1.1,0.6c0.3,0.6,0.4,1.4,0.3,2.1c0,0.4,0,0.8,0.2,1.1c0.1,0.2,0.8,0.2,0,0.6l0.3,0.2
	c0.2-0.7,0.5-1.6-0.2-2.1c-0.9-0.4-2-0.6-3-0.4c-0.5,0-1.4,0-1.7,0.5c-0.2,0.6,0,1.3,0.6,1.7c0.3,0.1,0.7,0.1,1,0.1
	c0.8,0.1,1.6,0.2,2.3,0.5c1,0.4,0.3,1.6,0.8,2.4c0.3,0.5,0.8,0.3,1.3,0.3c1-0.1,2-0.3,2.9-0.8c0.2-0.1-0.1-0.3-0.3-0.2
	c-1.4,0.9-3,1.3-4.6,1.4l0.2,0.2c0.1-0.3,0-0.4-0.2-0.6c-0.4-0.2-0.7-0.3-1.2-0.4c-0.4-0.2-0.9-0.3-1.4-0.4c-0.1,0-0.2,0-0.3,0.1
	c0,0.4,0,0.8,0.1,1.2c0,0.6,0.2,1.1,0.5,1.6c0.9,1.2,2.3,0.9,3.7,1c1,0.1,3,0.1,3.8-0.6c0.2-0.3,0.4-0.8,0.3-1.2
	c0-0.9-0.2-1.9-0.2-2.8c0-0.2-0.4-0.2-0.4,0c0,0.9,0,1.8,0.1,2.7c0.2,0.9,0.4,1.8,0.5,2.7h0.4c-0.3-0.6,0.2-1.6-0.7-1.8
	c-0.3-0.1-2.2,0.6-2,0.8c-0.1-0.1-0.2-0.1-0.3-0.1c-0.4,0.2-1.1-0.1-1.4,0.3s-0.1,0.7-0.1,0.9c0.1,0.9,0.1,1.8,0,2.6H70
	c0-0.5,0-1.1,0.1-1.6c0-0.4,0.2-0.8,0.4-1.2c0.1-0.7,0.5-0.8,1-0.3l0.1,0.4c0.5,1.3,0.7,2.6,0.8,3.9c0.1,0.6-0.2,1.6,0.2,2.1
	c0.4,0.3,1,0.5,1.5,0.4c0.1,0,0.2-0.1,0.2-0.2c-0.3-0.8-0.4-1.7-0.4-2.5c0-0.2-0.4-0.2-0.4,0s0,1.1-0.3,1.1
	c-0.2-0.5-0.3-1.1-0.4-1.6c-0.2-0.3-0.1-0.5,0.3-0.6c0.1-0.2,0.4-0.3,0.6-0.3c0.3-0.1,0.7-0.1,1,0c0.5,0.1,0.7,0.4,1.1,0.6
	c0.1,0,0.3,0,0.3-0.1c0.2-0.4,0-0.9-0.4-1.1c-0.5-0.1-0.9-0.1-1.4,0c-0.7,0-2.7-0.5-1.1-1c0.6-0.1,1.1-0.2,1.7-0.2
	c0.7-0.2,1.3-0.3,2-0.3c1.3,0.1,1.1,0.9,1.2,1.9c0.1,0.6,0.2,1.2,0.2,1.8h0.4c-0.3-0.6-0.1-1.5-0.9-1.7c-0.4-0.1-1.9,0.5-2.1,1
	c-0.1,0.7,0.3,1.4,1,1.6c0.5,0.1,1.1-0.3,1.6-0.4c0.8-0.2,1.7-0.3,2.5-0.5c0.2-0.1,0.1-0.3-0.1-0.2c-1.1,0.2-2.3,0.4-3.4,0.4
	c-0.4,0-0.7,0-1,0.3s0.2,1.3,0.2,1.7s0.2,0.9,0.7,1.1c0.5,0.1,1,0,1.5-0.2c0.8-0.1,1.5-0.3,2.2-0.6c0.4-0.4,0.2-0.6,0.1-1.2
	c-0.1-0.9,0.1-1.8,0.4-2.6l-0.3-0.1c-0.2,0.7-0.9,2.3,0.1,2.8c0.5,0.2,1.3-0.2,1.7-0.3c0.9-0.3,1.9-0.6,2.8-1l-0.3-0.1
	c-0.1,0.2-1.2,0.4-1.4,0.5c-0.8,0.2-1.6,0.4-2.4,0.7c-0.5,0.4-0.6,1.1-0.3,1.7c0.3,0.8,0.6,0.7,1.3,0.6c0.9-0.2,1.8-0.3,2.7-0.3
	c0.5,0,0.9,0.4,1,0.8l0.2-0.1c-0.2-0.1-0.4-1.2-0.5-1.4c-0.2-0.8-0.4-1.6-0.5-2.4c-0.1-1.2,0.8-1.7,1.9-1.8c0.9,0,0.6,0.5,0.6,1.2
	c0,0.1,0.2,0.2,0.3,0.1c0.4-0.3,0.6-0.8,0.6-1.3c0-0.9,0.7-0.9,1.2-1.4c0.1-0.2-0.2-0.2-0.3-0.2c-0.9,0.7-2.1,0.7-3.2,1
	c-1.3,0.6-2.8,0.8-4.2,0.8c-0.3,0-0.7,0-1,0c-0.3-0.1-0.5-0.8-0.6-1.1c-0.1-0.5-0.1-1,0-1.6c0.2-0.3,0.9-0.2,1.2-0.1
	c0.7,0,1.3-0.1,2-0.1s1.7,0.1,2.2-0.4s0.1-1.4,0.1-2s0.2-0.5,0.7-0.4c0.5,0,1,0,1.5-0.1c1.2-0.1,2.4-0.3,3.4-0.8
	c0.2-0.1,0-0.3-0.2-0.2c-0.6,0.2-1.2,0.3-1.9,0.4c-0.8,0.2-1.6,0.1-2.4,0.3s-1.2,0.4-1.2,1.3c0,0.6-0.1,1.2,0.6,1.3s1.8-0.7,2.5-1
	c0.2-0.1,0-0.3-0.2-0.2L89.1,140.4z"/>
<path class="st0" d="M73.8,123.3c-1-1.2-1.3-3.2-1.6-4.6c-0.4-1.6-0.6-3.2-0.7-4.9c0-0.8,0.2-1.5,0.2-2.3c-0.1-0.7,0.1-1.4,0.3-2
	c0.4-0.6,0.8-1.2,1.3-1.7c0.2-0.4,0.5-1.1,1-1.2c0.2-0.1,0.1-0.3-0.1-0.3c-0.4,0.1-0.7,0.4-0.9,0.8c-0.4,0.5-0.7,1.1-1.1,1.6
	c-1,1.3-0.9,2.8-1,4.4c-0.1,1.8,0.1,3.6,0.6,5.3c0.2,0.9,0.4,1.8,0.7,2.7c0.2,0.8,0.5,1.6,1,2.2C73.6,123.5,73.9,123.4,73.8,123.3
	L73.8,123.3z"/>
<path class="st0" d="M76.1,119.3C76.1,119.3,76,119.3,76.1,119.3L76.1,119.3h0.4c0.3,0,0.7,0,1,0l0.9-0.1c0.2,0,0.3-0.1,0.5-0.1
	c0.1-0.1,0.2-0.1,0.3-0.2c0.1,0,0.2-0.1,0.2-0.2s-0.2-0.2-0.2-0.2c-0.3,0-0.6,0.2-0.9,0.2s-0.7,0.1-1.1,0.1s-0.6,0-0.8,0
	s-0.5,0.1-0.6,0.3s0.3,0.2,0.4,0.1L76.1,119.3z"/>
<path class="st0" d="M30,70c-2,1.8,0.3,5.1,1.5,6.7c0.6,0.8,1.5,1.3,2.1,2c1.1,1.2,3.7,3.7,3.7,5.4c0,0.3,0.7,0.3,0.7,0
	c-0.1-3.3-11-10.3-7.6-13.8C30.8,70,30.2,69.8,30,70z"/>
<path class="st0" d="M33.8,88.9c0.8-0.8,1.8-1.4,2.5-2.2s1-1.7,1.5-2.5c0.6-0.7,1.3-1.4,2-2c0.6-0.6,0.7-1.4,1.3-2
	c0.3-0.3-0.4-0.5-0.6-0.3c-0.6,0.6-0.6,1.1-1.1,1.8s-1.5,1.1-2,1.9c-0.5,0.7-0.9,1.4-1.3,2.2c-0.7,1.2-1.9,1.9-2.8,2.9
	C33,88.9,33.6,89.1,33.8,88.9L33.8,88.9z"/>
<path class="st0" d="M43.8,87.7c-0.5,2.6,1.6,6.2,4.5,5.1c1.3-0.5,2.2-1.7,3.6-2.2c0.6-0.3,1.3-0.2,2-0.6c1.1-0.7,1.6-2,1.2-3.2
	c-0.4-1-1-1.9-1.8-2.6c-1.9-1.7,0.5,1.4,0.8,1.8c0.7,1.1,1,2.4,1.8,3.5s2,2,2.7,3.4c1.6,3.2,2.7,8.5,6.2,10.2c0.4,0.2,1-0.3,0.5-0.6
	c-3.8-1.9-4.3-7.8-6.4-11c-1.3-1.9-2.6-3.8-3.8-5.8c-0.7-1.3-1.7-2.5-2.9-3.3c-0.2-0.1-0.6,0-0.6,0.2c0,0.8,0.1,0.4,0.8,1.4
	c0.4,0.4,0.8,0.8,1.2,1.3c0.8,2.8,0.2,4.3-1.8,4.5c1-0.7-3,1.3-1.9,0.9c-0.9,1.2-2.6,1.5-3.9,0.6c-1-1-1.5-2.4-1.4-3.8
	C44.5,87.3,43.8,87.3,43.8,87.7L43.8,87.7z"/>
<path class="st0" d="M54.2,104.3c-0.2-2.5-1.8-4.1-3.2-6c-0.9-1.3-1.1-2.8-1.9-4.2c-0.7-1-1.6-1.8-2.5-2.5c-0.3-0.2-1,0-0.7,0.3
	c1,0.8,1.9,1.7,2.6,2.7c0.6,1,0.7,2.2,1.2,3.2c1.3,2.3,3.2,3.7,3.7,6.5C53.6,104.7,54.3,104.7,54.2,104.3L54.2,104.3z"/>
<path class="st0" d="M28.6,129.5c0.7-0.1,0.5-0.2,1.1-0.3c4.7-0.9,2.7-0.4,5.1,0.6c0.9,0.3,1.9,0.3,2.8,0.1c1.9-0.1,3.3,0.5,5,1.1
	c1.1,0.3,1.9,0.5,2.8-0.3c0.4-0.4-0.3-0.7-0.7-0.5c-1.5,1.2-2.9-1.2-4.3-1.6c-2.1-0.5-3.2,1.3-5.6,0.4c-1-0.4-1.3-1-2.4-1.1
	c-1.6-0.2-2.5,1-3.9,1.2C28.1,129,28.2,129.5,28.6,129.5L28.6,129.5z"/>
<path class="st0" d="M54,168.1c-0.6-3.6-3.4-3.7-6.4-4.9c-5.6-2.2-5.1-7.4-6.4-12.7c-0.1-0.4-0.8-2-0.8-2.4
	c-0.2-1.7,1.1-3.3,1.5-4.7c0.6-1.4,0.7-3,0.3-4.5c-0.3-1.4-1-2.8-1.4-4.2c-0.4-1.2-0.2-3.1-0.7-4.1s-0.2-1.2-1.3-1.8
	c-0.4-0.2-0.9,0.3-0.4,0.5c1.2,0.7,1.1,4.2,1.6,5.6s1.1,2.7,1.4,4.2c0.6,2.3-0.2,3.1-1.2,5.3c-1.3,3.2-0.2,5.5,0.4,9.1
	c0.6,3.1,1.3,7.5,4,9.4c3,2,7.8,0.7,8.8,5.3C53.4,168.4,54,168.3,54,168.1L54,168.1z"/>
<path class="st0" d="M46.8,118.8c-1.4,0.2-2.2,1.3-3.2,2.2c-1.3,0.9-2.5,2-3.7,3.1c-1.6,1.7-0.2,3.6-1.3,5.4
	c-0.2,0.4,0.5,0.6,0.7,0.3c0.4-0.5,0.6-0.3,0.8-0.9c0.3-1.1-0.5-2.3-0.1-3.4c0.4-1.3,2.2-2.5,3.2-3.4c0.8-0.7,2.7-2.6,3.7-2.8
	C47.4,119.2,47.2,118.8,46.8,118.8z"/>
<path class="st0" d="M57.4,75.3c1.1-0.9,1.9-2.1,2.4-3.5l-1-0.1c0,0.9-1.1,1.2-0.7,2.1c0.6,0.8,1.5,1.5,2.5,1.9
	c1.4,0.7,3.6,0.9,4.4-0.9l-1-0.2c-0.4,1.5-0.9,2.5,0.4,3.7c0.4,0.3,1.4,0,1-0.4c-1-1-0.7-2-0.4-3.2c0.1-0.5-0.8-0.6-1-0.2
	c-0.8,1.9-3.4,0.5-4.4-0.5s-0.1-1.3,0.2-2.4c0.1-0.5-0.7-0.6-1-0.3c-0.8,1.1-1.4,2.2-2.2,3.3C56.2,75.3,57,75.5,57.4,75.3L57.4,75.3
	z"/>
<path class="st0" d="M60.2,64c-0.3-0.1-1,0.4-1.1,0.7c-0.2,0.5,0.1,1.1,0.6,1.3C59.8,66,60,66,60.2,66c0.5-0.2,0.8-0.8,0.7-1.3
	c-0.1-0.6-0.5-0.8-1.1-0.7"/>
<path class="st0" d="M70.1,69.4c-0.9,0.2-1.4,1-1.2,1.9c0,0.2,0.1,0.3,0.2,0.5c0.7,0.9,1.2-0.2,1.2-0.8s0-1.3-0.9-1.4"/>
<path class="st0" d="M64.6,69.2c-0.1,0-0.3,0-0.4,0c-0.2,0-0.3,0.1-0.4,0.2c-0.1,0.1-0.1,0.2-0.1,0.3c0,0.1,0.1,0.2,0.2,0.3
	c0.2,0.2,0.6,0.2,0.8,0c0.2-0.1,0.2-0.3,0.2-0.5C64.8,69.3,64.7,69.1,64.6,69.2c-0.2,0-0.5,0.1-0.5,0.3c0,0,0,0.1,0,0.1l0,0l0,0l0,0
	l0,0l0,0l0,0l0,0h-0.1h0.3l0,0l0,0l0,0l0,0l0,0l0,0l0,0c0,0,0-0.1,0,0l-0.2,0.2c0,0,0.1,0,0.1,0c-0.1,0,0,0,0,0l0,0c-0.1,0,0,0,0,0
	c0.2,0,0.3,0,0.4-0.2c0.1-0.2-0.1-0.3-0.2-0.3L64.6,69.2z"/>
<path class="st0" d="M42.5,68.7c0.3-2-0.2-4,1.3-5.7c0.5-0.5-0.6-0.8-0.9-0.5c-1.8,1.3-1.4,4.3-1.1,6.2
	C41.8,69.1,42.5,69.1,42.5,68.7z"/>
<path class="st0" d="M51.7,52.3c0.9-0.2,0.7-0.3,1.6-0.7c1.9-0.8,0.2-0.9,2.5-0.7c0.9,0.1,1,0.5,1.5,0.5c2.7,0.2,4-1.5,7.1-1
	c0.8,0.1,2.2,0.3,3,0.5c2.8,0.6,3.3,2.2,5.1,3.8c1.3,1.2,3,2.3,4.7,1.7c0.7-0.3,0-0.9-0.6-0.7c-2.5,0.9-5.1-4.9-7.2-5.7
	c-0.7-0.1-1.3-0.1-2,0c-1.1-0.2-2.1-0.5-3.1-0.9c-1.7-0.5-1-0.7-2.3-0.5c-1.2,0.2-1.8,1.6-2.9,1.8c-2.3,0.3-1.3-0.9-3-1
	c-2.5-0.2-2.5,1.6-4.7,2.4C50.9,52,51.4,52.4,51.7,52.3L51.7,52.3z"/>
<path class="st0" d="M77.9,63.8c0.1-2.3,1-4.8-0.9-6.7c-0.2-0.2-1-0.1-0.7,0.3c1.6,1.9,0.9,4.1,0.9,6.4
	C77.2,64.1,77.9,64.1,77.9,63.8z"/>
<path class="st0" d="M46.3,61.3c-2.2-2.2-2.9-6.9-4.3-9.7c-2.3-4.5-1.5-9.4-1.8-14.3c0-0.5-1-0.5-1,0c-0.3,4.8-0.5,10.2,1.6,14.6
	c1.2,2.6,2.4,8.1,5,9.7C45.9,61.8,46.7,61.7,46.3,61.3L46.3,61.3z"/>
<path class="st0" d="M45.8,50.8c-1.2-1.8-1.3-4.8-1.8-7c-0.2-1.1-0.5-2.1-0.9-3.1c-0.5-0.7-1-1.5-1.4-2.3l-0.8,0.3
	c2.1,1.6,2.7,4.9,4,7.1c0.5,0.9,1.2,1.8,1.7,2.7c0.6,1.2,1.1,2.5,1.5,3.8c0.2,0.4,1.2,0.4,1.1-0.1V52c-0.1-0.5-1.2-0.5-1.1,0v0.2
	l1.1-0.1c-0.5-1-0.5-2.1-1.1-3.1c-0.7-1.2-1.5-2.3-2.3-3.5c-1.4-2.2-2.2-5.6-4.3-7.2c-0.2-0.2-0.9-0.1-0.8,0.3
	c0.2,0.6,0.5,1.1,0.9,1.6c0.8,1.5,1.3,3,1.6,4.6c0.5,2,0.5,4.5,1.9,6.2C45.4,51.2,46,51.1,45.8,50.8L45.8,50.8z"/>
<path class="st0" d="M62.7,42.8c-3.6-2.5-4.9-6.8-6.1-10.8c-1-3.2-2.6-5.8-4-8.8C49.9,17.5,45.9,8.5,48,2c0.2-0.7-1.1-0.9-1.4-0.3
	c-1,2.2-0.8,5.9,0,8.1c1.6,4.5,3.2,9.2,5.2,13.5c1.7,3.7,3.4,6.9,4.6,10.9c1,3.4,2.7,7,5.8,8.9C62.5,43.3,63,43,62.7,42.8L62.7,42.8
	z"/>
<path class="st0" d="M62.2,37.8c-3.1-1.4-6.1-3.2-8.7-5.4c-2.9-2.6-4.8-7-6.6-10.5C44,16.3,41.1,8.2,43.3,2c0.2-0.7-1.1-0.9-1.4-0.3
	c-2.4,6.2,1.2,14.9,4.1,20.5c1.6,3.1,3.5,7.2,5.9,9.8s6.7,4.7,10,6.2C62.2,38.3,62.6,38,62.2,37.8L62.2,37.8z"/>
<path class="st0" d="M41.1,71.9c1.3,3.3,4.6,5.1,7.7,6.5c3.8,1.7,7.2,3.6,11.5,2.7c0.7-0.1,0.5-0.9-0.2-0.9h-0.1c-0.8,0-0.8,0.9,0,1
	H60l-0.2-0.9c-3.6,0.8-6.8-0.7-10-2.1s-6.4-3.1-8.1-6.3C41.6,71.6,40.9,71.6,41.1,71.9L41.1,71.9z"/>
</svg>
