<svg id="Camada_1" data-name="Camada 1" xmlns="http://www.w3.org/2000/svg" viewBox="0 0 24 24"><defs><style>.cls-1{fill:#232323;}</style></defs><path class="cls-1" d="M12,0A12,12,0,1,0,24,12,12,12,0,0,0,12,0Zm9.57,9.1A.6.6,0,0,0,21.36,9c-.26-.1-1.35.6-1.51.26s-.33.14-.58,0-.46-.52-.61-.46c-.31.11.48,1,.69,1.09.2-.16.86-.47,1,0,.27.81-.74,1.7-1.26,2.17-.78.7-.63-.46-1.16-.86-.28-.21-.27-.67-.55-.83a3.48,3.48,0,0,1-.7-.82l0,.17c-.09.07-.29-.27-.31-.32,0,.29.48.77.64,1a7.8,7.8,0,0,0,.76,1.33c.18.19.86.93,1,.91l.92-.43c.65.15-1.53,3.23-1.73,3.61s.13,1.12.11,1.49-.37.58-.7.82-.27.75-.56.94c-.52.32-.9,1.36-1.64,1.36-.22,0-1.15.36-1.27,0s-.23-.45-.36-.71,0-.51-.18-.73-.47-.5-.51-.68.12-.63.28-.72,0-.46,0-.66a1.37,1.37,0,0,0-.53-.86c-.4-.3-.19-.54-.1-1,0-.21-.13-.48-.4-.4-.57.17-.4-.44-.82-.42a4.73,4.73,0,0,0-.82.3,2.53,2.53,0,0,1-1.05-.13c-1.42-.18-1.89-1.8-1.51-3,0-.19-.12-.55-.05-.7a3.61,3.61,0,0,1,.77-1c.16-.15.36-.11.55-.23s.29-.56.58-.79a2.8,2.8,0,0,1,1.48-.39c.28,0,1.35-.27,1.52-.06,0,0,.19.61,0,.58.44,0,1.06.75,1.47.58.22-.09.14-.74.58-.43A2.47,2.47,0,0,0,16.51,9c.15-.12.24-.93.06-1,.11.12-.62.13-.69.1s-.24.12-.43,0c.12.05-.65-.36-.22-.68-.18.14-.35,0-.54.11s.06.18-.13.28-.54-.53-.65-.61-1-.71-.78-.3l.8.8s-.21-.29-.21-.06c0-.14,0,.58-.11.35s.09-.14,0-.27-.23-.17-.28-.23a2.76,2.76,0,0,0-.64-.59,4.89,4.89,0,0,0-.83.12,1.57,1.57,0,0,0-.18.31,1.94,1.94,0,0,0-.43.22l-.16.35a6.64,6.64,0,0,1-.77.3c0-.07-.49-.17-.46-.32A2.92,2.92,0,0,0,10,7c0-.2,1.08.29,1.16-.23,0-.23,0-.5-.32-.54a2.56,2.56,0,0,0,.81-.36,1.31,1.31,0,0,1,.73-.45c.29,0,.23-.41.36-.62.13,0-.08.38.08.51,0-.1.45.06.5,0s.69,0,.6-.3,0-.2.18-.26c0,0,.25-.46.37-.45-.11-.09-.4.11-.52.1-.31,0-.18-.53-.06-.67s-.25-.26-.25,0-.32.64-.24,1.08c.1.66-.75-.16-.82-.12-.28.17-.52-.21-.37-.45s.51-.22.66-.48a1.82,1.82,0,0,1,.39-.52c.54-.45.69-.09,1.23,0s.18.12.1.32.29.27.42.1a2.62,2.62,0,0,0,.3-.49c.07-.18.57-.2.52-.37A10.06,10.06,0,0,1,21.57,9.1ZM10.45,5.32l.07-.09.08,0s.08-.12.15-.1.14.09.11.15-.07,0-.08.1-.19.16-.32.22-.17,0-.09-.1l.09-.11Zm.45.24s.13,0,.15-.09a.4.4,0,0,0,0-.34s.12-.08.05-.13L11,5s.16-.67.37-.37l-.09.11a1.56,1.56,0,0,1,.21.68c.13.07.33.08.1.2.12,0-.62.31-.72.17s.32-.14.31-.17S10.84,5.63,10.9,5.56ZM12.33,2,12,2.34c-.36.3-1.28.89-1.79.71s-1.65.66-1.83.67,0-.64.36-.69c-.14,0,1-.57,1.19-.8A9.65,9.65,0,0,1,12,2ZM7.24,3.21c.07.08.28.09,0,.28s-.37.81-.54.81c-.51.23-.55-.44-1.11.42-.08.11-.4.15-.65.23A9.91,9.91,0,0,1,7.24,3.21ZM2,12a10.44,10.44,0,0,1,.14-1.59l.29.19c.11.13.11.72.17.91a5,5,0,0,0,.75,1.19,2.31,2.31,0,0,1,.33,1.2c.11-.18,1.08.82,1.26,1,.42.49.74,1.09.06,1.57-.22.16.33,1.14,0,1.39L4.68,18a.52.52,0,0,0-.16.63A9.93,9.93,0,0,1,2,12ZM16.35,6.18c.08,0-.11.16-.11.16,0,.26.22.4.58.53s0,.46-.21.39-.86-.26-.88,0-.68,0-.57-.17.05-.39.18-.57.38-.11.39,0C15.73,7,16.13,6.2,16.35,6.18Z"/></svg>